<svg xmlns="http://www.w3.org/2000/svg" xmlns:xlink="http://www.w3.org/1999/xlink" width="40" zoomAndPan="magnify" viewBox="0 0 30 30.000001" height="40" preserveAspectRatio="xMidYMid meet" version="1.0"><defs><clipPath id="e1e22d35d4"><path d="M 1 0 L 20.804688 0 L 20.804688 23 L 1 23 Z M 1 0 " clip-rule="nonzero"/></clipPath><clipPath id="6b624f6d8d"><path d="M 12 13 L 20.804688 13 L 20.804688 29 L 12 29 Z M 12 13 " clip-rule="nonzero"/></clipPath></defs><g clip-path="url(#e1e22d35d4)"><path fill="#fcf5eb" d="M 16.785156 4.5 C 15.53125 4.152344 14.796875 2.859375 15.144531 1.613281 C 15.320312 0.992188 14.953125 0.347656 14.328125 0.171875 C 13.699219 0 13.050781 0.363281 12.875 0.988281 L 9.125 14.367188 C 8.5625 13.789062 7.84375 13.351562 7.011719 13.121094 C 4.5 12.425781 1.886719 13.890625 1.183594 16.386719 C 0.484375 18.882812 1.960938 21.476562 4.472656 22.171875 C 6.984375 22.867188 9.597656 21.402344 10.296875 18.90625 L 14.050781 5.519531 C 14.613281 6.089844 15.324219 6.523438 16.152344 6.753906 C 17.402344 7.101562 18.136719 8.394531 17.789062 9.636719 C 17.613281 10.257812 17.980469 10.90625 18.609375 11.078125 C 19.234375 11.25 19.886719 10.886719 20.058594 10.265625 C 20.757812 7.777344 19.289062 5.191406 16.785156 4.5 Z M 16.785156 4.5 " fill-opacity="1" fill-rule="nonzero"/></g><g clip-path="url(#6b624f6d8d)"><path fill="#fcf5eb" d="M 17.152344 15.359375 C 16.371094 15.558594 15.574219 15.085938 15.375 14.308594 C 15.277344 13.921875 14.878906 13.6875 14.488281 13.785156 C 14.097656 13.882812 13.859375 14.277344 13.960938 14.667969 L 16.089844 23.015625 C 15.609375 22.875 15.085938 22.859375 14.566406 22.992188 C 13 23.386719 12.046875 24.972656 12.445312 26.53125 C 12.84375 28.089844 14.441406 29.03125 16.007812 28.636719 C 17.578125 28.242188 18.527344 26.65625 18.128906 25.097656 L 16 16.746094 C 16.476562 16.878906 16.996094 16.898438 17.511719 16.765625 C 18.292969 16.570312 19.089844 17.042969 19.289062 17.816406 C 19.386719 18.207031 19.785156 18.441406 20.175781 18.34375 C 20.566406 18.242188 20.804688 17.847656 20.703125 17.460938 C 20.308594 15.910156 18.714844 14.96875 17.152344 15.359375 Z M 17.152344 15.359375 " fill-opacity="1" fill-rule="nonzero"/></g></svg>