<svg xmlns="http://www.w3.org/2000/svg" xmlns:xlink="http://www.w3.org/1999/xlink" width="60" zoomAndPan="magnify" viewBox="0 0 45 30.000001" height="40" preserveAspectRatio="xMidYMid meet" version="1.0"><defs><clipPath id="a751c24b08"><path d="M 2 2.652344 L 16 2.652344 L 16 26.605469 L 2 26.605469 Z M 2 2.652344 " clip-rule="nonzero"/></clipPath><clipPath id="170a55b541"><path d="M 15 2.652344 L 30 2.652344 L 30 26.605469 L 15 26.605469 Z M 15 2.652344 " clip-rule="nonzero"/></clipPath><clipPath id="48c0c8bbbe"><path d="M 29 2.652344 L 43.328125 2.652344 L 43.328125 26.605469 L 29 26.605469 Z M 29 2.652344 " clip-rule="nonzero"/></clipPath></defs><g clip-path="url(#a751c24b08)"><path fill="#ffbfbf" d="M 4.429688 26.554688 C 3.972656 26.554688 3.554688 26.429688 3.171875 26.179688 C 2.789062 25.925781 2.507812 25.589844 2.328125 25.171875 C 2.144531 24.75 2.09375 24.316406 2.171875 23.863281 C 2.25 23.414062 2.445312 23.019531 2.757812 22.6875 L 10.195312 14.734375 L 2.757812 6.785156 C 2.550781 6.5625 2.394531 6.308594 2.285156 6.023438 C 2.179688 5.738281 2.128906 5.445312 2.140625 5.140625 C 2.148438 4.835938 2.21875 4.542969 2.34375 4.265625 C 2.46875 3.988281 2.640625 3.746094 2.863281 3.539062 C 3.085938 3.328125 3.339844 3.171875 3.621094 3.0625 C 3.90625 2.957031 4.203125 2.90625 4.503906 2.917969 C 4.808594 2.929688 5.097656 2.996094 5.375 3.121094 C 5.652344 3.246094 5.894531 3.421875 6.101562 3.644531 L 15.003906 13.164062 C 15.203125 13.375 15.355469 13.617188 15.464844 13.890625 C 15.570312 14.160156 15.625 14.441406 15.625 14.734375 C 15.625 15.023438 15.570312 15.308594 15.464844 15.578125 C 15.355469 15.847656 15.203125 16.089844 15.003906 16.304688 L 6.101562 25.828125 C 5.648438 26.3125 5.09375 26.554688 4.429688 26.554688 Z M 4.429688 26.554688 " fill-opacity="1" fill-rule="nonzero"/></g><g clip-path="url(#170a55b541)"><path fill="#ffbfbf" d="M 18.175781 26.554688 C 17.71875 26.554688 17.300781 26.429688 16.917969 26.179688 C 16.535156 25.925781 16.253906 25.589844 16.070312 25.171875 C 15.890625 24.75 15.839844 24.316406 15.917969 23.863281 C 15.996094 23.414062 16.191406 23.019531 16.503906 22.6875 L 23.9375 14.734375 L 16.503906 6.785156 C 16.292969 6.5625 16.136719 6.308594 16.03125 6.023438 C 15.921875 5.738281 15.875 5.445312 15.882812 5.140625 C 15.894531 4.835938 15.960938 4.542969 16.085938 4.265625 C 16.210938 3.988281 16.386719 3.746094 16.609375 3.539062 C 16.828125 3.328125 17.082031 3.171875 17.367188 3.0625 C 17.652344 2.957031 17.945312 2.90625 18.25 2.917969 C 18.554688 2.929688 18.84375 2.996094 19.121094 3.121094 C 19.398438 3.246094 19.640625 3.421875 19.847656 3.644531 L 28.75 13.164062 C 28.949219 13.375 29.101562 13.617188 29.207031 13.890625 C 29.316406 14.160156 29.367188 14.441406 29.367188 14.734375 C 29.367188 15.023438 29.316406 15.308594 29.207031 15.578125 C 29.101562 15.847656 28.949219 16.089844 28.75 16.304688 L 19.847656 25.828125 C 19.394531 26.3125 18.835938 26.554688 18.175781 26.554688 Z M 18.175781 26.554688 " fill-opacity="1" fill-rule="nonzero"/></g><g clip-path="url(#48c0c8bbbe)"><path fill="#ffbfbf" d="M 31.917969 26.554688 C 31.460938 26.554688 31.042969 26.429688 30.660156 26.179688 C 30.28125 25.925781 30 25.589844 29.816406 25.171875 C 29.636719 24.75 29.582031 24.316406 29.660156 23.863281 C 29.738281 23.414062 29.933594 23.019531 30.246094 22.6875 L 37.683594 14.734375 L 30.246094 6.785156 C 30.039062 6.5625 29.882812 6.308594 29.773438 6.023438 C 29.667969 5.738281 29.617188 5.445312 29.628906 5.140625 C 29.640625 4.835938 29.707031 4.542969 29.832031 4.265625 C 29.957031 3.988281 30.128906 3.746094 30.351562 3.539062 C 30.574219 3.328125 30.828125 3.171875 31.113281 3.0625 C 31.394531 2.957031 31.691406 2.90625 31.992188 2.917969 C 32.296875 2.929688 32.589844 2.996094 32.863281 3.121094 C 33.140625 3.246094 33.382812 3.421875 33.589844 3.644531 L 42.492188 13.164062 C 42.691406 13.375 42.84375 13.617188 42.953125 13.890625 C 43.058594 14.160156 43.113281 14.441406 43.113281 14.734375 C 43.113281 15.023438 43.058594 15.308594 42.953125 15.578125 C 42.84375 15.847656 42.691406 16.089844 42.492188 16.304688 L 33.589844 25.828125 C 33.140625 26.3125 32.582031 26.554688 31.917969 26.554688 Z M 31.917969 26.554688 " fill-opacity="1" fill-rule="nonzero"/></g></svg>