<svg xmlns="http://www.w3.org/2000/svg" xmlns:xlink="http://www.w3.org/1999/xlink" width="40" zoomAndPan="magnify" viewBox="0 0 30 30.000001" height="40" preserveAspectRatio="xMidYMid meet" version="1.0"><defs><clipPath id="e68265bce5"><path d="M 0.484375 0 L 10 0 L 10 8 L 0.484375 8 Z M 0.484375 0 " clip-rule="nonzero"/></clipPath><clipPath id="674de46d9e"><path d="M 18 0 L 22.257812 0 L 22.257812 26.855469 L 18 26.855469 Z M 18 0 " clip-rule="nonzero"/></clipPath></defs><path fill="#fcf5eb" d="M 11.660156 21.878906 C 11.652344 21.878906 11.640625 21.878906 11.628906 21.875 C 11.578125 21.859375 11.550781 21.800781 11.570312 21.75 C 12.121094 20.175781 12.890625 19.027344 13.871094 18.347656 C 13.894531 18.332031 13.921875 18.3125 13.953125 18.289062 C 14.296875 18.058594 15.015625 17.566406 15.5 16.6875 C 15.699219 16.335938 15.820312 16.003906 15.84375 15.851562 C 15.761719 15.925781 15.625 16.085938 15.496094 16.226562 C 15.355469 16.390625 15.191406 16.574219 15.011719 16.753906 C 14.324219 17.441406 13.859375 17.941406 13.484375 18.335938 C 12.800781 19.066406 12.492188 19.394531 11.894531 19.769531 C 10.96875 20.335938 9.402344 20.988281 8.867188 20.425781 C 8.628906 20.179688 8.722656 19.835938 8.894531 19.21875 C 8.992188 18.859375 9.117188 18.417969 9.226562 17.824219 C 9.359375 17.132812 9.433594 16.570312 9.464844 16.109375 C 9.347656 16.101562 9.199219 16.085938 9.007812 16.074219 C 8.570312 16.046875 8.355469 16.054688 8.210938 16.058594 C 8.058594 16.0625 7.96875 16.0625 7.785156 16.019531 C 7.320312 15.910156 6.996094 15.679688 6.359375 15.21875 C 6.152344 15.070312 5.898438 14.859375 5.714844 14.507812 C 5.644531 14.378906 5.601562 14.296875 5.609375 14.179688 C 5.617188 13.875 5.929688 13.71875 6.667969 13.351562 L 6.78125 13.296875 C 7.808594 12.785156 8.238281 12.574219 8.601562 12.742188 C 8.617188 12.75 8.628906 12.753906 8.660156 12.777344 C 8.683594 12.785156 8.71875 12.808594 8.773438 12.832031 C 8.371094 12.492188 8.121094 12.355469 7.9375 12.246094 C 7.746094 12.140625 7.621094 12.074219 7.5 11.867188 C 7.238281 11.433594 7.304688 10.921875 7.398438 10.515625 C 7.246094 10.390625 7.113281 10.226562 7.144531 10.042969 C 7.171875 9.898438 7.289062 9.773438 7.394531 9.71875 C 7.472656 9.679688 7.558594 9.667969 7.613281 9.699219 C 7.785156 9.777344 7.726562 10 7.640625 10.3125 C 7.632812 10.355469 7.621094 10.394531 7.609375 10.4375 C 7.699219 10.5 7.800781 10.554688 7.890625 10.589844 C 8.121094 10.691406 8.328125 10.71875 8.359375 10.6875 C 8.363281 10.679688 8.363281 10.65625 8.355469 10.644531 C 8.355469 10.648438 8.34375 10.644531 8.339844 10.644531 C 8.308594 10.636719 8.257812 10.628906 8.21875 10.589844 C 8.097656 10.496094 7.988281 10.3125 8.039062 10.121094 C 8.089844 9.90625 8.308594 9.785156 8.488281 9.785156 C 8.488281 9.785156 8.492188 9.785156 8.492188 9.785156 C 8.777344 9.785156 8.960938 10.074219 9.074219 10.246094 C 9.183594 10.425781 9.222656 10.554688 9.246094 10.65625 C 9.273438 10.742188 9.285156 10.785156 9.332031 10.824219 C 9.507812 10.960938 9.890625 10.867188 10.167969 10.695312 C 10.367188 10.574219 10.488281 10.390625 10.59375 10.222656 C 10.714844 10.035156 10.832031 9.863281 11.027344 9.882812 C 11.164062 9.898438 11.300781 10.019531 11.328125 10.152344 C 11.351562 10.253906 11.308594 10.328125 11.253906 10.417969 C 11.226562 10.464844 11.191406 10.523438 11.15625 10.601562 C 11.121094 10.671875 11.082031 10.765625 11.058594 10.816406 C 11.1875 10.800781 11.492188 10.65625 11.6875 10.378906 C 11.996094 9.945312 11.90625 9.3125 11.660156 8.9375 C 11.554688 8.78125 11.429688 8.695312 11.300781 8.617188 C 11.210938 8.558594 11.117188 8.5 11.042969 8.417969 C 10.082031 7.355469 10.128906 5.929688 10.144531 5.398438 C 10.15625 5.039062 10.289062 3.171875 11.628906 1.847656 C 13.277344 0.222656 16.128906 0 18.570312 1.304688 C 18.617188 1.328125 18.632812 1.386719 18.609375 1.433594 C 18.582031 1.484375 18.523438 1.5 18.476562 1.472656 C 16.109375 0.207031 13.351562 0.417969 11.761719 1.988281 C 10.472656 3.261719 10.351562 5.0625 10.335938 5.410156 C 10.320312 5.921875 10.273438 7.289062 11.179688 8.289062 C 11.238281 8.355469 11.3125 8.402344 11.402344 8.453125 C 11.539062 8.539062 11.691406 8.632812 11.820312 8.832031 C 12.105469 9.273438 12.199219 9.984375 11.839844 10.492188 C 11.613281 10.808594 11.234375 10.996094 11.046875 11.007812 C 10.980469 11.011719 10.925781 10.996094 10.894531 10.960938 C 10.8125 10.871094 10.878906 10.71875 10.976562 10.511719 C 11.015625 10.421875 11.054688 10.359375 11.085938 10.304688 C 11.132812 10.226562 11.144531 10.207031 11.136719 10.183594 C 11.128906 10.136719 11.066406 10.074219 11.007812 10.070312 C 10.933594 10.0625 10.851562 10.179688 10.757812 10.320312 C 10.640625 10.496094 10.503906 10.707031 10.265625 10.855469 C 9.945312 11.054688 9.472656 11.175781 9.210938 10.972656 C 9.109375 10.890625 9.082031 10.796875 9.058594 10.703125 C 9.03125 10.613281 9.003906 10.5 8.910156 10.355469 C 8.820312 10.210938 8.671875 9.980469 8.492188 9.980469 C 8.386719 9.980469 8.257812 10.054688 8.226562 10.175781 C 8.203125 10.28125 8.265625 10.390625 8.339844 10.441406 C 8.347656 10.449219 8.359375 10.453125 8.382812 10.460938 C 8.417969 10.464844 8.480469 10.480469 8.523438 10.539062 C 8.578125 10.617188 8.578125 10.726562 8.523438 10.800781 C 8.375 11.003906 7.910156 10.8125 7.816406 10.769531 C 7.789062 10.761719 7.683594 10.710938 7.566406 10.636719 C 7.488281 11.003906 7.453125 11.417969 7.664062 11.769531 C 7.757812 11.929688 7.847656 11.980469 8.03125 12.078125 C 8.226562 12.191406 8.496094 12.335938 8.929688 12.710938 C 9.019531 12.785156 9.15625 12.90625 9.363281 12.929688 L 9.382812 12.929688 C 9.605469 12.945312 9.796875 12.828125 9.867188 12.785156 L 9.886719 12.769531 C 10.230469 12.570312 10.773438 12.921875 11.972656 13.695312 C 12.207031 13.839844 12.242188 13.878906 12.296875 13.925781 C 12.335938 13.964844 12.390625 14.015625 12.632812 14.179688 L 12.648438 14.191406 C 12.738281 14.253906 12.777344 14.28125 12.800781 14.34375 C 13.003906 14.824219 11.597656 15.652344 11.582031 15.664062 C 11.253906 15.859375 10.84375 16.09375 10.261719 16.160156 C 10.054688 16.179688 9.949219 16.167969 9.753906 16.140625 C 9.726562 16.136719 9.695312 16.136719 9.664062 16.132812 C 9.628906 16.628906 9.546875 17.203125 9.421875 17.859375 C 9.3125 18.453125 9.183594 18.902344 9.082031 19.265625 C 8.914062 19.875 8.851562 20.125 9.007812 20.289062 C 9.394531 20.691406 10.753906 20.242188 11.792969 19.597656 C 12.371094 19.238281 12.675781 18.914062 13.347656 18.199219 C 13.722656 17.800781 14.191406 17.304688 14.878906 16.613281 C 15.054688 16.4375 15.214844 16.253906 15.359375 16.09375 C 15.691406 15.71875 15.84375 15.546875 15.984375 15.636719 C 16.21875 15.785156 15.734375 16.679688 15.675781 16.78125 C 15.164062 17.703125 14.425781 18.207031 14.066406 18.449219 L 13.980469 18.507812 C 13.039062 19.160156 12.289062 20.273438 11.757812 21.816406 C 11.742188 21.851562 11.703125 21.878906 11.660156 21.878906 Z M 9.671875 15.941406 C 9.707031 15.945312 9.738281 15.953125 9.769531 15.953125 C 9.957031 15.972656 10.046875 15.988281 10.230469 15.96875 C 10.769531 15.910156 11.144531 15.6875 11.476562 15.5 C 12.148438 15.109375 12.6875 14.597656 12.617188 14.421875 C 12.613281 14.410156 12.585938 14.390625 12.53125 14.355469 L 12.515625 14.34375 C 12.269531 14.167969 12.207031 14.117188 12.15625 14.070312 C 12.117188 14.027344 12.085938 14 11.863281 13.859375 C 10.835938 13.199219 10.21875 12.800781 9.976562 12.9375 L 9.960938 12.949219 C 9.875 13.003906 9.648438 13.144531 9.363281 13.125 L 9.34375 13.125 C 9.335938 13.125 9.335938 13.125 9.335938 13.125 C 9.410156 13.167969 9.425781 13.175781 9.453125 13.207031 C 9.585938 13.378906 9.558594 13.578125 9.53125 13.734375 C 9.511719 13.867188 9.507812 13.953125 9.546875 13.996094 C 9.574219 14.019531 9.617188 14.015625 9.738281 14 C 9.792969 13.996094 9.855469 13.984375 9.929688 13.980469 C 10.136719 13.96875 10.234375 13.996094 10.371094 14.03125 C 10.476562 14.0625 10.617188 14.101562 10.859375 14.136719 C 11.03125 14.164062 11.160156 14.175781 11.308594 14.183594 C 11.496094 14.199219 11.710938 14.214844 12.078125 14.269531 C 12.34375 14.304688 12.421875 14.316406 12.425781 14.421875 C 12.425781 14.4375 12.421875 14.476562 12.390625 14.507812 C 12.265625 14.628906 11.414062 14.769531 10.605469 14.710938 C 10.308594 14.691406 10.152344 14.65625 9.988281 14.617188 C 9.871094 14.589844 9.75 14.558594 9.5625 14.539062 C 9.664062 14.882812 9.703125 15.34375 9.671875 15.941406 Z M 8.453125 15.863281 C 8.59375 15.863281 8.773438 15.867188 9.027344 15.882812 C 9.210938 15.894531 9.359375 15.90625 9.480469 15.921875 C 9.515625 15.21875 9.449219 14.785156 9.34375 14.523438 C 9.316406 14.523438 9.296875 14.515625 9.269531 14.515625 C 9.199219 14.511719 9.1875 14.511719 9.0625 14.511719 C 8.925781 14.511719 8.65625 14.515625 8.054688 14.515625 C 7.859375 14.515625 7.265625 14.515625 6.542969 14.371094 C 6.332031 14.328125 6.214844 14.300781 6.226562 14.195312 C 6.238281 14.085938 6.304688 14.085938 6.683594 14.09375 C 6.9375 14.101562 7.320312 14.117188 7.730469 14.09375 C 8.242188 14.070312 8.519531 14.011719 8.699219 13.96875 C 8.886719 13.925781 9 13.90625 9.148438 13.984375 C 9.277344 14.054688 9.390625 14.175781 9.46875 14.34375 C 9.722656 14.371094 9.871094 14.40625 10.019531 14.4375 C 10.175781 14.476562 10.324219 14.511719 10.605469 14.53125 C 11.144531 14.570312 11.644531 14.515625 11.953125 14.460938 C 11.640625 14.417969 11.449219 14.402344 11.277344 14.386719 C 11.121094 14.375 10.996094 14.363281 10.8125 14.335938 C 10.558594 14.300781 10.410156 14.257812 10.296875 14.226562 C 10.167969 14.191406 10.09375 14.167969 9.917969 14.179688 C 9.847656 14.183594 9.792969 14.191406 9.742188 14.195312 C 9.613281 14.210938 9.5 14.226562 9.402344 14.140625 C 9.273438 14.03125 9.300781 13.863281 9.320312 13.714844 C 9.34375 13.574219 9.363281 13.433594 9.277344 13.335938 C 9.269531 13.320312 9.242188 13.308594 9.058594 13.214844 L 8.824219 13.09375 C 8.667969 13.007812 8.59375 12.972656 8.550781 12.949219 C 8.523438 12.933594 8.511719 12.929688 8.503906 12.921875 C 8.222656 12.796875 7.820312 12.992188 6.847656 13.476562 L 6.738281 13.53125 C 6.105469 13.839844 5.789062 14 5.78125 14.195312 C 5.78125 14.253906 5.804688 14.300781 5.867188 14.421875 C 6.058594 14.777344 6.335938 14.980469 6.453125 15.066406 C 7.070312 15.515625 7.382812 15.734375 7.808594 15.835938 C 7.972656 15.875 8.042969 15.875 8.191406 15.867188 C 8.269531 15.867188 8.347656 15.863281 8.453125 15.863281 Z M 7.410156 14.296875 C 7.714844 14.320312 7.941406 14.320312 8.046875 14.320312 C 8.652344 14.320312 8.917969 14.320312 9.058594 14.316406 C 9.15625 14.316406 9.1875 14.316406 9.238281 14.316406 C 9.179688 14.230469 9.117188 14.179688 9.058594 14.152344 C 8.972656 14.105469 8.925781 14.117188 8.742188 14.152344 C 8.554688 14.195312 8.269531 14.257812 7.742188 14.285156 C 7.625 14.289062 7.515625 14.296875 7.410156 14.296875 Z M 7.53125 9.875 C 7.519531 9.875 7.492188 9.882812 7.457031 9.90625 C 7.394531 9.945312 7.339844 10.015625 7.335938 10.074219 C 7.324219 10.140625 7.371094 10.222656 7.453125 10.300781 C 7.457031 10.285156 7.457031 10.273438 7.460938 10.257812 C 7.492188 10.121094 7.546875 9.929688 7.53125 9.875 Z M 7.53125 9.875 " fill-opacity="1" fill-rule="nonzero"/><g clip-path="url(#e68265bce5)"><path fill="#fcf5eb" d="M 8.59375 7.972656 C 8.582031 7.972656 8.566406 7.972656 8.554688 7.96875 C 8.507812 7.945312 8.480469 7.894531 8.503906 7.839844 C 9.492188 5.394531 9.1875 2.914062 7.753906 1.664062 C 6.46875 0.539062 4.539062 0.65625 3.609375 0.710938 C 2.589844 0.777344 1.59375 1.035156 0.640625 1.476562 C 0.59375 1.5 0.535156 1.476562 0.515625 1.429688 C 0.496094 1.382812 0.515625 1.324219 0.5625 1.304688 C 1.535156 0.847656 2.554688 0.585938 3.601562 0.523438 C 4.476562 0.46875 6.539062 0.34375 7.882812 1.515625 C 9.382812 2.816406 9.707031 5.394531 8.6875 7.914062 C 8.671875 7.945312 8.632812 7.972656 8.59375 7.972656 Z M 8.59375 7.972656 " fill-opacity="1" fill-rule="nonzero"/></g><path fill="#fcf5eb" d="M 18.828125 17.808594 C 18.808594 17.808594 18.792969 17.804688 18.777344 17.792969 C 18.734375 17.761719 18.71875 17.703125 18.75 17.664062 C 19.210938 16.972656 19.375 16.378906 19.222656 15.90625 C 19.148438 15.671875 19.03125 15.539062 18.828125 15.324219 C 18.699219 15.183594 18.535156 15.003906 18.332031 14.738281 C 18.074219 14.402344 17.984375 14.222656 17.867188 13.996094 C 17.777344 13.816406 17.671875 13.609375 17.457031 13.261719 C 17.132812 12.75 16.570312 11.957031 15.722656 11.097656 C 15.574219 10.945312 15.449219 10.828125 15.34375 10.722656 C 15.101562 10.492188 14.910156 10.304688 14.652344 9.957031 C 14.546875 9.816406 14.472656 9.703125 14.410156 9.609375 C 14.292969 9.433594 14.214844 9.320312 14.035156 9.148438 C 13.832031 8.960938 13.699219 8.890625 13.558594 8.824219 C 13.414062 8.75 13.257812 8.671875 13.019531 8.460938 C 12.835938 8.296875 12.71875 8.160156 12.621094 8.046875 C 12.492188 7.894531 12.410156 7.800781 12.226562 7.734375 C 12.042969 7.671875 11.699219 7.628906 11.570312 7.773438 C 11.34375 8.03125 11.742188 8.921875 12.238281 9.519531 C 12.359375 9.664062 12.476562 9.769531 12.597656 9.875 C 12.753906 10.015625 12.933594 10.175781 13.160156 10.453125 C 13.550781 10.945312 13.753906 11.398438 13.855469 11.613281 L 13.871094 11.652344 C 14.234375 12.464844 14.929688 13.53125 15.941406 14.824219 C 15.972656 14.867188 15.964844 14.929688 15.925781 14.960938 C 15.882812 14.992188 15.820312 14.988281 15.789062 14.945312 C 14.769531 13.640625 14.066406 12.558594 13.691406 11.730469 L 13.675781 11.6875 C 13.574219 11.460938 13.390625 11.042969 13.007812 10.570312 C 12.792969 10.300781 12.628906 10.152344 12.46875 10.011719 C 12.34375 9.898438 12.222656 9.789062 12.089844 9.636719 C 11.613281 9.066406 11.074219 8.035156 11.429688 7.640625 C 11.636719 7.410156 12.066406 7.472656 12.289062 7.550781 C 12.527344 7.628906 12.632812 7.757812 12.769531 7.921875 C 12.859375 8.027344 12.972656 8.160156 13.144531 8.3125 C 13.363281 8.5 13.503906 8.574219 13.648438 8.648438 C 13.796875 8.722656 13.945312 8.800781 14.164062 9.007812 C 14.359375 9.191406 14.449219 9.320312 14.566406 9.503906 C 14.628906 9.597656 14.703125 9.703125 14.804688 9.847656 C 15.054688 10.179688 15.234375 10.355469 15.476562 10.585938 C 15.585938 10.691406 15.714844 10.8125 15.859375 10.964844 C 16.71875 11.835938 17.289062 12.636719 17.613281 13.160156 C 17.835938 13.515625 17.941406 13.726562 18.039062 13.910156 C 18.148438 14.125 18.234375 14.300781 18.480469 14.621094 C 18.675781 14.882812 18.835938 15.054688 18.96875 15.191406 C 19.179688 15.417969 19.316406 15.574219 19.402344 15.847656 C 19.570312 16.378906 19.402344 17.027344 18.902344 17.769531 C 18.894531 17.792969 18.863281 17.808594 18.828125 17.808594 Z M 18.828125 17.808594 " fill-opacity="1" fill-rule="nonzero"/><path fill="#fcf5eb" d="M 13.960938 9.085938 C 13.878906 8.949219 13.796875 8.8125 13.707031 8.6875 C 13.605469 8.53125 13.496094 8.390625 13.382812 8.246094 C 13.171875 7.988281 12.996094 7.816406 12.8125 7.636719 C 12.632812 7.460938 12.449219 7.28125 12.222656 7.003906 C 11.847656 6.546875 11.761719 6.421875 11.71875 6.316406 C 11.539062 5.875 11.539062 5.488281 11.726562 5.230469 C 11.773438 5.160156 11.90625 5.003906 12.121094 4.945312 C 12.3125 4.898438 12.550781 4.957031 12.824219 5.125 C 13.375 5.460938 13.667969 5.984375 13.773438 6.195312 C 13.933594 6.515625 14.027344 6.613281 14.285156 6.867188 C 14.566406 7.140625 15.089844 7.65625 16.179688 8.964844 C 17.472656 10.515625 18.117188 11.292969 18.460938 11.910156 C 18.46875 11.929688 18.480469 11.945312 18.492188 11.96875 C 18.570312 12.109375 18.644531 12.246094 18.714844 12.386719 C 18.722656 12.40625 18.734375 12.421875 18.746094 12.441406 C 19.007812 12.945312 19.261719 13.425781 19.765625 14.027344 C 19.929688 14.222656 20.109375 14.359375 20.277344 14.492188 C 20.515625 14.671875 20.761719 14.859375 20.984375 15.207031 C 21.398438 15.859375 21.355469 16.28125 21.316406 16.433594 C 21.261719 16.675781 21.121094 16.832031 21 16.972656 L 20.976562 16.996094 C 20.546875 17.488281 20.167969 18.089844 19.84375 18.785156 C 19.824219 18.832031 19.84375 18.890625 19.890625 18.914062 C 19.90625 18.917969 19.917969 18.921875 19.933594 18.921875 C 19.972656 18.921875 20.007812 18.902344 20.023438 18.867188 C 20.335938 18.183594 20.707031 17.597656 21.121094 17.125 L 21.148438 17.097656 C 21.277344 16.949219 21.441406 16.769531 21.507812 16.480469 C 21.550781 16.304688 21.601562 15.816406 21.148438 15.109375 C 20.910156 14.726562 20.648438 14.53125 20.398438 14.335938 C 20.222656 14.207031 20.0625 14.078125 19.914062 13.90625 C 19.40625 13.296875 19.152344 12.8125 18.886719 12.300781 C 18.824219 12.175781 18.757812 12.046875 18.683594 11.914062 C 18.667969 11.882812 18.648438 11.851562 18.628906 11.824219 C 18.578125 11.730469 18.519531 11.628906 18.449219 11.53125 C 18.070312 10.945312 17.429688 10.179688 16.324219 8.855469 C 15.234375 7.539062 14.703125 7.019531 14.417969 6.742188 C 14.164062 6.496094 14.089844 6.421875 13.945312 6.121094 C 13.832031 5.898438 13.515625 5.335938 12.925781 4.972656 C 12.605469 4.777344 12.320312 4.703125 12.074219 4.765625 C 11.804688 4.832031 11.640625 5.019531 11.566406 5.125 C 11.34375 5.441406 11.335938 5.890625 11.539062 6.394531 C 11.59375 6.523438 11.675781 6.65625 12.074219 7.128906 C 12.304688 7.414062 12.496094 7.597656 12.679688 7.777344 C 12.859375 7.953125 13.03125 8.121094 13.234375 8.375 C 13.25 8.390625 13.265625 8.410156 13.277344 8.433594 C 13.382812 8.566406 13.480469 8.695312 13.574219 8.839844 Z M 13.960938 9.085938 " fill-opacity="1" fill-rule="nonzero"/><g clip-path="url(#674de46d9e)"><path fill="#fcf5eb" d="M 18.738281 12.453125 C 18.714844 12.273438 18.699219 12.101562 18.675781 11.921875 C 18.644531 11.613281 18.625 11.308594 18.609375 10.996094 C 18.578125 10.40625 18.578125 9.816406 18.609375 9.234375 C 18.640625 8.660156 18.683594 8.34375 18.730469 8.035156 C 18.773438 7.761719 18.808594 7.472656 18.835938 7.011719 C 18.851562 6.703125 18.835938 6.101562 18.804688 4.90625 C 18.804688 4.855469 18.765625 3.605469 18.929688 2.085938 C 18.972656 1.671875 19.035156 1.320312 19.3125 1.117188 C 19.515625 0.972656 19.855469 0.90625 20.070312 1.054688 C 20.199219 1.144531 20.25 1.289062 20.320312 1.730469 C 20.503906 2.914062 20.460938 3.878906 20.445312 4.195312 C 20.4375 4.453125 20.425781 4.542969 20.421875 4.601562 C 20.414062 4.65625 20.414062 4.6875 20.414062 4.78125 C 20.414062 5.289062 20.484375 5.589844 20.550781 5.90625 C 20.609375 6.164062 20.671875 6.433594 20.707031 6.84375 C 20.730469 7.167969 20.714844 7.324219 20.707031 7.453125 C 20.6875 7.597656 20.683594 7.710938 20.730469 7.96875 C 20.773438 8.191406 20.828125 8.355469 20.878906 8.515625 C 20.949219 8.726562 21.015625 8.929688 21.042969 9.238281 C 21.058594 9.425781 21.046875 9.523438 21.039062 9.667969 C 21.03125 9.753906 21.023438 9.847656 21.015625 9.980469 C 21 10.449219 21.046875 10.726562 21.132812 11.234375 C 21.171875 11.441406 21.210938 11.699219 21.261719 12.03125 C 21.367188 12.734375 21.382812 12.996094 21.386719 13.15625 C 21.398438 13.296875 21.398438 13.363281 21.457031 13.566406 C 21.5625 13.957031 21.683594 14.226562 21.792969 14.464844 C 21.945312 14.796875 22.058594 15.039062 22.03125 15.425781 C 22.011719 15.777344 21.886719 16.046875 21.726562 16.355469 C 21.097656 17.5625 20.347656 18.527344 19.738281 19.308594 L 19.601562 19.488281 C 18.300781 21.167969 18.175781 21.460938 18.128906 21.757812 C 18.089844 21.988281 18.023438 22.421875 18.667969 24.273438 C 18.960938 25.128906 19.304688 25.980469 19.6875 26.796875 C 19.703125 26.832031 19.738281 26.855469 19.777344 26.855469 C 19.792969 26.855469 19.800781 26.847656 19.816406 26.84375 C 19.867188 26.824219 19.886719 26.765625 19.867188 26.71875 C 19.488281 25.90625 19.148438 25.0625 18.851562 24.210938 C 18.222656 22.40625 18.292969 21.988281 18.324219 21.789062 C 18.355469 21.582031 18.390625 21.367188 19.753906 19.605469 L 19.890625 19.425781 C 20.5 18.644531 21.261719 17.667969 21.894531 16.441406 C 22.058594 16.125 22.195312 15.832031 22.222656 15.433594 C 22.246094 15.007812 22.121094 14.734375 21.960938 14.386719 C 21.855469 14.152344 21.734375 13.890625 21.636719 13.515625 C 21.582031 13.328125 21.582031 13.277344 21.570312 13.140625 C 21.5625 12.976562 21.546875 12.707031 21.441406 12 C 21.390625 11.671875 21.34375 11.410156 21.3125 11.203125 C 21.222656 10.691406 21.179688 10.433594 21.203125 9.984375 C 21.207031 9.859375 21.210938 9.761719 21.222656 9.683594 C 21.234375 9.539062 21.242188 9.425781 21.226562 9.222656 C 21.195312 8.890625 21.128906 8.679688 21.054688 8.460938 C 21 8.304688 20.949219 8.140625 20.910156 7.9375 C 20.867188 7.703125 20.875 7.609375 20.890625 7.472656 C 20.902344 7.339844 20.917969 7.171875 20.890625 6.832031 C 20.859375 6.410156 20.796875 6.136719 20.738281 5.867188 C 20.667969 5.558594 20.597656 5.265625 20.597656 4.785156 C 20.597656 4.703125 20.597656 4.675781 20.605469 4.628906 C 20.609375 4.566406 20.621094 4.476562 20.632812 4.210938 C 20.648438 3.890625 20.6875 2.914062 20.5 1.710938 C 20.429688 1.25 20.367188 1.039062 20.167969 0.902344 C 19.871094 0.703125 19.4375 0.785156 19.183594 0.964844 C 18.8125 1.230469 18.761719 1.714844 18.722656 2.070312 C 18.558594 3.605469 18.59375 4.867188 18.59375 4.917969 C 18.625 6.105469 18.644531 6.707031 18.625 7.007812 C 18.597656 7.460938 18.558594 7.730469 18.519531 8.015625 C 18.476562 8.328125 18.429688 8.65625 18.398438 9.234375 C 18.363281 9.820312 18.363281 10.421875 18.398438 11.019531 C 18.40625 11.191406 18.417969 11.367188 18.429688 11.539062 C 18.4375 11.6875 18.453125 11.839844 18.46875 11.988281 Z M 18.738281 12.453125 " fill-opacity="1" fill-rule="nonzero"/></g><path fill="#fcf5eb" d="M 17.507812 3.582031 C 17.484375 3.582031 17.449219 3.574219 17.433594 3.546875 C 17.183594 3.222656 16.621094 2.660156 15.75 2.484375 C 14.105469 2.152344 12.882812 3.535156 12.871094 3.550781 C 12.835938 3.59375 12.777344 3.597656 12.734375 3.5625 C 12.691406 3.523438 12.691406 3.46875 12.722656 3.425781 C 12.777344 3.363281 14.035156 1.941406 15.789062 2.296875 C 16.722656 2.484375 17.320312 3.085938 17.589844 3.425781 C 17.621094 3.46875 17.613281 3.523438 17.574219 3.5625 C 17.550781 3.578125 17.53125 3.582031 17.507812 3.582031 Z M 17.507812 3.582031 " fill-opacity="1" fill-rule="nonzero"/><path fill="#fcf5eb" d="M 4.597656 4.632812 C 4.417969 4.632812 4.230469 4.617188 4.039062 4.574219 C 3.105469 4.386719 2.507812 3.785156 2.238281 3.445312 C 2.207031 3.402344 2.210938 3.34375 2.253906 3.308594 C 2.296875 3.273438 2.355469 3.28125 2.390625 3.324219 C 2.644531 3.644531 3.203125 4.210938 4.074219 4.386719 C 5.71875 4.71875 6.945312 3.335938 6.953125 3.320312 C 6.992188 3.277344 7.050781 3.277344 7.09375 3.308594 C 7.132812 3.34375 7.132812 3.402344 7.101562 3.445312 C 7.054688 3.503906 6.058594 4.632812 4.597656 4.632812 Z M 4.597656 4.632812 " fill-opacity="1" fill-rule="nonzero"/></svg>