<svg xmlns="http://www.w3.org/2000/svg" xmlns:xlink="http://www.w3.org/1999/xlink" width="400" zoomAndPan="magnify" viewBox="0 0 300 149.999998" height="200" preserveAspectRatio="xMidYMid meet" version="1.0"><defs><g/></defs><g fill="#ffffff" fill-opacity="1"><g transform="translate(64.086349, 105.282061)"><g><path d="M 120.828125 -50.453125 C 120.585938 -50.410156 120.328125 -50.410156 120.046875 -50.453125 C 119.765625 -50.492188 119.503906 -50.613281 119.265625 -50.8125 C 118.984375 -51.09375 118.863281 -51.347656 118.90625 -51.578125 C 118.957031 -51.816406 119.054688 -52.035156 119.203125 -52.234375 C 121.472656 -55.878906 123.441406 -59.703125 125.109375 -63.703125 C 126.160156 -66.160156 127.085938 -68.695312 127.890625 -71.3125 C 128.410156 -72.9375 128.453125 -74.675781 128.015625 -76.53125 C 127.609375 -78.519531 126.421875 -79.925781 124.453125 -80.75 C 122.941406 -81.3125 121.398438 -81.613281 119.828125 -81.65625 C 119.546875 -81.65625 119.265625 -81.65625 118.984375 -81.65625 C 115.648438 -81.519531 112.421875 -81.046875 109.296875 -80.234375 C 103.867188 -78.910156 98.625 -77.269531 93.5625 -75.3125 C 88.5 -73.363281 83.546875 -71.234375 78.703125 -68.921875 C 57.472656 -58.597656 38.460938 -45.550781 21.671875 -29.78125 C 17.441406 -25.976562 13.738281 -21.722656 10.5625 -17.015625 C 9.457031 -15.347656 8.484375 -13.585938 7.640625 -11.734375 C 7.171875 -10.691406 6.835938 -9.578125 6.640625 -8.390625 C 5.929688 -4.546875 7.59375 -1.671875 11.625 0.234375 C 15.039062 1.804688 18.507812 2.691406 22.03125 2.890625 C 24.800781 3.117188 27.488281 3.234375 30.09375 3.234375 C 31.332031 3.234375 32.523438 3.179688 33.671875 3.078125 C 50.296875 2.898438 66 0.738281 80.78125 -3.40625 C 81.019531 -3.488281 81.253906 -3.550781 81.484375 -3.59375 C 82.484375 -3.9375 83.535156 -4.207031 84.640625 -4.40625 C 84.921875 -4.445312 85.390625 -4.488281 86.046875 -4.53125 C 86.703125 -4.570312 87.328125 -4.535156 87.921875 -4.421875 C 88.515625 -4.304688 88.890625 -4.03125 89.046875 -3.59375 C 89.085938 -3.351562 89.046875 -3.175781 88.921875 -3.0625 C 88.804688 -2.945312 88.628906 -2.863281 88.390625 -2.8125 C 87.484375 -2.582031 86.585938 -2.347656 85.703125 -2.109375 C 83.023438 -1.390625 80.359375 -0.695312 77.703125 -0.03125 C 62.734375 3.8125 47.191406 5.679688 31.078125 5.578125 C 27.742188 5.578125 24.414062 5.507812 21.09375 5.375 C 17.351562 5.226562 13.601562 4.441406 9.84375 3.015625 C 2.375 0.117188 -0.234375 -4.65625 2.015625 -11.3125 C 2.921875 -13.96875 4.203125 -16.414062 5.859375 -18.65625 C 8.171875 -21.988281 10.726562 -25.078125 13.53125 -27.921875 C 16.34375 -30.773438 19.273438 -33.53125 22.328125 -36.1875 C 35.910156 -48.15625 50.859375 -58.441406 67.171875 -67.046875 C 72.160156 -69.648438 77.238281 -72.082031 82.40625 -74.34375 C 87.582031 -76.601562 92.925781 -78.597656 98.4375 -80.328125 C 103.0625 -81.796875 107.8125 -82.90625 112.6875 -83.65625 C 114.65625 -83.9375 116.613281 -84.078125 118.5625 -84.078125 C 119.832031 -84.078125 121.117188 -84.035156 122.421875 -83.953125 C 123.929688 -83.804688 125.441406 -83.492188 126.953125 -83.015625 C 131.054688 -81.546875 133.148438 -78.832031 133.234375 -74.875 C 133.234375 -73.125 133 -71.441406 132.53125 -69.828125 C 131.53125 -66.691406 130.304688 -63.675781 128.859375 -60.78125 C 127.410156 -57.882812 125.859375 -55.054688 124.203125 -52.296875 C 123.722656 -51.347656 122.953125 -50.734375 121.890625 -50.453125 C 121.566406 -50.410156 121.265625 -50.410156 120.984375 -50.453125 Z M 120.828125 -50.453125 "/></g></g></g><g fill="#ffffff" fill-opacity="1"><g transform="translate(156.388883, 105.282061)"><g><path d="M 0.8125 -5.734375 C -1.238281 -5.734375 -2.265625 -6.800781 -2.265625 -8.9375 C -2.265625 -11.550781 -0.570312 -16.164062 2.8125 -22.78125 C 2.945312 -23.0625 3.1875 -23.203125 3.53125 -23.203125 C 4.894531 -23.203125 5.578125 -22.660156 5.578125 -21.578125 C 5.578125 -21.191406 5.457031 -20.71875 5.21875 -20.15625 C 5.132812 -20 4 -17.144531 1.8125 -11.59375 C 1.46875 -10.6875 1.296875 -10.019531 1.296875 -9.59375 C 1.296875 -9.113281 1.507812 -8.875 1.9375 -8.875 C 3.519531 -8.875 7.660156 -12.796875 14.359375 -20.640625 C 15.222656 -21.703125 16.070312 -22.234375 16.90625 -22.234375 C 18.144531 -22.234375 18.765625 -21.773438 18.765625 -20.859375 C 18.765625 -20.515625 18.382812 -19.210938 17.625 -16.953125 C 16.59375 -13.859375 16.078125 -12.070312 16.078125 -11.59375 C 16.078125 -10.882812 16.3125 -10.53125 16.78125 -10.53125 C 17.96875 -10.53125 21.4375 -12.644531 27.1875 -16.875 C 27.507812 -17.15625 27.789062 -17.296875 28.03125 -17.296875 C 28.570312 -17.296875 28.84375 -16.84375 28.84375 -15.9375 C 28.84375 -15.695312 28.765625 -15.503906 28.609375 -15.359375 C 25.566406 -12.742188 22.972656 -10.753906 20.828125 -9.390625 C 18.890625 -8.140625 17.164062 -7.515625 15.65625 -7.515625 L 15.203125 -7.515625 C 12.972656 -7.992188 11.859375 -9.734375 11.859375 -12.734375 C 9.484375 -10.640625 7.507812 -8.945312 5.9375 -7.65625 C 4.375 -6.375 2.664062 -5.734375 0.8125 -5.734375 Z M 0.8125 -5.734375 "/></g></g></g><g fill="#ffffff" fill-opacity="1"><g transform="translate(183.020221, 105.282061)"><g><path d="M 15.6875 -15.453125 C 16.394531 -16.171875 16.984375 -16.570312 17.453125 -16.65625 C 17.929688 -16.738281 18.238281 -16.660156 18.375 -16.421875 C 18.519531 -16.191406 18.429688 -15.867188 18.109375 -15.453125 C 16.210938 -13.160156 14.085938 -11.179688 11.734375 -9.515625 C 9.378906 -7.859375 6.953125 -6.898438 4.453125 -6.640625 C 1.960938 -6.378906 0.457031 -7.738281 -0.0625 -10.71875 C -0.445312 -13.6875 1.34375 -19.71875 5.3125 -28.8125 C 9.289062 -37.90625 12.4375 -45.351562 14.75 -51.15625 C 14.9375 -51.675781 15.226562 -52.132812 15.625 -52.53125 C 16.132812 -53.039062 16.75 -53.15625 17.46875 -52.875 C 17.707031 -52.769531 17.941406 -52.597656 18.171875 -52.359375 C 18.410156 -52.117188 18.488281 -51.695312 18.40625 -51.09375 C 8.1875 -26.863281 3.238281 -13.6875 3.5625 -11.5625 C 3.882812 -9.445312 5.25 -8.921875 7.65625 -9.984375 C 10.070312 -11.054688 11.929688 -12.148438 13.234375 -13.265625 C 14.546875 -14.378906 15.363281 -15.109375 15.6875 -15.453125 Z M 15.6875 -15.453125 "/></g></g></g><g fill="#ffffff" fill-opacity="1"><g transform="translate(199.186934, 105.282061)"><g><path d="M 20.25 -15.65625 C 17.351562 -12.238281 14.515625 -9.71875 11.734375 -8.09375 C 8.960938 -6.476562 5.992188 -5.945312 2.828125 -6.5 C -0.328125 -7.050781 -1.625 -9.171875 -1.0625 -12.859375 C -0.675781 -14.722656 -0.148438 -16.539062 0.515625 -18.3125 C 2.179688 -22.4375 3.867188 -26.539062 5.578125 -30.625 C 6.140625 -32.09375 6.734375 -33.570312 7.359375 -35.0625 C 7.503906 -35.382812 7.644531 -35.707031 7.78125 -36.03125 C 8.019531 -36.570312 8.253906 -37.125 8.484375 -37.6875 C 8.828125 -38.632812 8.453125 -39.128906 7.359375 -39.171875 C 6.734375 -39.171875 6.117188 -39.171875 5.515625 -39.171875 C 5.234375 -39.171875 4.914062 -39.171875 4.5625 -39.171875 C 4.238281 -39.128906 3.90625 -39.085938 3.5625 -39.046875 C 3 -39.003906 2.441406 -38.984375 1.890625 -38.984375 C 1.335938 -38.984375 0.828125 -39.125 0.359375 -39.40625 C 0.222656 -39.445312 0.117188 -39.523438 0.046875 -39.640625 C -0.0234375 -39.765625 -0.0625 -39.898438 -0.0625 -40.046875 C -0.0195312 -40.128906 0.046875 -40.226562 0.140625 -40.34375 C 0.242188 -40.46875 0.367188 -40.550781 0.515625 -40.59375 C 0.992188 -40.789062 1.492188 -40.929688 2.015625 -41.015625 C 3.347656 -41.085938 4.675781 -41.144531 6 -41.1875 C 6.507812 -41.1875 6.960938 -41.1875 7.359375 -41.1875 C 8.222656 -41.1875 8.863281 -41.21875 9.28125 -41.28125 C 9.707031 -41.34375 10.046875 -41.566406 10.296875 -41.953125 C 10.554688 -42.347656 10.863281 -42.945312 11.21875 -43.75 C 11.40625 -44.175781 11.640625 -44.648438 11.921875 -45.171875 C 12.640625 -46.679688 13.351562 -48.222656 14.0625 -49.796875 C 14.382812 -50.515625 14.71875 -51.207031 15.0625 -51.875 C 15.34375 -52.539062 15.785156 -53.0625 16.390625 -53.4375 C 16.972656 -53.71875 17.484375 -53.691406 17.921875 -53.359375 C 18.046875 -53.273438 18.144531 -53.132812 18.21875 -52.9375 C 18.300781 -52.75 18.34375 -52.578125 18.34375 -52.421875 C 18.34375 -51.578125 18.125 -50.75 17.6875 -49.9375 C 17.601562 -49.757812 17.507812 -49.550781 17.40625 -49.3125 C 17.125 -48.539062 16.820312 -47.753906 16.5 -46.953125 C 15.863281 -45.484375 15.265625 -43.984375 14.703125 -42.453125 C 14.554688 -42.171875 14.550781 -41.921875 14.6875 -41.703125 C 14.832031 -41.484375 15.046875 -41.375 15.328125 -41.375 C 16.859375 -41.332031 18.359375 -41.3125 19.828125 -41.3125 C 20.585938 -41.3125 21.34375 -41.3125 22.09375 -41.3125 C 24.46875 -41.269531 25.421875 -40.9375 24.953125 -40.3125 C 24.628906 -39.9375 24.273438 -39.722656 23.890625 -39.671875 C 23.515625 -39.617188 23.132812 -39.625 22.75 -39.6875 C 22.507812 -39.6875 22.269531 -39.6875 22.03125 -39.6875 C 19.613281 -39.539062 17.21875 -39.445312 14.84375 -39.40625 C 13.738281 -39.40625 13.003906 -38.90625 12.640625 -37.90625 C 12.242188 -36.957031 11.863281 -36.007812 11.5 -35.0625 C 10.957031 -33.8125 10.453125 -32.585938 9.984375 -31.390625 C 9.503906 -30.273438 9.023438 -29.144531 8.546875 -28 C 7.316406 -25.101562 6.128906 -22.195312 4.984375 -19.28125 C 4.273438 -17.375 3.71875 -15.429688 3.3125 -13.453125 C 2.394531 -9.835938 3.785156 -8.453125 7.484375 -9.296875 C 11.109375 -10.160156 14.910156 -12.773438 18.890625 -17.140625 C 20.617188 -18.242188 21.070312 -17.75 20.25 -15.65625 Z M 20.25 -15.65625 "/></g></g></g><g fill="#ffffff" fill-opacity="1"><g transform="translate(217.589124, 105.282061)"><g><path d="M 0.8125 -5.734375 C -1.238281 -5.734375 -2.265625 -6.800781 -2.265625 -8.9375 C -2.265625 -11.550781 -0.570312 -16.164062 2.8125 -22.78125 C 2.945312 -23.0625 3.1875 -23.203125 3.53125 -23.203125 C 4.894531 -23.203125 5.578125 -22.660156 5.578125 -21.578125 C 5.578125 -21.191406 5.457031 -20.71875 5.21875 -20.15625 C 5.132812 -20 4 -17.144531 1.8125 -11.59375 C 1.46875 -10.6875 1.296875 -10.019531 1.296875 -9.59375 C 1.296875 -9.113281 1.507812 -8.875 1.9375 -8.875 C 3.519531 -8.875 7.660156 -12.796875 14.359375 -20.640625 C 15.222656 -21.703125 16.070312 -22.234375 16.90625 -22.234375 C 18.144531 -22.234375 18.765625 -21.773438 18.765625 -20.859375 C 18.765625 -20.515625 18.382812 -19.210938 17.625 -16.953125 C 16.59375 -13.859375 16.078125 -12.070312 16.078125 -11.59375 C 16.078125 -10.882812 16.3125 -10.53125 16.78125 -10.53125 C 17.96875 -10.53125 21.4375 -12.644531 27.1875 -16.875 C 27.507812 -17.15625 27.789062 -17.296875 28.03125 -17.296875 C 28.570312 -17.296875 28.84375 -16.84375 28.84375 -15.9375 C 28.84375 -15.695312 28.765625 -15.503906 28.609375 -15.359375 C 25.566406 -12.742188 22.972656 -10.753906 20.828125 -9.390625 C 18.890625 -8.140625 17.164062 -7.515625 15.65625 -7.515625 L 15.203125 -7.515625 C 12.972656 -7.992188 11.859375 -9.734375 11.859375 -12.734375 C 9.484375 -10.640625 7.507812 -8.945312 5.9375 -7.65625 C 4.375 -6.375 2.664062 -5.734375 0.8125 -5.734375 Z M 0.8125 -5.734375 "/></g></g></g><g fill="#ffffff" fill-opacity="1"><g transform="translate(244.220462, 105.282061)"><g><path d="M 15.546875 -19.890625 C 15.359375 -18.398438 14.65625 -17.425781 13.4375 -16.96875 C 12.226562 -16.519531 11.832031 -17.113281 12.25 -18.75 C 12.675781 -20.394531 11.9375 -20.8125 10.03125 -20 C 8.132812 -19.195312 6.570312 -18.179688 5.34375 -16.953125 C 3.445312 -15.003906 1.765625 -12.90625 0.296875 -10.65625 C 0.140625 -10.46875 0.0195312 -10.304688 -0.0625 -10.171875 C -0.5 -9.546875 -0.929688 -8.953125 -1.359375 -8.390625 C -1.640625 -8.003906 -1.96875 -7.757812 -2.34375 -7.65625 C -2.726562 -7.5625 -3.113281 -7.546875 -3.5 -7.609375 C -3.863281 -7.648438 -4.144531 -7.789062 -4.34375 -8.03125 C -4.539062 -8.269531 -4.5625 -8.550781 -4.40625 -8.875 C -4.164062 -9.457031 -3.882812 -10.050781 -3.5625 -10.65625 C -1.613281 -14.269531 0.359375 -17.890625 2.359375 -21.515625 C 2.410156 -21.554688 2.4375 -21.597656 2.4375 -21.640625 C 2.707031 -22.203125 3.039062 -22.722656 3.4375 -23.203125 C 3.863281 -23.671875 4.359375 -23.863281 4.921875 -23.78125 C 5.484375 -23.695312 5.863281 -23.363281 6.0625 -22.78125 C 6.300781 -22.019531 6.503906 -21.59375 6.671875 -21.5 C 6.847656 -21.40625 7.238281 -21.472656 7.84375 -21.703125 C 9.132812 -22.179688 10.394531 -22.515625 11.625 -22.703125 C 12.863281 -22.898438 13.875 -22.851562 14.65625 -22.5625 C 15.445312 -22.269531 15.742188 -21.378906 15.546875 -19.890625 Z M 15.546875 -19.890625 "/></g></g></g><g fill="#ffffff" fill-opacity="1"><g transform="translate(260.419573, 105.282061)"><g><path d="M 23.5 -16.515625 C 24.007812 -16.222656 24.050781 -15.515625 23.625 -14.390625 C 23 -13.566406 22.328125 -12.796875 21.609375 -12.078125 C 20.898438 -11.367188 20.125 -10.734375 19.28125 -10.171875 C 19.21875 -10.171875 19.1875 -10.148438 19.1875 -10.109375 C 18.625 -9.722656 18.03125 -9.390625 17.40625 -9.109375 C 12.238281 -7.242188 9.601562 -8.332031 9.5 -12.375 C 7.394531 -10.5625 5.988281 -9.453125 5.28125 -9.046875 C 3.570312 -8.023438 1.722656 -7.566406 -0.265625 -7.671875 C -1.734375 -7.765625 -2.726562 -8.210938 -3.25 -9.015625 C -3.78125 -9.828125 -3.734375 -10.925781 -3.109375 -12.3125 C -2.160156 -14.488281 -0.8125 -16.429688 0.9375 -18.140625 C 2.988281 -20.046875 5.269531 -21.570312 7.78125 -22.71875 C 9.113281 -23.382812 10.515625 -23.640625 11.984375 -23.484375 C 13.453125 -23.398438 14.335938 -22.570312 14.640625 -21 C 14.773438 -20.519531 14.660156 -20.097656 14.296875 -19.734375 C 13.816406 -19.296875 13.265625 -19.195312 12.640625 -19.4375 C 12.597656 -19.4375 12.535156 -19.445312 12.453125 -19.46875 C 12.378906 -19.488281 12.320312 -19.523438 12.28125 -19.578125 C 11.65625 -20.429688 11.019531 -20.789062 10.375 -20.65625 C 9.738281 -20.519531 9.066406 -20.234375 8.359375 -19.796875 C 5.035156 -17.847656 2.5625 -15.140625 0.9375 -11.671875 C 0.851562 -11.515625 0.800781 -11.34375 0.78125 -11.15625 C 0.757812 -10.976562 0.8125 -10.832031 0.9375 -10.71875 C 1.320312 -10.59375 1.753906 -10.617188 2.234375 -10.796875 C 2.710938 -10.984375 3.1875 -11.253906 3.65625 -11.609375 C 4.132812 -11.972656 4.535156 -12.269531 4.859375 -12.5 C 4.898438 -12.570312 4.921875 -12.609375 4.921875 -12.609375 C 6.503906 -13.921875 8.050781 -15.269531 9.5625 -16.65625 C 10.226562 -17.363281 11.054688 -17.765625 12.046875 -17.859375 C 13.472656 -17.859375 14.066406 -17.21875 13.828125 -15.9375 C 13.703125 -15.46875 13.566406 -14.992188 13.421875 -14.515625 C 12.859375 -12.460938 12.832031 -11.257812 13.34375 -10.90625 C 13.863281 -10.550781 14.65625 -10.550781 15.71875 -10.90625 C 16.789062 -11.257812 17.863281 -11.9375 18.9375 -12.9375 C 20.007812 -13.945312 20.910156 -14.867188 21.640625 -15.703125 C 22.378906 -16.535156 23 -16.804688 23.5 -16.515625 Z M 23.5 -16.515625 "/></g></g></g><g fill="#ffffff" fill-opacity="1"><g transform="translate(281.899583, 105.282061)"><g><path d="M 15.6875 -15.453125 C 16.394531 -16.171875 16.984375 -16.570312 17.453125 -16.65625 C 17.929688 -16.738281 18.238281 -16.660156 18.375 -16.421875 C 18.519531 -16.191406 18.429688 -15.867188 18.109375 -15.453125 C 16.210938 -13.160156 14.085938 -11.179688 11.734375 -9.515625 C 9.378906 -7.859375 6.953125 -6.898438 4.453125 -6.640625 C 1.960938 -6.378906 0.457031 -7.738281 -0.0625 -10.71875 C -0.445312 -13.6875 1.34375 -19.71875 5.3125 -28.8125 C 9.289062 -37.90625 12.4375 -45.351562 14.75 -51.15625 C 14.9375 -51.675781 15.226562 -52.132812 15.625 -52.53125 C 16.132812 -53.039062 16.75 -53.15625 17.46875 -52.875 C 17.707031 -52.769531 17.941406 -52.597656 18.171875 -52.359375 C 18.410156 -52.117188 18.488281 -51.695312 18.40625 -51.09375 C 8.1875 -26.863281 3.238281 -13.6875 3.5625 -11.5625 C 3.882812 -9.445312 5.25 -8.921875 7.65625 -9.984375 C 10.070312 -11.054688 11.929688 -12.148438 13.234375 -13.265625 C 14.546875 -14.378906 15.363281 -15.109375 15.6875 -15.453125 Z M 15.6875 -15.453125 "/></g></g></g><g fill="#ffffff" fill-opacity="1"><g transform="translate(166.134353, 118.9317)"><g><path d="M 15.875 -10.6875 L 15.875 -12.601562 L 2.605469 -12.601562 L 2.605469 0 L 15.875 0 L 15.875 -1.910156 L 4.746094 -1.910156 L 4.746094 -5.1875 L 14.574219 -5.1875 L 14.574219 -7.097656 L 4.746094 -7.097656 L 4.746094 -10.6875 Z M 15.875 -10.6875 "/></g></g></g><g fill="#ffffff" fill-opacity="1"><g transform="translate(188.458312, 118.9317)"><g><path d="M 13.945312 -12.601562 L 8.210938 -2.183594 L 2.476562 -12.601562 L -0.0625 -12.601562 L 6.867188 0 L 9.40625 0 L 16.339844 -12.601562 Z M 13.945312 -12.601562 "/></g></g></g><g fill="#ffffff" fill-opacity="1"><g transform="translate(209.963262, 118.9317)"><g><path d="M 15.875 -10.6875 L 15.875 -12.601562 L 2.605469 -12.601562 L 2.605469 0 L 15.875 0 L 15.875 -1.910156 L 4.746094 -1.910156 L 4.746094 -5.1875 L 14.574219 -5.1875 L 14.574219 -7.097656 L 4.746094 -7.097656 L 4.746094 -10.6875 Z M 15.875 -10.6875 "/></g></g></g><g fill="#ffffff" fill-opacity="1"><g transform="translate(232.287219, 118.9317)"><g><path d="M 14.65625 -12.601562 L 14.65625 -2.371094 L 5.4375 -12.601562 L 2.605469 -12.601562 L 2.605469 0 L 4.746094 0 L 4.746094 -10.207031 L 13.921875 0 L 16.800781 0 L 16.800781 -12.601562 Z M 14.65625 -12.601562 "/></g></g></g><g fill="#ffffff" fill-opacity="1"><g transform="translate(256.858181, 118.9317)"><g><path d="M 14.34375 -12.601562 L -0.0625 -12.601562 L -0.0625 -10.542969 L 6.070312 -10.542969 L 6.070312 0 L 8.210938 0 L 8.210938 -10.542969 L 14.34375 -10.542969 Z M 14.34375 -12.601562 "/></g></g></g><g fill="#ffffff" fill-opacity="1"><g transform="translate(276.284131, 118.9317)"><g><path d="M 14.722656 -8.527344 L 16.863281 -8.527344 C 16.863281 -11.675781 14.007812 -12.789062 9.492188 -12.789062 C 4.136719 -12.789062 1.699219 -11.550781 1.699219 -9.238281 L 1.699219 -9.070312 C 1.699219 -6.238281 3.988281 -5.859375 9.03125 -5.335938 C 14.511719 -4.828125 14.53125 -4.074219 14.53125 -3.738281 L 14.53125 -3.484375 C 14.53125 -2.015625 11.382812 -1.890625 9.050781 -1.890625 C 5.480469 -1.890625 3.820312 -2.835938 3.820312 -4.347656 L 1.679688 -4.347656 C 1.679688 -1.53125 4.117188 0.210938 9.050781 0.210938 C 14.320312 0.210938 16.738281 -0.777344 16.738281 -3.550781 L 16.738281 -3.757812 C 16.738281 -6.613281 13.921875 -7.015625 9.15625 -7.453125 C 3.925781 -7.9375 3.90625 -8.589844 3.90625 -9.09375 L 3.90625 -9.28125 C 3.90625 -10.289062 6.511719 -10.6875 9.492188 -10.6875 C 12.472656 -10.6875 14.722656 -10.144531 14.722656 -8.527344 Z M 14.722656 -8.527344 "/></g></g></g></svg>