<svg xmlns="http://www.w3.org/2000/svg" xmlns:xlink="http://www.w3.org/1999/xlink" width="40" zoomAndPan="magnify" viewBox="0 0 30 30.000001" height="40" preserveAspectRatio="xMidYMid meet" version="1.0"><defs><clipPath id="a2c3d72be9"><path d="M 2.566406 2.082031 L 27.242188 2.082031 L 27.242188 26.757812 L 2.566406 26.757812 Z M 2.566406 2.082031 " clip-rule="nonzero"/></clipPath></defs><g clip-path="url(#a2c3d72be9)"><path fill="#ad2727" d="M 14.898438 4.304688 C 18.191406 4.304688 18.582031 4.316406 19.882812 4.375 C 21.082031 4.429688 21.738281 4.628906 22.175781 4.804688 C 22.75 5.023438 23.160156 5.296875 23.59375 5.726562 C 24.023438 6.160156 24.289062 6.570312 24.515625 7.144531 C 24.683594 7.578125 24.886719 8.230469 24.945312 9.4375 C 25.003906 10.742188 25.015625 11.128906 25.015625 14.421875 C 25.015625 17.714844 25.003906 18.105469 24.945312 19.40625 C 24.890625 20.609375 24.691406 21.261719 24.515625 21.699219 C 24.296875 22.273438 24.023438 22.683594 23.59375 23.117188 C 23.160156 23.550781 22.75 23.816406 22.175781 24.042969 C 21.742188 24.210938 21.089844 24.410156 19.882812 24.46875 C 18.582031 24.527344 18.191406 24.539062 14.898438 24.539062 C 11.605469 24.539062 11.214844 24.527344 9.914062 24.46875 C 8.710938 24.414062 8.058594 24.214844 7.621094 24.042969 C 7.046875 23.820312 6.636719 23.550781 6.203125 23.117188 C 5.769531 22.683594 5.507812 22.273438 5.28125 21.699219 C 5.113281 21.269531 4.910156 20.613281 4.851562 19.40625 C 4.792969 18.105469 4.78125 17.714844 4.78125 14.421875 C 4.78125 11.128906 4.792969 10.742188 4.851562 9.4375 C 4.90625 8.238281 5.105469 7.582031 5.28125 7.144531 C 5.5 6.570312 5.769531 6.160156 6.203125 5.726562 C 6.636719 5.296875 7.046875 5.03125 7.621094 4.804688 C 8.054688 4.636719 8.707031 4.4375 9.914062 4.375 C 11.214844 4.316406 11.605469 4.304688 14.898438 4.304688 M 14.898438 2.082031 C 11.546875 2.082031 11.128906 2.101562 9.808594 2.160156 C 8.496094 2.21875 7.597656 2.429688 6.816406 2.734375 C 6.003906 3.046875 5.316406 3.46875 4.628906 4.15625 C 3.949219 4.839844 3.527344 5.527344 3.214844 6.339844 C 2.910156 7.125 2.699219 8.019531 2.640625 9.335938 C 2.582031 10.648438 2.566406 11.070312 2.566406 14.417969 C 2.566406 17.769531 2.582031 18.1875 2.640625 19.503906 C 2.699219 20.820312 2.910156 21.714844 3.214844 22.5 C 3.527344 23.3125 3.949219 24 4.636719 24.683594 C 5.324219 25.371094 6.007812 25.792969 6.820312 26.105469 C 7.605469 26.410156 8.5 26.621094 9.816406 26.679688 C 11.128906 26.738281 11.550781 26.757812 14.902344 26.757812 C 18.257812 26.757812 18.671875 26.738281 19.992188 26.679688 C 21.304688 26.621094 22.203125 26.410156 22.988281 26.105469 C 23.796875 25.792969 24.484375 25.371094 25.171875 24.683594 C 25.859375 24 26.28125 23.3125 26.59375 22.5 C 26.894531 21.714844 27.105469 20.820312 27.167969 19.503906 C 27.226562 18.191406 27.242188 17.769531 27.242188 14.417969 C 27.242188 11.066406 27.226562 10.648438 27.167969 9.328125 C 27.105469 8.015625 26.894531 7.117188 26.59375 6.332031 C 26.28125 5.523438 25.859375 4.835938 25.171875 4.148438 C 24.484375 3.460938 23.796875 3.039062 22.988281 2.726562 C 22.203125 2.425781 21.304688 2.214844 19.992188 2.152344 C 18.671875 2.101562 18.25 2.082031 14.898438 2.082031 " fill-opacity="1" fill-rule="nonzero"/></g><path fill="#ad2727" d="M 14.898438 8.085938 C 11.398438 8.085938 8.566406 10.917969 8.566406 14.417969 C 8.566406 17.914062 11.40625 20.753906 14.902344 20.753906 C 18.402344 20.753906 21.242188 17.921875 21.242188 14.417969 C 21.234375 10.917969 18.398438 8.085938 14.898438 8.085938 M 14.898438 18.53125 C 12.628906 18.53125 10.789062 16.695312 10.789062 14.421875 C 10.789062 12.152344 12.628906 10.3125 14.898438 10.3125 C 17.167969 10.3125 19.007812 12.152344 19.007812 14.421875 C 19.011719 16.6875 17.167969 18.53125 14.898438 18.53125 " fill-opacity="1" fill-rule="nonzero"/><path fill="#ad2727" d="M 22.964844 7.835938 C 22.964844 8.652344 22.300781 9.320312 21.484375 9.320312 C 20.667969 9.320312 20.003906 8.652344 20.003906 7.835938 C 20.003906 7.019531 20.667969 6.355469 21.484375 6.355469 C 22.300781 6.355469 22.964844 7.015625 22.964844 7.835938 " fill-opacity="1" fill-rule="nonzero"/></svg>