<svg xmlns="http://www.w3.org/2000/svg" xmlns:xlink="http://www.w3.org/1999/xlink" width="400" zoomAndPan="magnify" viewBox="0 0 300 149.999998" height="200" preserveAspectRatio="xMidYMid meet" version="1.0"><defs><g/></defs><g fill="#ffffff" fill-opacity="1"><g transform="translate(66.139064, 107.982009)"><g><path d="M 128.3125 12.859375 C 128.351562 12.859375 128.425781 12.859375 128.53125 12.859375 C 128.863281 12.898438 129.1875 12.96875 129.5 13.0625 C 129.8125 13.164062 130.085938 13.359375 130.328125 13.640625 C 130.410156 13.722656 130.476562 13.835938 130.53125 13.984375 C 130.582031 14.140625 130.578125 14.285156 130.515625 14.421875 C 130.472656 14.566406 130.390625 14.695312 130.265625 14.8125 C 130.148438 14.9375 130.050781 15 129.96875 15 C 129.382812 15.082031 128.789062 15.082031 128.1875 15 C 113.6875 12 97.617188 10.0625 79.984375 9.1875 C 62.347656 8.3125 46.078125 8.628906 31.171875 10.140625 C 30.503906 10.179688 29.859375 10.257812 29.234375 10.375 C 28.671875 10.414062 28.128906 10.457031 27.609375 10.5 C 25.941406 10.738281 24.515625 11.472656 23.328125 12.703125 C 20.648438 15.617188 17.703125 18.1875 14.484375 20.40625 C 11.953125 22.113281 9.164062 23.066406 6.125 23.265625 C 4.894531 23.347656 3.707031 23.15625 2.5625 22.6875 C 1.476562 22.207031 0.78125 21.492188 0.46875 20.546875 C 0.15625 19.597656 0.289062 18.582031 0.875 17.5 C 1.820312 15.96875 3.382812 14.65625 5.5625 13.5625 C 7.75 12.46875 10.078125 11.570312 12.546875 10.875 C 15.023438 10.1875 17.117188 9.679688 18.828125 9.359375 C 21.117188 8.929688 22.976562 7.820312 24.40625 6.03125 C 31.289062 -2.351562 37.910156 -11.84375 44.265625 -22.4375 C 50.628906 -33.03125 56.492188 -43.929688 61.859375 -55.140625 C 67.234375 -66.359375 71.851562 -77.097656 75.71875 -87.359375 C 75.851562 -87.898438 76.078125 -88.367188 76.390625 -88.765625 C 76.703125 -89.160156 77.160156 -89.4375 77.765625 -89.59375 C 78.347656 -89.675781 78.847656 -89.5625 79.265625 -89.25 C 79.691406 -88.9375 79.863281 -88.5 79.78125 -87.9375 C 79.582031 -86.601562 79.242188 -85.296875 78.765625 -84.015625 C 75.078125 -74.273438 70.695312 -64.128906 65.625 -53.578125 C 60.5625 -43.023438 55.046875 -32.734375 49.078125 -22.703125 C 43.117188 -12.679688 36.976562 -3.613281 30.65625 4.5 C 29.332031 6.164062 28.929688 7.132812 29.453125 7.40625 C 29.972656 7.675781 30.988281 7.660156 32.5 7.359375 C 32.84375 7.316406 33.175781 7.269531 33.5 7.21875 C 45.382812 5.882812 57.707031 5.476562 70.46875 6 C 83.238281 6.53125 95.820312 7.648438 108.21875 9.359375 C 112.582031 9.984375 116.859375 10.695312 121.046875 11.5 C 123.515625 11.976562 125.9375 12.429688 128.3125 12.859375 Z M 7.90625 20.1875 C 11.53125 18.71875 14.53125 16.394531 16.90625 13.21875 C 13 13.5 9.523438 14.707031 6.484375 16.84375 C 5.535156 17.5625 4.976562 18.253906 4.8125 18.921875 C 4.644531 19.585938 4.835938 20.070312 5.390625 20.375 C 5.941406 20.675781 6.78125 20.613281 7.90625 20.1875 Z M 7.90625 20.1875 "/></g></g></g><g fill="#ffffff" fill-opacity="1"><g transform="translate(126.108173, 107.982009)"><g><path d="M 12.875 -13.65625 C 11.71875 -12.28125 10.351562 -11.019531 8.78125 -9.875 C 7.207031 -8.738281 5.425781 -7.96875 3.4375 -7.5625 C 1.445312 -7.164062 -0.09375 -7.3125 -1.1875 -8 C -2.289062 -8.695312 -2.507812 -10.234375 -1.84375 -12.609375 C -0.976562 -15.066406 0.207031 -17.410156 1.71875 -19.640625 C 2.0625 -20.109375 2.554688 -20.441406 3.203125 -20.640625 C 3.679688 -20.742188 4.097656 -20.660156 4.453125 -20.390625 C 4.804688 -20.117188 4.941406 -19.78125 4.859375 -19.375 C 4.535156 -18.59375 4.175781 -17.8125 3.78125 -17.03125 C 3.394531 -16.257812 3.140625 -15.753906 3.015625 -15.515625 C 2.253906 -14.140625 1.722656 -12.691406 1.421875 -11.171875 C 1.421875 -10.304688 2.578125 -10.253906 4.890625 -11.015625 C 7.203125 -11.773438 9.445312 -13.160156 11.625 -15.171875 C 13.8125 -17.191406 14.851562 -17.785156 14.75 -16.953125 C 14.65625 -16.128906 14.03125 -15.03125 12.875 -13.65625 Z M 7.21875 -24.5 C 7.113281 -24.40625 6.894531 -24.300781 6.5625 -24.1875 C 6.226562 -24.070312 5.867188 -23.984375 5.484375 -23.921875 C 5.109375 -23.867188 4.8125 -23.925781 4.59375 -24.09375 C 4.382812 -24.269531 4.375 -24.617188 4.5625 -25.140625 C 4.914062 -26.046875 5.28125 -26.835938 5.65625 -27.515625 C 6.03125 -28.203125 6.519531 -28.957031 7.125 -29.78125 C 7.519531 -30.144531 7.941406 -30.34375 8.390625 -30.375 C 8.847656 -30.40625 9.226562 -30.285156 9.53125 -30.015625 C 9.832031 -29.742188 9.914062 -29.375 9.78125 -28.90625 C 9.3125 -27.195312 8.457031 -25.726562 7.21875 -24.5 Z M 7.21875 -24.5 "/></g></g></g><g fill="#ffffff" fill-opacity="1"><g transform="translate(138.743479, 107.982009)"><g><path d="M 20.25 -15.65625 C 17.351562 -12.238281 14.515625 -9.71875 11.734375 -8.09375 C 8.960938 -6.476562 5.992188 -5.945312 2.828125 -6.5 C -0.328125 -7.050781 -1.625 -9.171875 -1.0625 -12.859375 C -0.675781 -14.722656 -0.148438 -16.539062 0.515625 -18.3125 C 2.179688 -22.4375 3.867188 -26.539062 5.578125 -30.625 C 6.140625 -32.09375 6.734375 -33.570312 7.359375 -35.0625 C 7.503906 -35.382812 7.644531 -35.707031 7.78125 -36.03125 C 8.019531 -36.570312 8.253906 -37.125 8.484375 -37.6875 C 8.828125 -38.632812 8.453125 -39.128906 7.359375 -39.171875 C 6.734375 -39.171875 6.117188 -39.171875 5.515625 -39.171875 C 5.234375 -39.171875 4.914062 -39.171875 4.5625 -39.171875 C 4.238281 -39.128906 3.90625 -39.085938 3.5625 -39.046875 C 3 -39.003906 2.441406 -38.984375 1.890625 -38.984375 C 1.335938 -38.984375 0.828125 -39.125 0.359375 -39.40625 C 0.222656 -39.445312 0.117188 -39.523438 0.046875 -39.640625 C -0.0234375 -39.765625 -0.0625 -39.898438 -0.0625 -40.046875 C -0.0195312 -40.128906 0.046875 -40.226562 0.140625 -40.34375 C 0.242188 -40.46875 0.367188 -40.550781 0.515625 -40.59375 C 0.992188 -40.789062 1.492188 -40.929688 2.015625 -41.015625 C 3.347656 -41.085938 4.675781 -41.144531 6 -41.1875 C 6.507812 -41.1875 6.960938 -41.1875 7.359375 -41.1875 C 8.222656 -41.1875 8.863281 -41.21875 9.28125 -41.28125 C 9.707031 -41.34375 10.046875 -41.566406 10.296875 -41.953125 C 10.554688 -42.347656 10.863281 -42.945312 11.21875 -43.75 C 11.40625 -44.175781 11.640625 -44.648438 11.921875 -45.171875 C 12.640625 -46.679688 13.351562 -48.222656 14.0625 -49.796875 C 14.382812 -50.515625 14.71875 -51.207031 15.0625 -51.875 C 15.34375 -52.539062 15.785156 -53.0625 16.390625 -53.4375 C 16.972656 -53.71875 17.484375 -53.691406 17.921875 -53.359375 C 18.046875 -53.273438 18.144531 -53.132812 18.21875 -52.9375 C 18.300781 -52.75 18.34375 -52.578125 18.34375 -52.421875 C 18.34375 -51.578125 18.125 -50.75 17.6875 -49.9375 C 17.601562 -49.757812 17.507812 -49.550781 17.40625 -49.3125 C 17.125 -48.539062 16.820312 -47.753906 16.5 -46.953125 C 15.863281 -45.484375 15.265625 -43.984375 14.703125 -42.453125 C 14.554688 -42.171875 14.550781 -41.921875 14.6875 -41.703125 C 14.832031 -41.484375 15.046875 -41.375 15.328125 -41.375 C 16.859375 -41.332031 18.359375 -41.3125 19.828125 -41.3125 C 20.585938 -41.3125 21.34375 -41.3125 22.09375 -41.3125 C 24.46875 -41.269531 25.421875 -40.9375 24.953125 -40.3125 C 24.628906 -39.9375 24.273438 -39.722656 23.890625 -39.671875 C 23.515625 -39.617188 23.132812 -39.625 22.75 -39.6875 C 22.507812 -39.6875 22.269531 -39.6875 22.03125 -39.6875 C 19.613281 -39.539062 17.21875 -39.445312 14.84375 -39.40625 C 13.738281 -39.40625 13.003906 -38.90625 12.640625 -37.90625 C 12.242188 -36.957031 11.863281 -36.007812 11.5 -35.0625 C 10.957031 -33.8125 10.453125 -32.585938 9.984375 -31.390625 C 9.503906 -30.273438 9.023438 -29.144531 8.546875 -28 C 7.316406 -25.101562 6.128906 -22.195312 4.984375 -19.28125 C 4.273438 -17.375 3.71875 -15.429688 3.3125 -13.453125 C 2.394531 -9.835938 3.785156 -8.453125 7.484375 -9.296875 C 11.109375 -10.160156 14.910156 -12.773438 18.890625 -17.140625 C 20.617188 -18.242188 21.070312 -17.75 20.25 -15.65625 Z M 20.25 -15.65625 "/></g></g></g><g fill="#ffffff" fill-opacity="1"><g transform="translate(157.145669, 107.982009)"><g><path d="M 18.46875 -12.4375 C 17.21875 -11.207031 15.757812 -10.15625 14.09375 -9.28125 C 12.425781 -8.40625 11.03125 -7.832031 9.90625 -7.5625 C 8.789062 -7.289062 7.640625 -7.132812 6.453125 -7.09375 C 4.546875 -7.007812 2.796875 -7.269531 1.203125 -7.875 C -1.410156 -8.9375 -2.316406 -10.957031 -1.515625 -13.9375 C -0.765625 -16.5 0.765625 -18.503906 3.078125 -19.953125 C 5.390625 -21.398438 7.773438 -22.101562 10.234375 -22.0625 C 10.234375 -22.0625 10.253906 -22.0625 10.296875 -22.0625 C 10.929688 -22.101562 11.53125 -22.0625 12.09375 -21.9375 C 13.039062 -21.59375 13.644531 -21.03125 13.90625 -20.25 C 14.164062 -19.46875 13.988281 -18.601562 13.375 -17.65625 C 12 -15.5625 10.125 -14.394531 7.75 -14.15625 C 6.164062 -14.007812 4.640625 -14.085938 3.171875 -14.390625 C 2.890625 -14.429688 2.640625 -14.351562 2.421875 -14.15625 C 2.210938 -13.96875 2.085938 -13.734375 2.046875 -13.453125 C 1.609375 -11.585938 2.179688 -10.394531 3.765625 -9.875 C 5.703125 -9.207031 7.71875 -9.207031 9.8125 -9.875 C 12.238281 -10.632812 14.539062 -12.0625 16.71875 -14.15625 C 18.894531 -16.25 20.148438 -17.222656 20.484375 -17.078125 C 20.828125 -16.941406 20.929688 -16.539062 20.796875 -15.875 C 20.492188 -14.820312 19.71875 -13.675781 18.46875 -12.4375 Z M 4.671875 -17.65625 C 4.535156 -17.507812 4.441406 -17.34375 4.390625 -17.15625 C 4.335938 -16.96875 4.40625 -16.800781 4.59375 -16.65625 C 5.351562 -16.21875 6.175781 -16.054688 7.0625 -16.171875 C 7.945312 -16.296875 8.695312 -16.632812 9.3125 -17.1875 C 9.925781 -17.738281 10.191406 -18.414062 10.109375 -19.21875 C 10.046875 -19.5 9.894531 -19.675781 9.65625 -19.75 C 9.414062 -19.820312 9.175781 -19.835938 8.9375 -19.796875 C 7.34375 -19.515625 5.921875 -18.800781 4.671875 -17.65625 Z M 4.671875 -17.65625 "/></g></g></g><g fill="#ffffff" fill-opacity="1"><g transform="translate(176.001435, 107.982009)"><g><path d="M 15.546875 -19.890625 C 15.359375 -18.398438 14.65625 -17.425781 13.4375 -16.96875 C 12.226562 -16.519531 11.832031 -17.113281 12.25 -18.75 C 12.675781 -20.394531 11.9375 -20.8125 10.03125 -20 C 8.132812 -19.195312 6.570312 -18.179688 5.34375 -16.953125 C 3.445312 -15.003906 1.765625 -12.90625 0.296875 -10.65625 C 0.140625 -10.46875 0.0195312 -10.304688 -0.0625 -10.171875 C -0.5 -9.546875 -0.929688 -8.953125 -1.359375 -8.390625 C -1.640625 -8.003906 -1.96875 -7.757812 -2.34375 -7.65625 C -2.726562 -7.5625 -3.113281 -7.546875 -3.5 -7.609375 C -3.863281 -7.648438 -4.144531 -7.789062 -4.34375 -8.03125 C -4.539062 -8.269531 -4.5625 -8.550781 -4.40625 -8.875 C -4.164062 -9.457031 -3.882812 -10.050781 -3.5625 -10.65625 C -1.613281 -14.269531 0.359375 -17.890625 2.359375 -21.515625 C 2.410156 -21.554688 2.4375 -21.597656 2.4375 -21.640625 C 2.707031 -22.203125 3.039062 -22.722656 3.4375 -23.203125 C 3.863281 -23.671875 4.359375 -23.863281 4.921875 -23.78125 C 5.484375 -23.695312 5.863281 -23.363281 6.0625 -22.78125 C 6.300781 -22.019531 6.503906 -21.59375 6.671875 -21.5 C 6.847656 -21.40625 7.238281 -21.472656 7.84375 -21.703125 C 9.132812 -22.179688 10.394531 -22.515625 11.625 -22.703125 C 12.863281 -22.898438 13.875 -22.851562 14.65625 -22.5625 C 15.445312 -22.269531 15.742188 -21.378906 15.546875 -19.890625 Z M 15.546875 -19.890625 "/></g></g></g><g fill="#ffffff" fill-opacity="1"><g transform="translate(192.200546, 107.982009)"><g><path d="M 23.5 -16.515625 C 24.007812 -16.222656 24.050781 -15.515625 23.625 -14.390625 C 23 -13.566406 22.328125 -12.796875 21.609375 -12.078125 C 20.898438 -11.367188 20.125 -10.734375 19.28125 -10.171875 C 19.21875 -10.171875 19.1875 -10.148438 19.1875 -10.109375 C 18.625 -9.722656 18.03125 -9.390625 17.40625 -9.109375 C 12.238281 -7.242188 9.601562 -8.332031 9.5 -12.375 C 7.394531 -10.5625 5.988281 -9.453125 5.28125 -9.046875 C 3.570312 -8.023438 1.722656 -7.566406 -0.265625 -7.671875 C -1.734375 -7.765625 -2.726562 -8.210938 -3.25 -9.015625 C -3.78125 -9.828125 -3.734375 -10.925781 -3.109375 -12.3125 C -2.160156 -14.488281 -0.8125 -16.429688 0.9375 -18.140625 C 2.988281 -20.046875 5.269531 -21.570312 7.78125 -22.71875 C 9.113281 -23.382812 10.515625 -23.640625 11.984375 -23.484375 C 13.453125 -23.398438 14.335938 -22.570312 14.640625 -21 C 14.773438 -20.519531 14.660156 -20.097656 14.296875 -19.734375 C 13.816406 -19.296875 13.265625 -19.195312 12.640625 -19.4375 C 12.597656 -19.4375 12.535156 -19.445312 12.453125 -19.46875 C 12.378906 -19.488281 12.320312 -19.523438 12.28125 -19.578125 C 11.65625 -20.429688 11.019531 -20.789062 10.375 -20.65625 C 9.738281 -20.519531 9.066406 -20.234375 8.359375 -19.796875 C 5.035156 -17.847656 2.5625 -15.140625 0.9375 -11.671875 C 0.851562 -11.515625 0.800781 -11.34375 0.78125 -11.15625 C 0.757812 -10.976562 0.8125 -10.832031 0.9375 -10.71875 C 1.320312 -10.59375 1.753906 -10.617188 2.234375 -10.796875 C 2.710938 -10.984375 3.1875 -11.253906 3.65625 -11.609375 C 4.132812 -11.972656 4.535156 -12.269531 4.859375 -12.5 C 4.898438 -12.570312 4.921875 -12.609375 4.921875 -12.609375 C 6.503906 -13.921875 8.050781 -15.269531 9.5625 -16.65625 C 10.226562 -17.363281 11.054688 -17.765625 12.046875 -17.859375 C 13.472656 -17.859375 14.066406 -17.21875 13.828125 -15.9375 C 13.703125 -15.46875 13.566406 -14.992188 13.421875 -14.515625 C 12.859375 -12.460938 12.832031 -11.257812 13.34375 -10.90625 C 13.863281 -10.550781 14.65625 -10.550781 15.71875 -10.90625 C 16.789062 -11.257812 17.863281 -11.9375 18.9375 -12.9375 C 20.007812 -13.945312 20.910156 -14.867188 21.640625 -15.703125 C 22.378906 -16.535156 23 -16.804688 23.5 -16.515625 Z M 23.5 -16.515625 "/></g></g></g><g fill="#ffffff" fill-opacity="1"><g transform="translate(213.680567, 107.982009)"><g><path d="M 20.25 -15.65625 C 17.351562 -12.238281 14.515625 -9.71875 11.734375 -8.09375 C 8.960938 -6.476562 5.992188 -5.945312 2.828125 -6.5 C -0.328125 -7.050781 -1.625 -9.171875 -1.0625 -12.859375 C -0.675781 -14.722656 -0.148438 -16.539062 0.515625 -18.3125 C 2.179688 -22.4375 3.867188 -26.539062 5.578125 -30.625 C 6.140625 -32.09375 6.734375 -33.570312 7.359375 -35.0625 C 7.503906 -35.382812 7.644531 -35.707031 7.78125 -36.03125 C 8.019531 -36.570312 8.253906 -37.125 8.484375 -37.6875 C 8.828125 -38.632812 8.453125 -39.128906 7.359375 -39.171875 C 6.734375 -39.171875 6.117188 -39.171875 5.515625 -39.171875 C 5.234375 -39.171875 4.914062 -39.171875 4.5625 -39.171875 C 4.238281 -39.128906 3.90625 -39.085938 3.5625 -39.046875 C 3 -39.003906 2.441406 -38.984375 1.890625 -38.984375 C 1.335938 -38.984375 0.828125 -39.125 0.359375 -39.40625 C 0.222656 -39.445312 0.117188 -39.523438 0.046875 -39.640625 C -0.0234375 -39.765625 -0.0625 -39.898438 -0.0625 -40.046875 C -0.0195312 -40.128906 0.046875 -40.226562 0.140625 -40.34375 C 0.242188 -40.46875 0.367188 -40.550781 0.515625 -40.59375 C 0.992188 -40.789062 1.492188 -40.929688 2.015625 -41.015625 C 3.347656 -41.085938 4.675781 -41.144531 6 -41.1875 C 6.507812 -41.1875 6.960938 -41.1875 7.359375 -41.1875 C 8.222656 -41.1875 8.863281 -41.21875 9.28125 -41.28125 C 9.707031 -41.34375 10.046875 -41.566406 10.296875 -41.953125 C 10.554688 -42.347656 10.863281 -42.945312 11.21875 -43.75 C 11.40625 -44.175781 11.640625 -44.648438 11.921875 -45.171875 C 12.640625 -46.679688 13.351562 -48.222656 14.0625 -49.796875 C 14.382812 -50.515625 14.71875 -51.207031 15.0625 -51.875 C 15.34375 -52.539062 15.785156 -53.0625 16.390625 -53.4375 C 16.972656 -53.71875 17.484375 -53.691406 17.921875 -53.359375 C 18.046875 -53.273438 18.144531 -53.132812 18.21875 -52.9375 C 18.300781 -52.75 18.34375 -52.578125 18.34375 -52.421875 C 18.34375 -51.578125 18.125 -50.75 17.6875 -49.9375 C 17.601562 -49.757812 17.507812 -49.550781 17.40625 -49.3125 C 17.125 -48.539062 16.820312 -47.753906 16.5 -46.953125 C 15.863281 -45.484375 15.265625 -43.984375 14.703125 -42.453125 C 14.554688 -42.171875 14.550781 -41.921875 14.6875 -41.703125 C 14.832031 -41.484375 15.046875 -41.375 15.328125 -41.375 C 16.859375 -41.332031 18.359375 -41.3125 19.828125 -41.3125 C 20.585938 -41.3125 21.34375 -41.3125 22.09375 -41.3125 C 24.46875 -41.269531 25.421875 -40.9375 24.953125 -40.3125 C 24.628906 -39.9375 24.273438 -39.722656 23.890625 -39.671875 C 23.515625 -39.617188 23.132812 -39.625 22.75 -39.6875 C 22.507812 -39.6875 22.269531 -39.6875 22.03125 -39.6875 C 19.613281 -39.539062 17.21875 -39.445312 14.84375 -39.40625 C 13.738281 -39.40625 13.003906 -38.90625 12.640625 -37.90625 C 12.242188 -36.957031 11.863281 -36.007812 11.5 -35.0625 C 10.957031 -33.8125 10.453125 -32.585938 9.984375 -31.390625 C 9.503906 -30.273438 9.023438 -29.144531 8.546875 -28 C 7.316406 -25.101562 6.128906 -22.195312 4.984375 -19.28125 C 4.273438 -17.375 3.71875 -15.429688 3.3125 -13.453125 C 2.394531 -9.835938 3.785156 -8.453125 7.484375 -9.296875 C 11.109375 -10.160156 14.910156 -12.773438 18.890625 -17.140625 C 20.617188 -18.242188 21.070312 -17.75 20.25 -15.65625 Z M 20.25 -15.65625 "/></g></g></g><g fill="#ffffff" fill-opacity="1"><g transform="translate(232.082757, 107.982009)"><g><path d="M 0.8125 -5.734375 C -1.238281 -5.734375 -2.265625 -6.800781 -2.265625 -8.9375 C -2.265625 -11.550781 -0.570312 -16.164062 2.8125 -22.78125 C 2.945312 -23.0625 3.1875 -23.203125 3.53125 -23.203125 C 4.894531 -23.203125 5.578125 -22.660156 5.578125 -21.578125 C 5.578125 -21.191406 5.457031 -20.71875 5.21875 -20.15625 C 5.132812 -20 4 -17.144531 1.8125 -11.59375 C 1.46875 -10.6875 1.296875 -10.019531 1.296875 -9.59375 C 1.296875 -9.113281 1.507812 -8.875 1.9375 -8.875 C 3.519531 -8.875 7.660156 -12.796875 14.359375 -20.640625 C 15.222656 -21.703125 16.070312 -22.234375 16.90625 -22.234375 C 18.144531 -22.234375 18.765625 -21.773438 18.765625 -20.859375 C 18.765625 -20.515625 18.382812 -19.210938 17.625 -16.953125 C 16.59375 -13.859375 16.078125 -12.070312 16.078125 -11.59375 C 16.078125 -10.882812 16.3125 -10.53125 16.78125 -10.53125 C 17.96875 -10.53125 21.4375 -12.644531 27.1875 -16.875 C 27.507812 -17.15625 27.789062 -17.296875 28.03125 -17.296875 C 28.570312 -17.296875 28.84375 -16.84375 28.84375 -15.9375 C 28.84375 -15.695312 28.765625 -15.503906 28.609375 -15.359375 C 25.566406 -12.742188 22.972656 -10.753906 20.828125 -9.390625 C 18.890625 -8.140625 17.164062 -7.515625 15.65625 -7.515625 L 15.203125 -7.515625 C 12.972656 -7.992188 11.859375 -9.734375 11.859375 -12.734375 C 9.484375 -10.640625 7.507812 -8.945312 5.9375 -7.65625 C 4.375 -6.375 2.664062 -5.734375 0.8125 -5.734375 Z M 0.8125 -5.734375 "/></g></g></g><g fill="#ffffff" fill-opacity="1"><g transform="translate(258.714096, 107.982009)"><g><path d="M 15.546875 -19.890625 C 15.359375 -18.398438 14.65625 -17.425781 13.4375 -16.96875 C 12.226562 -16.519531 11.832031 -17.113281 12.25 -18.75 C 12.675781 -20.394531 11.9375 -20.8125 10.03125 -20 C 8.132812 -19.195312 6.570312 -18.179688 5.34375 -16.953125 C 3.445312 -15.003906 1.765625 -12.90625 0.296875 -10.65625 C 0.140625 -10.46875 0.0195312 -10.304688 -0.0625 -10.171875 C -0.5 -9.546875 -0.929688 -8.953125 -1.359375 -8.390625 C -1.640625 -8.003906 -1.96875 -7.757812 -2.34375 -7.65625 C -2.726562 -7.5625 -3.113281 -7.546875 -3.5 -7.609375 C -3.863281 -7.648438 -4.144531 -7.789062 -4.34375 -8.03125 C -4.539062 -8.269531 -4.5625 -8.550781 -4.40625 -8.875 C -4.164062 -9.457031 -3.882812 -10.050781 -3.5625 -10.65625 C -1.613281 -14.269531 0.359375 -17.890625 2.359375 -21.515625 C 2.410156 -21.554688 2.4375 -21.597656 2.4375 -21.640625 C 2.707031 -22.203125 3.039062 -22.722656 3.4375 -23.203125 C 3.863281 -23.671875 4.359375 -23.863281 4.921875 -23.78125 C 5.484375 -23.695312 5.863281 -23.363281 6.0625 -22.78125 C 6.300781 -22.019531 6.503906 -21.59375 6.671875 -21.5 C 6.847656 -21.40625 7.238281 -21.472656 7.84375 -21.703125 C 9.132812 -22.179688 10.394531 -22.515625 11.625 -22.703125 C 12.863281 -22.898438 13.875 -22.851562 14.65625 -22.5625 C 15.445312 -22.269531 15.742188 -21.378906 15.546875 -19.890625 Z M 15.546875 -19.890625 "/></g></g></g><g fill="#ffffff" fill-opacity="1"><g transform="translate(274.913207, 107.982009)"><g><path d="M 18.46875 -12.4375 C 17.21875 -11.207031 15.757812 -10.15625 14.09375 -9.28125 C 12.425781 -8.40625 11.03125 -7.832031 9.90625 -7.5625 C 8.789062 -7.289062 7.640625 -7.132812 6.453125 -7.09375 C 4.546875 -7.007812 2.796875 -7.269531 1.203125 -7.875 C -1.410156 -8.9375 -2.316406 -10.957031 -1.515625 -13.9375 C -0.765625 -16.5 0.765625 -18.503906 3.078125 -19.953125 C 5.390625 -21.398438 7.773438 -22.101562 10.234375 -22.0625 C 10.234375 -22.0625 10.253906 -22.0625 10.296875 -22.0625 C 10.929688 -22.101562 11.53125 -22.0625 12.09375 -21.9375 C 13.039062 -21.59375 13.644531 -21.03125 13.90625 -20.25 C 14.164062 -19.46875 13.988281 -18.601562 13.375 -17.65625 C 12 -15.5625 10.125 -14.394531 7.75 -14.15625 C 6.164062 -14.007812 4.640625 -14.085938 3.171875 -14.390625 C 2.890625 -14.429688 2.640625 -14.351562 2.421875 -14.15625 C 2.210938 -13.96875 2.085938 -13.734375 2.046875 -13.453125 C 1.609375 -11.585938 2.179688 -10.394531 3.765625 -9.875 C 5.703125 -9.207031 7.71875 -9.207031 9.8125 -9.875 C 12.238281 -10.632812 14.539062 -12.0625 16.71875 -14.15625 C 18.894531 -16.25 20.148438 -17.222656 20.484375 -17.078125 C 20.828125 -16.941406 20.929688 -16.539062 20.796875 -15.875 C 20.492188 -14.820312 19.71875 -13.675781 18.46875 -12.4375 Z M 4.671875 -17.65625 C 4.535156 -17.507812 4.441406 -17.34375 4.390625 -17.15625 C 4.335938 -16.96875 4.40625 -16.800781 4.59375 -16.65625 C 5.351562 -16.21875 6.175781 -16.054688 7.0625 -16.171875 C 7.945312 -16.296875 8.695312 -16.632812 9.3125 -17.1875 C 9.925781 -17.738281 10.191406 -18.414062 10.109375 -19.21875 C 10.046875 -19.5 9.894531 -19.675781 9.65625 -19.75 C 9.414062 -19.820312 9.175781 -19.835938 8.9375 -19.796875 C 7.34375 -19.515625 5.921875 -18.800781 4.671875 -17.65625 Z M 4.671875 -17.65625 "/></g></g></g><g fill="#ffffff" fill-opacity="1"><g transform="translate(195.405723, 116.920449)"><g><path d="M 12.40625 -8.351562 L 12.40625 -9.84375 L 2.035156 -9.84375 L 2.035156 0 L 12.40625 0 L 12.40625 -1.492188 L 3.707031 -1.492188 L 3.707031 -4.054688 L 11.386719 -4.054688 L 11.386719 -5.546875 L 3.707031 -5.546875 L 3.707031 -8.351562 Z M 12.40625 -8.351562 "/></g></g></g><g fill="#ffffff" fill-opacity="1"><g transform="translate(212.848273, 116.920449)"><g><path d="M 10.894531 -9.84375 L 6.414062 -1.707031 L 1.9375 -9.84375 L -0.0507812 -9.84375 L 5.367188 0 L 7.351562 0 L 12.765625 -9.84375 Z M 10.894531 -9.84375 "/></g></g></g><g fill="#ffffff" fill-opacity="1"><g transform="translate(229.650901, 116.920449)"><g><path d="M 12.40625 -8.351562 L 12.40625 -9.84375 L 2.035156 -9.84375 L 2.035156 0 L 12.40625 0 L 12.40625 -1.492188 L 3.707031 -1.492188 L 3.707031 -4.054688 L 11.386719 -4.054688 L 11.386719 -5.546875 L 3.707031 -5.546875 L 3.707031 -8.351562 Z M 12.40625 -8.351562 "/></g></g></g><g fill="#ffffff" fill-opacity="1"><g transform="translate(247.093449, 116.920449)"><g><path d="M 11.453125 -9.84375 L 11.453125 -1.855469 L 4.25 -9.84375 L 2.035156 -9.84375 L 2.035156 0 L 3.707031 0 L 3.707031 -7.972656 L 10.878906 0 L 13.125 0 L 13.125 -9.84375 Z M 11.453125 -9.84375 "/></g></g></g><g fill="#ffffff" fill-opacity="1"><g transform="translate(266.291667, 116.920449)"><g><path d="M 11.207031 -9.84375 L -0.0507812 -9.84375 L -0.0507812 -8.238281 L 4.742188 -8.238281 L 4.742188 0 L 6.414062 0 L 6.414062 -8.238281 L 11.207031 -8.238281 Z M 11.207031 -9.84375 "/></g></g></g><g fill="#ffffff" fill-opacity="1"><g transform="translate(281.469893, 116.920449)"><g><path d="M 11.503906 -6.660156 L 13.175781 -6.660156 C 13.175781 -9.121094 10.945312 -9.992188 7.417969 -9.992188 C 3.230469 -9.992188 1.328125 -9.023438 1.328125 -7.21875 L 1.328125 -7.089844 C 1.328125 -4.875 3.117188 -4.578125 7.054688 -4.167969 C 11.339844 -3.773438 11.355469 -3.183594 11.355469 -2.921875 L 11.355469 -2.722656 C 11.355469 -1.574219 8.894531 -1.476562 7.070312 -1.476562 C 4.28125 -1.476562 2.984375 -2.214844 2.984375 -3.394531 L 1.3125 -3.394531 C 1.3125 -1.199219 3.214844 0.164062 7.070312 0.164062 C 11.191406 0.164062 13.078125 -0.605469 13.078125 -2.773438 L 13.078125 -2.9375 C 13.078125 -5.167969 10.878906 -5.480469 7.152344 -5.824219 C 3.066406 -6.203125 3.050781 -6.710938 3.050781 -7.105469 L 3.050781 -7.253906 C 3.050781 -8.039062 5.085938 -8.351562 7.417969 -8.351562 C 9.746094 -8.351562 11.503906 -7.925781 11.503906 -6.660156 Z M 11.503906 -6.660156 "/></g></g></g></svg>