<svg xmlns="http://www.w3.org/2000/svg" xmlns:xlink="http://www.w3.org/1999/xlink" width="40" zoomAndPan="magnify" viewBox="0 0 30 30.000001" height="40" preserveAspectRatio="xMidYMid meet" version="1.0"><defs><clipPath id="f8da47e6d8"><path d="M 0.949219 0.46875 L 29.257812 0.46875 L 29.257812 28.773438 L 0.949219 28.773438 Z M 0.949219 0.46875 " clip-rule="nonzero"/></clipPath></defs><path fill="#ad2727" d="M 15.070312 13.9375 L 21.914062 9.667969 C 21.839844 9.65625 21.765625 9.648438 21.6875 9.648438 L 8.453125 9.648438 C 8.375 9.648438 8.300781 9.65625 8.226562 9.667969 Z M 15.070312 13.9375 " fill-opacity="1" fill-rule="nonzero"/><path fill="#ad2727" d="M 15.5 15.585938 C 15.492188 15.59375 15.480469 15.597656 15.472656 15.601562 C 15.460938 15.609375 15.449219 15.613281 15.441406 15.617188 C 15.386719 15.644531 15.332031 15.667969 15.273438 15.683594 C 15.269531 15.683594 15.261719 15.6875 15.257812 15.6875 C 15.195312 15.703125 15.132812 15.710938 15.070312 15.710938 C 15.003906 15.710938 14.941406 15.703125 14.882812 15.6875 C 14.875 15.6875 14.871094 15.683594 14.863281 15.683594 C 14.808594 15.667969 14.75 15.644531 14.699219 15.617188 C 14.6875 15.613281 14.675781 15.609375 14.667969 15.601562 C 14.65625 15.597656 14.648438 15.59375 14.636719 15.585938 L 7.03125 10.84375 C 7.019531 10.925781 7.011719 11.007812 7.011719 11.089844 L 7.011719 18.703125 C 7.011719 19.5 7.65625 20.144531 8.453125 20.144531 L 21.6875 20.144531 C 22.484375 20.144531 23.128906 19.5 23.128906 18.703125 L 23.128906 11.089844 C 23.128906 11.007812 23.117188 10.925781 23.105469 10.84375 Z M 15.5 15.585938 " fill-opacity="1" fill-rule="nonzero"/><g clip-path="url(#f8da47e6d8)"><path fill="#ad2727" d="M 15.109375 28.765625 C 7.304688 28.765625 0.957031 22.417969 0.957031 14.617188 C 0.957031 6.8125 7.304688 0.464844 15.109375 0.464844 C 22.910156 0.464844 29.257812 6.8125 29.257812 14.617188 C 29.257812 22.417969 22.910156 28.765625 15.109375 28.765625 Z M 15.109375 1.863281 C 8.074219 1.863281 2.355469 7.582031 2.355469 14.617188 C 2.355469 21.648438 8.074219 27.371094 15.109375 27.371094 C 22.140625 27.371094 27.863281 21.648438 27.863281 14.617188 C 27.863281 7.582031 22.140625 1.863281 15.109375 1.863281 Z M 15.109375 1.863281 " fill-opacity="1" fill-rule="nonzero"/></g></svg>