<svg xmlns="http://www.w3.org/2000/svg" xmlns:xlink="http://www.w3.org/1999/xlink" width="40" zoomAndPan="magnify" viewBox="0 0 30 30.000001" height="40" preserveAspectRatio="xMidYMid meet" version="1.0"><defs><clipPath id="cb438129cd"><path d="M 1 0 L 18.628906 0 L 18.628906 12 L 1 12 Z M 1 0 " clip-rule="nonzero"/></clipPath><clipPath id="2af96e3e26"><path d="M 3 8 L 18.628906 8 L 18.628906 25 L 3 25 Z M 3 8 " clip-rule="nonzero"/></clipPath></defs><g clip-path="url(#cb438129cd)"><path fill="#fcf5eb" d="M 1.445312 0.15625 C 8.796875 2.191406 2.367188 9.609375 9.898438 9.777344 C 13.96875 9.871094 14.992188 9.164062 18.640625 11.140625 C 14.257812 8.980469 13.050781 10.398438 8.503906 10.15625 C 3.050781 9.867188 6.175781 2.179688 1.09375 1.871094 Z M 1.445312 0.15625 " fill-opacity="1" fill-rule="evenodd"/></g><g clip-path="url(#2af96e3e26)"><path fill="#fcf5eb" d="M 6.109375 10.273438 C 2.941406 17.175781 9.097656 21.824219 14.925781 23.46875 L 18.332031 24.199219 C 13.9375 23.472656 14.0625 23.578125 11.65625 22.675781 C 5.640625 20.421875 0.492188 14.25 4.648438 8.546875 C 4.820312 8.894531 5.027344 9.222656 5.277344 9.523438 C 5.527344 9.824219 5.808594 10.070312 6.109375 10.273438 Z M 6.109375 10.273438 " fill-opacity="1" fill-rule="evenodd"/></g><path fill="#fcf5eb" d="M 6.78125 11.140625 C 10.679688 13.726562 7.722656 24.507812 14.191406 28.125 L 15.863281 28.863281 C 3.855469 25.015625 11.03125 14.636719 6.78125 11.140625 Z M 6.78125 11.140625 " fill-opacity="1" fill-rule="evenodd"/><path fill="#fcf5eb" d="M 8.535156 5.046875 C 7.835938 5.035156 7.140625 5.78125 6.980469 6.714844 C 6.820312 7.648438 7.257812 8.414062 7.957031 8.425781 C 8.65625 8.4375 9.351562 7.6875 9.511719 6.753906 C 9.671875 5.820312 9.234375 5.058594 8.535156 5.046875 Z M 8.535156 5.046875 " fill-opacity="1" fill-rule="evenodd"/></svg>