<svg xmlns="http://www.w3.org/2000/svg" xmlns:xlink="http://www.w3.org/1999/xlink" width="40" zoomAndPan="magnify" viewBox="0 0 30 30.000001" height="40" preserveAspectRatio="xMidYMid meet" version="1.0"><defs><filter x="0%" y="0%" width="100%" height="100%" id="f3737abd79"><feColorMatrix values="0 0 0 0 1 0 0 0 0 1 0 0 0 0 1 0 0 0 1 0" color-interpolation-filters="sRGB"/></filter><clipPath id="06fc4919cb"><path d="M 0.484375 7.457031 L 28.789062 7.457031 L 28.789062 19.792969 L 0.484375 19.792969 Z M 0.484375 7.457031 " clip-rule="nonzero"/></clipPath><clipPath id="42e1a1d349"><path d="M 1 9 L 29.515625 9 L 29.515625 22 L 1 22 Z M 1 9 " clip-rule="nonzero"/></clipPath><mask id="5def8ac5cf"><g filter="url(#f3737abd79)"><rect x="-3" width="36" fill="#000000" y="-3" height="36.000001" fill-opacity="0.5294"/></g></mask><clipPath id="64068612ce"><path d="M 0.496094 0.0625 L 28.515625 0.0625 L 28.515625 12.398438 L 0.496094 12.398438 Z M 0.496094 0.0625 " clip-rule="nonzero"/></clipPath><clipPath id="0e682e53dc"><rect x="0" width="29" y="0" height="13"/></clipPath><clipPath id="1ca7c08a7f"><path d="M 8.050781 9.0625 L 14 9.0625 L 14 17.769531 L 8.050781 17.769531 Z M 8.050781 9.0625 " clip-rule="nonzero"/></clipPath><clipPath id="82790fd9b6"><path d="M 13 9.0625 L 19 9.0625 L 19 17.769531 L 13 17.769531 Z M 13 9.0625 " clip-rule="nonzero"/></clipPath><clipPath id="59da36826b"><path d="M 18 9.0625 L 23.292969 9.0625 L 23.292969 17.769531 L 18 17.769531 Z M 18 9.0625 " clip-rule="nonzero"/></clipPath></defs><g clip-path="url(#06fc4919cb)"><path fill="#fcf5eb" d="M 6.808594 7.457031 L 22.46875 7.457031 C 25.957031 7.457031 28.789062 10.21875 28.789062 13.625 C 28.789062 17.03125 25.957031 19.792969 22.46875 19.792969 L 6.808594 19.792969 C 3.316406 19.792969 0.488281 17.03125 0.488281 13.625 C 0.488281 10.21875 3.316406 7.457031 6.808594 7.457031 " fill-opacity="1" fill-rule="nonzero"/></g><g clip-path="url(#42e1a1d349)"><g mask="url(#5def8ac5cf)"><g transform="matrix(1, 0, 0, 1, 1, 9)"><g clip-path="url(#0e682e53dc)"><g clip-path="url(#64068612ce)"><path fill="#fcf5eb" d="M 6.820312 0.0625 L 22.480469 0.0625 C 25.96875 0.0625 28.800781 2.824219 28.800781 6.230469 C 28.800781 9.636719 25.96875 12.398438 22.480469 12.398438 L 6.820312 12.398438 C 3.328125 12.398438 0.5 9.636719 0.5 6.230469 C 0.5 2.824219 3.328125 0.0625 6.820312 0.0625 " fill-opacity="1" fill-rule="nonzero"/></g></g></g></g></g><g clip-path="url(#1ca7c08a7f)"><path fill="#ad2727" d="M 8.964844 17.753906 C 8.59375 17.753906 8.335938 17.585938 8.1875 17.25 C 8.042969 16.914062 8.09375 16.613281 8.347656 16.347656 L 11.085938 13.453125 L 8.347656 10.5625 C 8.1875 10.394531 8.113281 10.195312 8.121094 9.964844 C 8.128906 9.734375 8.214844 9.542969 8.386719 9.382812 C 8.554688 9.226562 8.757812 9.152344 8.992188 9.15625 C 9.222656 9.164062 9.421875 9.253906 9.578125 9.421875 L 12.859375 12.882812 C 13.011719 13.042969 13.085938 13.234375 13.085938 13.453125 C 13.085938 13.675781 13.011719 13.863281 12.859375 14.027344 L 9.578125 17.488281 C 9.414062 17.664062 9.207031 17.753906 8.964844 17.753906 Z M 8.964844 17.753906 " fill-opacity="1" fill-rule="nonzero"/></g><g clip-path="url(#82790fd9b6)"><path fill="#ad2727" d="M 14.027344 17.753906 C 13.65625 17.753906 13.398438 17.585938 13.253906 17.25 C 13.105469 16.914062 13.160156 16.613281 13.410156 16.347656 L 16.152344 13.453125 L 13.410156 10.5625 C 13.25 10.394531 13.175781 10.195312 13.183594 9.964844 C 13.191406 9.734375 13.28125 9.542969 13.449219 9.382812 C 13.621094 9.226562 13.820312 9.152344 14.054688 9.15625 C 14.289062 9.164062 14.484375 9.253906 14.644531 9.421875 L 17.921875 12.882812 C 18.074219 13.042969 18.152344 13.234375 18.152344 13.453125 C 18.152344 13.675781 18.074219 13.863281 17.921875 14.027344 L 14.644531 17.488281 C 14.476562 17.664062 14.269531 17.753906 14.027344 17.753906 Z M 14.027344 17.753906 " fill-opacity="1" fill-rule="nonzero"/></g><g clip-path="url(#59da36826b)"><path fill="#ad2727" d="M 19.089844 17.753906 C 18.722656 17.753906 18.464844 17.585938 18.316406 17.25 C 18.167969 16.914062 18.222656 16.613281 18.476562 16.347656 L 21.214844 13.453125 L 18.476562 10.5625 C 18.316406 10.394531 18.238281 10.195312 18.246094 9.964844 C 18.253906 9.734375 18.34375 9.542969 18.511719 9.382812 C 18.683594 9.226562 18.886719 9.152344 19.117188 9.15625 C 19.351562 9.164062 19.546875 9.253906 19.707031 9.421875 L 22.988281 12.882812 C 23.140625 13.042969 23.214844 13.234375 23.214844 13.453125 C 23.214844 13.675781 23.140625 13.863281 22.988281 14.027344 L 19.707031 17.488281 C 19.539062 17.664062 19.335938 17.753906 19.089844 17.753906 Z M 19.089844 17.753906 " fill-opacity="1" fill-rule="nonzero"/></g></svg>