<svg xmlns="http://www.w3.org/2000/svg" xmlns:xlink="http://www.w3.org/1999/xlink" width="40" zoomAndPan="magnify" viewBox="0 0 30 30.000001" height="40" preserveAspectRatio="xMidYMid meet" version="1.0"><defs><clipPath id="4378515d87"><path d="M 16 8 L 29.515625 8 L 29.515625 25.640625 L 16 25.640625 Z M 16 8 " clip-rule="nonzero"/></clipPath><clipPath id="6290b50c33"><path d="M 21 3.140625 L 27 3.140625 L 27 9 L 21 9 Z M 21 3.140625 " clip-rule="nonzero"/></clipPath><clipPath id="af26df5706"><path d="M 0.484375 8 L 16 8 L 16 25.640625 L 0.484375 25.640625 Z M 0.484375 8 " clip-rule="nonzero"/></clipPath><clipPath id="1170dbe937"><path d="M 3 3.140625 L 9 3.140625 L 9 9 L 3 9 Z M 3 3.140625 " clip-rule="nonzero"/></clipPath></defs><g clip-path="url(#4378515d87)"><path fill="#ffffff" d="M 16.859375 14.128906 L 21.144531 14.128906 L 23.542969 15.347656 L 23.542969 24.902344 L 17.878906 24.902344 Z M 19.101562 10.730469 C 19.191406 10.707031 19.28125 10.769531 19.347656 10.828125 L 20.863281 12.183594 L 20.863281 13.195312 L 19.09375 11.667969 C 18.980469 11.566406 18.832031 11.507812 18.679688 11.511719 C 18.679688 11.511719 17.984375 11.515625 17.6875 11.515625 C 17.296875 11.515625 17.304688 11.199219 17.671875 11.101562 C 18.15625 10.980469 19.101562 10.730469 19.101562 10.730469 Z M 22.132812 9.40625 L 25.085938 9.40625 C 25.546875 9.40625 25.660156 9.488281 25.972656 9.804688 L 28.429688 12.289062 C 28.566406 12.425781 28.582031 12.625 28.472656 12.789062 L 26.5625 15.539062 C 26.457031 15.695312 26.398438 15.714844 26.304688 15.722656 C 26.21875 15.734375 26.101562 15.707031 26.011719 15.640625 C 25.914062 15.578125 25.851562 15.480469 25.828125 15.402344 C 25.808594 15.3125 25.800781 15.25 25.910156 15.09375 L 27.355469 13.011719 C 27.515625 12.777344 27.484375 12.457031 27.285156 12.257812 L 26.460938 11.425781 C 26.226562 11.191406 25.820312 11.359375 25.824219 11.6875 L 25.832031 13.902344 L 25.292969 14.675781 C 25.089844 14.972656 25.039062 15.3125 25.105469 15.582031 C 25.175781 15.859375 25.355469 16.09375 25.585938 16.253906 C 25.660156 16.300781 25.746094 16.316406 25.832031 16.316406 L 25.832031 24.109375 C 25.832031 24.40625 25.734375 24.582031 25.597656 24.707031 C 25.457031 24.828125 25.261719 24.902344 25.0625 24.902344 C 24.859375 24.902344 24.660156 24.828125 24.523438 24.707031 C 24.382812 24.582031 24.289062 24.40625 24.289062 24.109375 L 24.289062 15.121094 C 24.285156 14.984375 24.207031 14.859375 24.085938 14.796875 L 21.609375 13.539062 L 21.609375 9.925781 C 21.609375 9.667969 21.765625 9.40625 22.132812 9.40625 Z M 22.132812 8.671875 C 21.429688 8.671875 20.863281 9.15625 20.863281 9.757812 L 20.863281 11.1875 L 19.859375 10.289062 C 19.601562 10.058594 19.277344 9.925781 18.992188 10 L 17.734375 10.324219 C 17.042969 10.476562 16.640625 10.925781 16.648438 11.390625 C 16.648438 11.609375 16.765625 11.851562 16.957031 12 C 17.15625 12.160156 17.4375 12.246094 17.792969 12.246094 L 18.632812 12.246094 L 19.960938 13.394531 L 16.449219 13.394531 C 16.230469 13.394531 16.058594 13.582031 16.078125 13.796875 L 17.167969 25.304688 C 17.1875 25.492188 17.347656 25.636719 17.539062 25.636719 L 23.914062 25.636719 C 24.0625 25.636719 24.191406 25.554688 24.253906 25.421875 C 24.5 25.570312 24.78125 25.636719 25.058594 25.636719 C 25.429688 25.636719 25.804688 25.515625 26.097656 25.253906 C 26.386719 24.992188 26.578125 24.585938 26.578125 24.109375 L 26.578125 16.34375 C 26.796875 16.269531 27.023438 16.183594 27.179688 15.957031 L 29.085938 13.203125 C 29.394531 12.761719 29.34375 12.15625 28.964844 11.769531 L 26.503906 9.289062 C 26.132812 8.914062 25.699219 8.671875 25.085938 8.671875 Z M 22.132812 8.671875 " fill-opacity="1" fill-rule="nonzero"/></g><g clip-path="url(#6290b50c33)"><path fill="#ffffff" d="M 23.101562 4.066406 C 23.53125 3.898438 24.023438 3.890625 24.484375 4.089844 C 25.410156 4.484375 25.832031 5.53125 25.433594 6.445312 C 25.035156 7.359375 23.972656 7.773438 23.046875 7.378906 C 22.125 6.988281 21.707031 5.933594 22.105469 5.023438 C 22.304688 4.566406 22.667969 4.234375 23.101562 4.066406 Z M 22.828125 3.382812 C 22.21875 3.621094 21.699219 4.089844 21.417969 4.730469 C 20.863281 6.007812 21.464844 7.503906 22.753906 8.058594 C 24.046875 8.609375 25.558594 8.015625 26.117188 6.734375 C 26.675781 5.457031 26.078125 3.964844 24.78125 3.410156 C 24.136719 3.136719 23.4375 3.144531 22.828125 3.382812 Z M 22.828125 3.382812 " fill-opacity="1" fill-rule="evenodd"/></g><g clip-path="url(#af26df5706)"><path fill="#ffffff" d="M 8.855469 14.132812 L 13.136719 14.132812 L 12.117188 24.902344 L 6.457031 24.902344 L 6.457031 15.347656 Z M 4.914062 9.410156 L 7.714844 9.410156 C 8.164062 9.410156 8.265625 9.511719 8.621094 9.824219 L 10.34375 11.335938 C 10.484375 11.460938 10.699219 11.457031 10.839844 11.332031 L 12.46875 9.871094 C 12.472656 9.871094 12.476562 9.871094 12.476562 9.867188 C 12.539062 9.808594 12.628906 9.777344 12.722656 9.773438 L 14.09375 10.113281 C 14.574219 10.234375 14.550781 10.550781 14.03125 10.550781 L 13.144531 10.550781 C 12.992188 10.546875 12.84375 10.605469 12.730469 10.707031 L 10.90625 12.28125 C 10.742188 12.421875 10.546875 12.429688 10.363281 12.296875 L 8.984375 11.300781 C 8.738281 11.117188 8.390625 11.292969 8.390625 11.597656 L 8.390625 13.539062 L 5.914062 14.796875 C 5.789062 14.859375 5.710938 14.984375 5.710938 15.125 L 5.710938 24.113281 C 5.710938 24.410156 5.617188 24.582031 5.476562 24.707031 C 5.339844 24.832031 5.140625 24.902344 4.941406 24.902344 C 4.738281 24.902344 4.542969 24.832031 4.402344 24.707031 C 4.265625 24.582031 4.167969 24.410156 4.167969 24.113281 L 4.167969 16.394531 C 4.246094 16.363281 4.339844 16.300781 4.410156 16.253906 C 4.644531 16.09375 4.824219 15.859375 4.894531 15.582031 C 4.960938 15.308594 4.910156 14.972656 4.703125 14.679688 L 4.167969 13.90625 L 4.179688 11.6875 C 4.179688 11.355469 3.773438 11.1875 3.539062 11.425781 L 2.714844 12.257812 C 2.515625 12.457031 2.484375 12.777344 2.644531 13.011719 L 4.09375 15.09375 C 4.199219 15.25 4.191406 15.3125 4.171875 15.402344 C 4.148438 15.480469 4.082031 15.582031 3.988281 15.644531 C 3.894531 15.707031 3.777344 15.734375 3.695312 15.726562 C 3.601562 15.714844 3.539062 15.695312 3.433594 15.539062 L 1.523438 12.789062 C 1.414062 12.625 1.433594 12.425781 1.570312 12.289062 L 4.023438 9.804688 C 4.339844 9.488281 4.453125 9.410156 4.914062 9.410156 Z M 4.914062 8.671875 C 4.300781 8.671875 3.867188 8.914062 3.496094 9.289062 L 1.035156 11.769531 C 0.652344 12.15625 0.605469 12.761719 0.914062 13.203125 L 2.820312 15.957031 C 2.976562 16.183594 3.203125 16.347656 3.421875 16.421875 L 3.421875 24.113281 C 3.421875 24.589844 3.609375 24.992188 3.902344 25.253906 C 4.191406 25.515625 4.570312 25.636719 4.941406 25.636719 C 5.21875 25.636719 5.5 25.570312 5.746094 25.421875 C 5.804688 25.554688 5.941406 25.636719 6.085938 25.636719 L 12.457031 25.636719 C 12.652344 25.636719 12.8125 25.492188 12.828125 25.304688 L 13.921875 13.796875 C 13.941406 13.582031 13.769531 13.394531 13.546875 13.394531 L 9.136719 13.394531 L 9.136719 12.324219 L 9.921875 12.890625 C 10.363281 13.210938 10.980469 13.195312 11.398438 12.835938 L 13.191406 11.289062 L 14.03125 11.289062 C 14.386719 11.289062 14.667969 11.199219 14.867188 11.042969 C 15.058594 10.890625 15.175781 10.652344 15.175781 10.433594 C 15.179688 9.964844 14.78125 9.515625 14.089844 9.363281 L 12.835938 9.039062 C 12.800781 9.03125 12.765625 9.027344 12.734375 9.027344 C 12.453125 9.03125 12.175781 9.132812 11.964844 9.328125 L 10.585938 10.5625 L 9.117188 9.273438 C 8.742188 8.941406 8.339844 8.671875 7.714844 8.671875 Z M 4.914062 8.671875 " fill-opacity="1" fill-rule="nonzero"/></g><g clip-path="url(#1170dbe937)"><path fill="#ffffff" d="M 5.5625 4.066406 C 5.992188 3.898438 6.484375 3.890625 6.945312 4.089844 C 7.871094 4.484375 8.292969 5.53125 7.894531 6.445312 C 7.496094 7.359375 6.433594 7.773438 5.507812 7.378906 C 4.589844 6.988281 4.167969 5.933594 4.566406 5.023438 C 4.765625 4.566406 5.132812 4.234375 5.5625 4.066406 Z M 5.289062 3.382812 C 4.679688 3.621094 4.160156 4.089844 3.882812 4.730469 C 3.324219 6.007812 3.921875 7.503906 5.214844 8.058594 C 6.511719 8.609375 8.023438 8.015625 8.578125 6.734375 C 9.136719 5.457031 8.539062 3.964844 7.242188 3.410156 C 6.597656 3.136719 5.898438 3.144531 5.289062 3.382812 Z M 5.289062 3.382812 " fill-opacity="1" fill-rule="evenodd"/></g></svg>