<svg xmlns="http://www.w3.org/2000/svg" xmlns:xlink="http://www.w3.org/1999/xlink" width="40" zoomAndPan="magnify" viewBox="0 0 30 30.000001" height="40" preserveAspectRatio="xMidYMid meet" version="1.0"><defs><clipPath id="734807dbf6"><path d="M 0.484375 18 L 25.886719 18 L 25.886719 29 L 0.484375 29 Z M 0.484375 18 " clip-rule="nonzero"/></clipPath></defs><path fill="#ffffff" d="M 13.230469 0.164062 C 12.460938 0.164062 11.835938 0.785156 11.835938 1.554688 L 11.835938 16.453125 L 8.566406 13.199219 C 7.25 11.929688 5.3125 13.847656 6.59375 15.160156 C 6.59375 15.160156 12.246094 20.785156 12.246094 20.785156 C 12.773438 21.332031 13.691406 21.3125 14.21875 20.785156 C 14.21875 20.785156 19.871094 15.160156 19.871094 15.160156 C 21.144531 13.851562 19.21875 11.925781 17.898438 13.199219 C 17.898438 13.199219 14.628906 16.453125 14.628906 16.453125 L 14.628906 1.554688 C 14.628906 0.785156 14.003906 0.164062 13.230469 0.164062 Z M 13.230469 0.164062 " fill-opacity="1" fill-rule="nonzero"/><g clip-path="url(#734807dbf6)"><path fill="#ffffff" d="M 1.925781 18.417969 C 1.15625 18.417969 0.53125 19.039062 0.53125 19.804688 L 0.53125 21.855469 C 0.53125 25.722656 3.691406 28.867188 7.578125 28.867188 L 18.886719 28.867188 C 22.773438 28.867188 25.933594 25.722656 25.933594 21.855469 L 25.933594 19.804688 C 25.933594 19.039062 25.308594 18.417969 24.539062 18.417969 C 23.769531 18.417969 23.140625 19.039062 23.140625 19.804688 L 23.140625 21.855469 C 23.140625 24.191406 21.230469 26.089844 18.886719 26.089844 L 7.578125 26.089844 C 5.230469 26.089844 3.320312 24.191406 3.320312 21.855469 L 3.320312 19.804688 C 3.320312 19.039062 2.695312 18.417969 1.925781 18.417969 Z M 1.925781 18.417969 " fill-opacity="1" fill-rule="nonzero"/></g></svg>