<svg xmlns="http://www.w3.org/2000/svg" xmlns:xlink="http://www.w3.org/1999/xlink" width="40" zoomAndPan="magnify" viewBox="0 0 30 30.000001" height="40" preserveAspectRatio="xMidYMid meet" version="1.0"><defs><clipPath id="f21f03ab83"><path d="M 14 0 L 21.367188 0 L 21.367188 14 L 14 14 Z M 14 0 " clip-rule="nonzero"/></clipPath><clipPath id="97ae92b631"><path d="M 8.304688 0 L 21 0 L 21 26 L 8.304688 26 Z M 8.304688 0 " clip-rule="nonzero"/></clipPath><clipPath id="527dad613b"><path d="M 8.304688 13 L 9 13 L 9 14 L 8.304688 14 Z M 8.304688 13 " clip-rule="nonzero"/></clipPath><clipPath id="b9b6a2310c"><path d="M 8.304688 10 L 9 10 L 9 11 L 8.304688 11 Z M 8.304688 10 " clip-rule="nonzero"/></clipPath></defs><g clip-path="url(#f21f03ab83)"><path fill="#ffffff" d="M 16.425781 0.574219 C 16.320312 0.597656 16.273438 0.488281 16.246094 0.574219 C 16.277344 0.574219 16.3125 0.621094 16.246094 0.632812 C 16.148438 0.574219 16.003906 0.578125 16.125 0.460938 C 15.839844 0.484375 15.871094 0.484375 15.585938 0.460938 C 15.585938 0.757812 15.898438 0.429688 15.824219 0.746094 C 16.039062 0.671875 16.042969 0.617188 16.304688 0.6875 C 16.304688 0.613281 16.410156 0.636719 16.425781 0.574219 Z M 18.644531 6.8125 C 18.789062 7.105469 18.800781 6.617188 18.644531 6.8125 Z M 18.882812 6.527344 L 18.882812 6.414062 L 18.703125 6.414062 L 18.703125 6.527344 Z M 18.945312 5.152344 C 19.09375 5.242188 19.121094 4.957031 19.003906 4.980469 C 19 5.015625 18.996094 5.050781 18.945312 5.039062 Z M 19.304688 3.609375 C 19.324219 3.382812 19.40625 2.976562 19.246094 2.863281 C 19.28125 3.09375 19.167969 3.472656 19.304688 3.609375 Z M 21.285156 5.382812 C 21.242188 5.511719 21.101562 5.253906 20.984375 5.265625 C 21.132812 5.492188 21.371094 5.765625 21.164062 6.011719 C 21.058594 5.921875 21.117188 5.675781 20.925781 5.667969 C 20.8125 5.769531 20.941406 5.84375 21.042969 5.898438 C 20.894531 5.921875 20.601562 5.597656 20.382812 5.496094 C 20.351562 5.65625 20.707031 5.710938 20.625 6.011719 C 20.519531 5.960938 20.449219 5.875 20.324219 5.839844 C 20.539062 6.113281 20.917969 6.226562 21.105469 6.527344 C 20.871094 6.660156 21.078125 6.894531 20.984375 7.097656 C 20.78125 7.15625 20.890625 6.921875 20.863281 6.8125 C 20.660156 7.015625 20.472656 6.75 20.265625 6.640625 C 20.140625 6.6875 20.410156 6.839844 20.445312 6.925781 C 20.410156 7.046875 20.351562 7.046875 20.265625 6.984375 C 20.363281 7.214844 20.636719 7.277344 20.804688 7.441406 C 20.804688 7.691406 20.824219 7.957031 20.746094 8.128906 C 20.542969 8.054688 20.332031 7.988281 20.203125 7.84375 C 20.109375 7.863281 20.257812 7.945312 20.144531 7.957031 C 20.242188 7.9375 20.355469 8.183594 20.085938 8.070312 C 20.140625 8.304688 20.363281 8.378906 20.5625 8.472656 C 20.617188 8.664062 20.542969 8.796875 20.625 9.042969 C 20.546875 9.175781 20.28125 8.875 20.445312 9.101562 C 20.335938 9.21875 20.113281 8.960938 19.964844 8.929688 C 19.792969 8.921875 20.035156 9.304688 19.785156 9.214844 C 20.160156 9.433594 20.5 9.617188 20.324219 10.132812 C 20.0625 10.175781 20.371094 10.019531 20.203125 10.019531 C 20.128906 10.03125 20.125 10.1875 20.203125 10.191406 C 20.121094 10.285156 19.875 10.050781 19.722656 10.019531 C 19.742188 10.195312 19.761719 10.113281 19.542969 10.304688 C 19.699219 10.460938 19.9375 10.539062 20.144531 10.648438 C 20.027344 10.757812 20.207031 10.878906 20.203125 11.046875 C 20.148438 11.113281 19.851562 11.238281 19.964844 11.277344 C 19.851562 11.378906 19.636719 11.097656 19.425781 11.105469 C 19.328125 11.117188 19.523438 11.378906 19.246094 11.335938 C 19.480469 11.605469 20.011719 11.59375 19.964844 12.136719 C 19.742188 12.09375 19.699219 12.226562 19.722656 12.421875 C 19.554688 12.335938 19.328125 12.304688 19.183594 12.191406 C 18.925781 12.273438 19.160156 12.507812 18.824219 12.363281 C 19.007812 12.628906 19.445312 12.648438 19.722656 12.820312 C 19.675781 13.019531 19.835938 13.0625 19.722656 13.164062 C 19.609375 13.273438 19.574219 13.171875 19.425781 13.164062 C 19.449219 13.273438 19.34375 13.511719 19.542969 13.453125 C 19.269531 13.558594 18.996094 13.257812 18.703125 13.28125 C 18.355469 13.304688 18.316406 13.558594 17.984375 13.625 C 17.78125 13.148438 17.628906 12.796875 17.746094 12.25 C 17.980469 12.566406 17.785156 11.960938 17.863281 11.449219 C 17.917969 11.105469 18.003906 10.675781 18.042969 10.53125 C 18.046875 10.523438 18.152344 10.539062 18.164062 10.53125 C 18.164062 10.476562 18.089844 10.488281 18.042969 10.476562 C 18.289062 9.703125 18.566406 8.25 18.585938 7.269531 C 18.535156 7.734375 18.214844 8.292969 18.226562 8.988281 C 18.035156 8.730469 18.265625 8.269531 18.34375 7.84375 C 18.402344 7.542969 18.328125 7.21875 18.523438 7.042969 C 18.6875 7 18.644531 7.15625 18.765625 7.15625 C 18.828125 6.921875 18.558594 7.007812 18.523438 6.871094 C 18.570312 6.53125 18.695312 6.269531 18.703125 5.898438 C 18.792969 5.910156 18.726562 6.066406 18.824219 6.070312 C 18.785156 5.878906 18.777344 5.285156 18.882812 4.925781 C 18.90625 4.828125 18.835938 4.816406 18.765625 4.808594 C 18.898438 4.609375 19.128906 4.339844 19.003906 4.066406 C 19.394531 4.132812 18.921875 4.503906 19.066406 4.867188 C 19.214844 4.574219 19.242188 4.160156 19.304688 3.78125 C 19.078125 3.734375 19.261719 4.082031 19.003906 4.007812 C 19.125 3.804688 18.785156 3.632812 19.003906 3.265625 C 18.828125 3.207031 18.851562 2.953125 18.644531 2.921875 C 18.652344 2.855469 18.753906 2.871094 18.824219 2.863281 C 18.582031 2.710938 18.320312 2.484375 18.105469 2.464844 C 18.367188 2.320312 17.921875 2.359375 18.105469 2.121094 C 18.042969 2.023438 17.851562 2.058594 17.746094 2.003906 C 17.777344 1.71875 17.324219 1.675781 17.503906 1.433594 C 17.398438 1.425781 17.378906 1.503906 17.265625 1.488281 C 17.046875 1.089844 16.359375 1.132812 15.945312 0.917969 C 15.765625 0.996094 15.679688 1.160156 15.644531 1.375 C 15.398438 1.65625 14.746094 1.898438 14.445312 1.488281 C 14.449219 1.265625 14.550781 1.132812 14.625 0.976562 C 14.789062 1.027344 14.542969 1.15625 14.625 1.320312 C 14.847656 0.941406 15.199219 0.683594 15.464844 0.34375 C 15.269531 0.441406 15.335938 0.429688 15.046875 0.402344 C 16.003906 0.046875 16.972656 0.605469 17.746094 0.804688 C 17.265625 0.917969 16.664062 0.652344 16.003906 0.746094 C 15.917969 0.964844 16.273438 0.757812 16.183594 0.976562 C 16.660156 0.882812 17.121094 1.023438 17.683594 1.148438 C 18.058594 1.230469 18.253906 1.53125 18.585938 1.660156 C 18.859375 1.769531 19.164062 1.855469 19.425781 2.0625 C 19.839844 2.394531 20.171875 3.152344 20.503906 3.722656 C 20.644531 3.960938 20.714844 4.457031 20.863281 4.808594 C 20.707031 4.9375 20.523438 4.605469 20.324219 4.582031 C 20.625 4.863281 21.039062 5.042969 21.285156 5.382812 " fill-opacity="1" fill-rule="nonzero"/></g><path fill="#ffffff" d="M 19.246094 2.863281 C 19.40625 2.976562 19.324219 3.382812 19.304688 3.609375 C 19.167969 3.472656 19.285156 3.09375 19.246094 2.863281 " fill-opacity="1" fill-rule="nonzero"/><path fill="#ffffff" d="M 19.003906 4.980469 C 19.121094 4.957031 19.09375 5.242188 18.945312 5.152344 L 18.945312 5.039062 C 18.996094 5.046875 19 5.015625 19.003906 4.980469 " fill-opacity="1" fill-rule="nonzero"/><path fill="#ffffff" d="M 18.882812 6.410156 L 18.882812 6.527344 L 18.703125 6.527344 L 18.703125 6.410156 L 18.882812 6.410156 " fill-opacity="1" fill-rule="nonzero"/><path fill="#ffffff" d="M 18.644531 6.8125 C 18.800781 6.617188 18.789062 7.105469 18.644531 6.8125 " fill-opacity="1" fill-rule="nonzero"/><g clip-path="url(#97ae92b631)"><path fill="#ffffff" d="M 8.925781 13.394531 C 8.941406 13.316406 8.890625 13.171875 8.867188 13.28125 C 8.851562 13.359375 8.902344 13.503906 8.925781 13.394531 Z M 10.605469 9.902344 C 10.621094 9.8125 10.835938 9.636719 10.667969 9.558594 C 10.691406 9.6875 10.480469 9.871094 10.605469 9.902344 Z M 10.785156 12.535156 C 10.800781 12.457031 10.75 12.3125 10.726562 12.421875 C 10.710938 12.5 10.761719 12.644531 10.785156 12.535156 Z M 10.847656 8.988281 C 10.90625 8.832031 11.054688 8.464844 10.964844 8.359375 C 10.886719 8.480469 10.652344 8.976562 10.847656 8.988281 Z M 11.386719 5.839844 C 11.382812 6.023438 11.597656 6.515625 11.566406 6.355469 C 11.460938 6.226562 11.589844 5.875 11.386719 5.839844 Z M 11.746094 1.832031 C 11.664062 1.835938 11.613281 1.804688 11.566406 1.777344 C 11.589844 1.875 11.476562 1.921875 11.566406 1.949219 C 11.582031 1.828125 11.730469 2.03125 11.746094 1.832031 Z M 11.566406 5.4375 C 11.785156 5.417969 11.792969 4.894531 11.746094 4.808594 C 11.558594 4.898438 11.644531 5.246094 11.566406 5.4375 Z M 11.925781 4.351562 C 11.84375 4.109375 12.167969 3.746094 11.925781 3.722656 C 12.007812 4 11.679688 4.269531 11.925781 4.351562 Z M 12.046875 3.148438 C 12.210938 3.242188 12.210938 2.902344 12.105469 2.921875 C 12.109375 3.019531 12.09375 3.097656 12.046875 3.148438 Z M 12.226562 1.089844 C 12.195312 1.007812 12.460938 0.949219 12.285156 0.917969 C 12.292969 0.976562 12.027344 1.03125 12.226562 1.089844 Z M 11.6875 15.167969 C 11.90625 15.316406 12.15625 15.53125 12.40625 15.453125 C 12.328125 15.261719 12.058594 15.246094 11.867188 15.109375 C 11.472656 14.839844 10.964844 14.34375 10.785156 13.851562 C 10.730469 13.691406 10.757812 13.261719 10.667969 13.335938 C 10.648438 13.660156 10.816406 13.886719 10.605469 14.082031 C 10.859375 14.558594 11.261719 14.886719 11.6875 15.167969 Z M 12.347656 1.492188 C 12.355469 1.421875 12.453125 1.359375 12.347656 1.320312 C 12.335938 1.386719 12.238281 1.449219 12.347656 1.492188 Z M 12.464844 19.0625 C 12.480469 18.984375 12.429688 18.835938 12.40625 18.945312 C 12.390625 19.023438 12.441406 19.167969 12.464844 19.0625 Z M 12.046875 7.957031 C 12.140625 8.15625 12.535156 8.304688 12.765625 8.1875 C 12.726562 7.917969 12.328125 7.996094 12.046875 7.957031 Z M 12.527344 1.492188 C 12.574219 1.285156 12.84375 0.992188 12.765625 0.859375 C 12.746094 1.09375 12.351562 1.265625 12.527344 1.492188 Z M 12.347656 10.074219 C 12.433594 10.429688 12.757812 10.078125 13.066406 10.304688 C 12.960938 10.097656 12.609375 10.125 12.347656 10.074219 Z M 12.886719 6.984375 C 12.933594 6.972656 12.957031 6.9375 12.945312 6.871094 C 12.726562 6.808594 12.550781 6.796875 12.226562 6.753906 C 12.234375 6.839844 12.203125 6.964844 12.285156 6.984375 C 12.4375 6.953125 12.8125 7.144531 13.003906 7.042969 C 12.960938 7.027344 12.886719 7.039062 12.886719 6.984375 Z M 13.066406 15.914062 L 13.066406 15.796875 L 12.945312 15.796875 L 12.945312 15.914062 Z M 13.1875 5.839844 C 13.078125 5.8125 13.210938 5.777344 13.246094 5.726562 C 13.152344 5.71875 13.039062 5.734375 13.066406 5.609375 C 12.757812 5.710938 12.832031 5.453125 12.40625 5.609375 C 12.480469 5.621094 12.441406 5.675781 12.40625 5.726562 C 12.636719 5.753906 12.933594 6.023438 13.1875 5.839844 Z M 13.246094 22.78125 C 13.253906 22.738281 13.226562 22.445312 13.1875 22.609375 C 13.132812 22.828125 13.21875 22.894531 13.246094 22.78125 Z M 13.304688 1.488281 C 13.289062 1.289062 13.667969 1.101562 13.367188 0.976562 C 13.375 1.140625 13.15625 1.378906 13.304688 1.488281 Z M 12.644531 4.582031 C 12.898438 4.550781 13.628906 4.890625 13.484375 4.523438 C 13.453125 4.816406 13.238281 4.511719 13.246094 4.410156 C 13.121094 4.441406 12.851562 4.339844 12.824219 4.464844 C 13.054688 4.566406 12.59375 4.460938 12.644531 4.582031 Z M 12.585938 15.511719 C 12.941406 15.613281 13.371094 15.941406 13.726562 15.855469 C 13.292969 15.828125 12.90625 15.457031 12.585938 15.511719 Z M 13.664062 3.492188 L 13.664062 3.265625 C 13.472656 3.242188 13.296875 3.410156 13.125 3.320312 C 13.160156 3.320312 13.195312 3.273438 13.125 3.265625 C 13.105469 3.339844 13.039062 3.375 13.066406 3.492188 Z M 13.84375 2.121094 C 13.835938 2.195312 13.941406 2.433594 13.964844 2.292969 C 13.859375 2.175781 14.011719 2.179688 13.90625 2.0625 L 13.664062 2.0625 C 13.734375 2.242188 13.570312 2.203125 13.546875 2.292969 C 13.660156 2.277344 13.679688 2.355469 13.785156 2.347656 C 13.796875 2.261719 13.765625 2.136719 13.84375 2.121094 Z M 13.964844 19.804688 C 13.953125 19.875 13.871094 19.921875 14.027344 19.917969 C 13.882812 19.710938 13.917969 19.335938 13.546875 19.347656 C 13.621094 19.605469 13.617188 19.949219 13.964844 19.804688 Z M 14.207031 15.855469 C 14.015625 15.882812 13.992188 15.75 13.785156 15.796875 C 13.710938 15.988281 14.191406 15.9375 14.207031 15.855469 Z M 18.40625 3.949219 C 18.339844 4.28125 18.664062 3.976562 18.40625 3.949219 Z M 9.105469 13.964844 C 9.144531 13.734375 9.390625 14.589844 9.828125 14.652344 C 9.335938 14.664062 9 13.792969 8.566406 13.738281 C 8.558594 13.671875 8.582031 13.636719 8.625 13.621094 C 8.566406 13.542969 8.527344 13.648438 8.445312 13.507812 C 8.523438 12.730469 8.300781 12.484375 8.625 11.964844 C 8.953125 11.976562 8.847656 12.398438 8.867188 12.707031 C 9 12.699219 8.890625 12.464844 8.925781 12.363281 C 9.089844 12.59375 9.046875 12.023438 9.046875 12.019531 C 9.046875 12.019531 9.164062 12.089844 9.167969 12.078125 C 9.179688 11.996094 9.035156 11.765625 9.105469 11.621094 C 9.164062 11.503906 9.296875 11.503906 9.40625 11.332031 C 9.363281 11.203125 9.070312 11.3125 8.925781 11.277344 C 8.910156 11.050781 9.140625 10.71875 8.746094 10.761719 C 8.917969 10.601562 9.121094 10.46875 9.527344 10.53125 C 9.636719 10.542969 9.445312 10.125 9.765625 10.1875 C 9.683594 10.058594 9.347656 10.167969 9.167969 10.132812 C 9.214844 9.789062 9.1875 9.777344 9.105469 9.503906 C 9.367188 9.394531 9.976562 9.359375 9.828125 9.042969 C 9.78125 8.914062 9.488281 9.023438 9.347656 8.988281 C 9.519531 8.726562 9.238281 8.613281 9.347656 8.414062 C 8.824219 8.550781 9.742188 8.1875 10.007812 8.1875 C 10.074219 8.066406 9.96875 7.960938 10.125 7.84375 C 10.105469 7.769531 9.78125 7.890625 9.585938 7.84375 C 9.648438 7.503906 9.472656 7.3125 9.828125 7.097656 C 10.070312 7.132812 10.269531 7.210938 10.246094 7.5 C 10.320312 7.292969 10.140625 6.683594 10.425781 6.527344 C 10.308594 6.4375 10.128906 6.773438 9.828125 6.699219 C 10.035156 6.511719 9.617188 6.367188 9.828125 6.183594 C 9.707031 6.164062 9.640625 6.195312 9.648438 6.296875 C 9.304688 5.871094 10.632812 6.113281 10.605469 5.609375 C 10.597656 5.515625 10.195312 5.515625 10.1875 5.609375 C 10.152344 5.355469 9.816406 5.390625 9.828125 5.09375 C 9.941406 5.101562 9.867188 5.285156 10.007812 5.265625 C 10.03125 5.195312 10.074219 5.101562 10.1875 4.980469 C 10.078125 4.972656 10.058594 5.050781 9.945312 5.039062 C 10.253906 4.792969 10.835938 4.785156 10.847656 4.410156 C 10.546875 4.421875 10.589844 4.433594 10.367188 4.464844 C 10.304688 4.277344 10.035156 4.285156 10.066406 4.007812 C 10.273438 3.839844 10.03125 4.226562 10.246094 4.292969 C 10.144531 4.214844 10.507812 3.855469 10.304688 3.894531 C 10.464844 3.605469 11.089844 3.761719 11.085938 3.320312 C 11.054688 3.238281 10.738281 3.367188 10.605469 3.378906 C 10.601562 3.214844 10.378906 3.136719 10.546875 2.976562 C 10.390625 2.980469 10.460938 3.246094 10.304688 3.09375 C 10.304688 2.695312 10.773438 2.730469 11.027344 2.578125 C 11.1875 2.480469 11.207031 2.335938 11.386719 2.289062 C 11.40625 1.808594 11.351562 1.796875 11.445312 1.433594 C 11.578125 1.421875 11.472656 1.636719 11.507812 1.71875 C 11.761719 1.597656 11.566406 1.292969 11.507812 1.261719 C 11.640625 1.125 11.6875 1.332031 11.746094 1.433594 C 11.914062 1.179688 12.089844 0.945312 12.105469 0.6875 C 11.96875 0.839844 11.835938 1 11.746094 1.203125 C 11.65625 0.773438 12.222656 0.476562 12.707031 0.402344 C 12.605469 0.554688 12.453125 0.65625 12.347656 0.804688 C 12.707031 0.730469 13.023438 0.113281 13.785156 0.230469 C 13.617188 0.375 13.429688 0.5 13.304688 0.6875 C 13.75 0.386719 14.269531 0.15625 15.046875 0.171875 C 14.921875 0.234375 14.730469 0.382812 14.625 0.289062 C 14.566406 0.332031 14.648438 0.488281 14.503906 0.574219 C 14.519531 0.722656 14.609375 0.496094 14.746094 0.574219 C 14.90625 0.472656 14.59375 0.722656 14.445312 0.6875 C 14.566406 0.820312 14.363281 0.992188 14.265625 1.089844 C 14.328125 1.46875 14.199219 1.816406 14.265625 2.289062 C 14.277344 2.335938 14.324219 2.347656 14.324219 2.40625 C 16.066406 2.515625 17.289062 3.128906 18.523438 3.722656 C 18.632812 3.925781 18.566406 4.1875 18.464844 4.351562 C 17.117188 4.085938 15.921875 3.195312 14.144531 3.148438 C 13.984375 3.167969 14.039062 3.390625 13.90625 3.433594 C 14.085938 3.570312 14.625 3.664062 14.867188 3.550781 C 15.992188 3.980469 17.234375 4.304688 18.285156 4.808594 C 18.277344 4.910156 18.359375 4.929688 18.34375 5.039062 C 18.347656 5.183594 18.300781 5.109375 18.226562 5.09375 C 18.109375 5.175781 18.136719 5.390625 18.042969 5.496094 C 16.640625 5.082031 15.519531 4.355469 13.84375 4.351562 C 13.757812 4.398438 13.757812 4.535156 13.726562 4.636719 C 13.890625 4.765625 14.417969 4.898438 14.566406 4.695312 C 14.535156 4.8125 14.757812 4.796875 14.867188 4.921875 C 16.101562 5.136719 17.113281 5.5625 18.105469 6.011719 C 18.148438 6.316406 18.058594 6.5 17.984375 6.699219 C 17.699219 6.640625 17.132812 6.4375 16.546875 6.238281 C 16.082031 6.082031 15.496094 5.960938 15.285156 5.839844 C 15.273438 5.832031 15.363281 5.75 15.34375 5.726562 C 15.136719 5.894531 15.027344 5.605469 14.746094 5.667969 C 14.777344 5.621094 14.808594 5.574219 14.804688 5.496094 C 14.339844 5.851562 13.589844 5.132812 13.425781 5.839844 C 13.660156 5.917969 13.941406 6.113281 14.207031 6.011719 C 14.316406 5.96875 14.28125 5.585938 14.324219 5.953125 C 15.320312 6.304688 16.847656 6.632812 17.863281 7.15625 C 17.914062 7.4375 17.882812 7.523438 17.804688 7.785156 C 16.414062 7.636719 14.625 6.605469 13.304688 6.753906 C 13.179688 6.769531 13.289062 7.007812 13.1875 7.039062 C 13.417969 7.179688 13.890625 7.273438 14.207031 7.15625 C 14.171875 7.28125 14.320312 7.238281 14.324219 7.328125 C 14.941406 7.417969 15.546875 7.601562 16.125 7.785156 C 16.679688 7.964844 17.316406 8.074219 17.683594 8.472656 C 17.628906 8.667969 17.59375 8.882812 17.503906 9.042969 C 17.402344 8.890625 17.214844 9.015625 17.085938 8.988281 C 16.902344 8.945312 16.703125 8.828125 16.484375 8.757812 C 15.433594 8.421875 14.441406 8.011719 13.007812 7.957031 C 12.917969 8.003906 12.917969 8.140625 12.886719 8.242188 C 12.996094 8.503906 13.554688 8.328125 13.785156 8.472656 C 13.902344 8.464844 13.714844 8.28125 13.785156 8.128906 C 13.917969 8.285156 13.925781 8.394531 13.964844 8.527344 C 15.21875 8.765625 16.382812 9.085938 17.386719 9.558594 C 17.457031 9.738281 17.371094 10.019531 17.265625 10.1875 C 15.792969 10.046875 14.183594 8.996094 12.464844 9.273438 C 12.238281 9.152344 12.183594 9.171875 11.804688 9.160156 C 12.078125 9.246094 11.882812 9.5625 12.464844 9.503906 C 12.613281 9.445312 12.347656 9.25 12.644531 9.273438 C 12.664062 9.40625 12.636719 9.492188 12.585938 9.558594 C 14.285156 9.828125 15.90625 10.167969 17.203125 10.816406 C 17.15625 11.074219 17.105469 11.332031 16.90625 11.449219 C 16.816406 11.421875 16.910156 11.398438 16.90625 11.332031 C 15.960938 11.316406 14.699219 10.667969 13.484375 10.53125 C 13.40625 10.570312 13.375 10.65625 13.367188 10.761719 C 13.289062 10.746094 13.304688 10.648438 13.367188 10.648438 C 13.09375 10.285156 12.167969 10.328125 11.925781 10.53125 C 11.910156 10.625 11.984375 10.628906 11.984375 10.703125 C 12.121094 10.71875 12.210938 10.691406 12.226562 10.589844 C 12.171875 10.847656 13.074219 11.003906 13.304688 10.816406 C 13.375 10.902344 13.457031 10.980469 13.546875 11.046875 C 14.761719 11.238281 15.839844 11.566406 16.90625 11.90625 C 17.003906 12.144531 16.863281 12.464844 16.664062 12.59375 C 16.59375 12.550781 16.957031 12.222656 16.726562 12.019531 C 16.78125 12.117188 16.558594 12.527344 16.546875 12.535156 C 15.5 12.519531 14.308594 11.84375 13.246094 11.847656 C 12.867188 11.679688 12.007812 11.476562 11.566406 11.734375 C 11.636719 11.808594 11.890625 11.925781 11.566406 11.90625 C 11.851562 12.222656 11.9375 12.441406 11.804688 12.9375 C 11.671875 12.910156 11.804688 12.632812 11.6875 12.59375 C 11.660156 12.660156 11.636719 12.875 11.566406 13.050781 C 11.75 13.304688 11.988281 13.714844 11.867188 14.082031 C 11.984375 13.886719 11.96875 14.296875 12.097656 14.527344 C 12.027344 14.445312 11.945312 14.363281 11.867188 14.367188 C 11.964844 14.25 11.753906 14.171875 11.699219 14.015625 C 11.796875 14.621094 12.445312 15.101562 13.066406 15.339844 C 12.921875 15.132812 12.65625 15.042969 12.464844 14.882812 C 13.144531 15.113281 14.316406 16.191406 15.34375 15.570312 C 15.203125 15.464844 15.125 15.707031 14.925781 15.453125 C 14.886719 15.578125 14.683594 15.542969 14.632812 15.65625 C 14.65625 15.476562 13.976562 15.480469 14.085938 15.28125 C 14 15.277344 13.914062 15.273438 13.90625 15.339844 C 13.734375 15.105469 12.769531 14.78125 12.527344 14.425781 C 12.457031 14.414062 12.417969 14.4375 12.40625 14.480469 C 12.210938 14.378906 12.476562 14.25 12.527344 14.195312 C 12.355469 14.027344 12.449219 14.367188 12.226562 14.308594 C 11.933594 13.664062 11.949219 13.097656 12.347656 12.535156 C 12.15625 12.582031 12.097656 12.753906 12.046875 12.9375 C 11.835938 12.921875 12.195312 12.722656 11.984375 12.707031 C 12.5 12.027344 13.328125 12.808594 13.125 13.679688 C 13.253906 13.433594 13.257812 13.574219 13.1875 13.792969 C 13.355469 13.871094 13.191406 13.75 13.246094 13.964844 C 13.382812 14.527344 14.257812 15 14.925781 15.226562 C 15.082031 15.277344 15.25 15.230469 15.40625 15.28125 C 15.550781 15.328125 15.664062 15.472656 15.765625 15.511719 C 15.832031 15.539062 15.992188 15.382812 15.886719 15.570312 C 16.050781 15.535156 16.136719 15.425781 16.304688 15.398438 C 16.207031 15.550781 16.050781 15.648438 15.945312 15.796875 C 16.246094 15.96875 16.5625 16.121094 17.023438 16.140625 C 16.484375 16.234375 15.503906 16.257812 15.046875 16.082031 C 14.914062 16.09375 14.917969 16.226562 14.925781 16.371094 C 14.914062 16.628906 14.816406 15.703125 14.570312 16.246094 C 14.617188 16.160156 14.589844 16.527344 14.566406 16.597656 C 14.40625 17.070312 14.128906 18.351562 14.027344 19.175781 C 14.007812 19.320312 13.953125 19.414062 13.964844 19.515625 C 14.046875 20.117188 14.425781 20.019531 14.625 20.375 L 15.105469 20.375 C 13.941406 20.351562 13.859375 18.679688 14.503906 18.03125 C 14.335938 17.246094 15.722656 17.222656 16.183594 17.628906 C 15.925781 17.753906 16.335938 17.890625 16.425781 18.03125 C 16.082031 17.816406 15.585938 17.871094 15.285156 17.6875 C 15.382812 17.585938 15.554688 17.5625 15.765625 17.570312 C 15.253906 17.3125 14.328125 18.046875 14.324219 18.714844 C 14.441406 18.691406 14.371094 18.496094 14.566406 18.542969 C 14.339844 18.964844 14.886719 19.105469 14.867188 19.515625 C 14.578125 19.523438 14.582031 19.253906 14.324219 19.230469 C 14.242188 19.960938 14.9375 20.105469 15.644531 20.320312 C 15.488281 20.59375 15.140625 20.621094 14.867188 20.605469 C 14.429688 20.582031 14.183594 20.222656 13.847656 20.203125 C 14.035156 20.289062 14.078125 20.515625 14.265625 20.605469 C 14.394531 21.945312 14.195312 23.480469 14.207031 24.78125 C 14.21875 24.84375 14.324219 24.820312 14.324219 24.898438 C 14.210938 25.070312 14.394531 25.363281 14.207031 25.355469 C 13.917969 25.34375 14.25 25.152344 14.207031 25.011719 C 14.097656 23.824219 13.902344 22.582031 13.90625 21.234375 C 13.90625 21.09375 13.988281 20.980469 13.964844 20.832031 C 13.898438 20.425781 13.601562 20.121094 13.425781 19.746094 C 13.191406 19.242188 13.398438 18.371094 13.546875 17.914062 C 13.503906 17.851562 13.214844 17.859375 13.125 18.03125 C 12.945312 17.992188 13.183594 17.90625 13.125 17.800781 C 12.929688 17.722656 12.679688 17.9375 12.644531 17.6875 C 12.507812 17.839844 12.410156 18.03125 12.40625 18.316406 C 12.507812 18.320312 12.8125 18.351562 13.066406 18.371094 C 13.03125 18.492188 12.972656 18.496094 12.886719 18.429688 C 12.855469 18.742188 13.148438 18.992188 13.007812 19.230469 C 13.253906 19.125 13.066406 18.601562 13.1875 18.371094 C 13.171875 18.332031 13.105469 18.171875 13.046875 18.199219 C 13.246094 17.945312 13.316406 18.695312 13.246094 19.175781 C 13.222656 19.320312 13.09375 19.425781 13.066406 19.574219 C 13 19.902344 13.277344 20.382812 13.007812 20.203125 C 13.039062 20.347656 13.152344 20.40625 13.246094 20.492188 C 13.21875 21.152344 13.390625 21.457031 13.1875 22.035156 C 13.144531 22.191406 13.46875 21.996094 13.425781 22.148438 C 13.484375 22.308594 13.308594 22.203125 13.304688 22.207031 C 13.253906 22.402344 13.371094 22.660156 13.367188 22.894531 C 13.363281 23.007812 13.25 22.980469 13.246094 23.007812 C 13.230469 23.125 13.3125 23.230469 13.304688 23.351562 C 13.292969 23.621094 13.167969 23.886719 13.007812 24.039062 C 12.855469 22.519531 12.867188 20.960938 12.527344 19.175781 C 12.445312 19.191406 12.476562 19.316406 12.464844 19.402344 C 12.34375 19.246094 12.242188 19.082031 12.226562 19.058594 C 12.199219 19.023438 12.242188 18.960938 12.226562 18.945312 C 12.117188 18.835938 11.609375 18.960938 11.804688 18.199219 C 11.714844 18.363281 11.699219 18.597656 11.6875 18.832031 C 11.40625 18.550781 11.675781 17.992188 11.746094 17.6875 C 11.882812 17.726562 11.769531 18.007812 11.804688 18.144531 C 12.007812 17.464844 12.027344 16.613281 12.167969 15.910156 C 12.183594 15.816406 12.195312 15.761719 12.285156 15.738281 C 11.257812 15.210938 10.167969 14.746094 9.828125 13.566406 C 9.742188 13.808594 9.78125 13.863281 9.765625 13.964844 C 9.785156 14.066406 9.976562 13.890625 9.945312 14.136719 C 10.066406 14.191406 9.960938 14.195312 9.90625 14.140625 C 9.894531 14.101562 9.890625 14.0625 9.886719 14.023438 C 9.859375 14.074219 9.875 14.113281 9.90625 14.140625 C 10.078125 14.8125 11.320312 15.269531 11.804688 15.625 C 10.742188 15.132812 9.5625 14.75 9.167969 13.621094 C 9.078125 13.621094 9.078125 13.960938 9.046875 13.679688 C 8.882812 13.730469 9.105469 13.878906 9.105469 13.964844 Z M 20.996094 4 C 20.988281 3.964844 20.984375 3.929688 20.984375 3.894531 C 20.980469 3.933594 20.984375 3.96875 20.996094 4 " fill-opacity="1" fill-rule="nonzero"/></g><path fill="#ffffff" d="M 18.40625 3.949219 C 18.664062 3.976562 18.34375 4.28125 18.40625 3.949219 " fill-opacity="1" fill-rule="nonzero"/><path fill="#ffffff" d="M 18.285156 5.210938 C 18.351562 5.222656 18.277344 5.582031 18.105469 5.554688 C 18.121094 5.398438 18.183594 5.285156 18.285156 5.210938 " fill-opacity="1" fill-rule="nonzero"/><path fill="#ffffff" d="M 18.042969 9.160156 C 18.15625 9.269531 18.097656 9.703125 17.925781 9.730469 C 17.886719 9.46875 18.058594 9.402344 18.042969 9.160156 " fill-opacity="1" fill-rule="nonzero"/><path fill="#ffffff" d="M 17.925781 27.128906 C 18.144531 27.117188 18.058594 27.683594 17.984375 27.757812 C 17.605469 28.257812 16.53125 28.367188 15.765625 28.160156 C 15.886719 27.949219 16.175781 27.878906 16.425781 27.757812 C 16.636719 27.660156 16.871094 27.488281 17.085938 27.414062 C 17.371094 27.320312 17.769531 27.4375 17.925781 27.128906 " fill-opacity="1" fill-rule="nonzero"/><path fill="#ffffff" d="M 17.984375 9.84375 C 17.960938 10.320312 17.875 10.820312 17.746094 11.332031 C 17.660156 10.917969 17.9375 10.210938 17.867188 9.789062 C 17.933594 9.777344 17.972656 9.800781 17.984375 9.84375 " fill-opacity="1" fill-rule="nonzero"/><path fill="#ffffff" d="M 17.625 11.449219 C 17.664062 11.289062 17.695312 11.582031 17.683594 11.621094 C 17.65625 11.734375 17.574219 11.667969 17.625 11.449219 " fill-opacity="1" fill-rule="nonzero"/><path fill="#ffffff" d="M 17.683594 9.558594 C 17.675781 9.625 17.625 9.589844 17.625 9.558594 C 17.566406 9.5625 17.578125 9.628906 17.566406 9.675781 C 17.5 9.660156 17.523438 9.558594 17.445312 9.558594 C 17.464844 9.484375 17.550781 9.46875 17.566406 9.386719 C 17.578125 9.445312 17.617188 9.542969 17.683594 9.558594 " fill-opacity="1" fill-rule="nonzero"/><path fill="#ffffff" d="M 17.566406 9.789062 C 17.746094 9.824219 17.507812 9.910156 17.566406 10.015625 C 17.414062 10.007812 17.546875 9.824219 17.566406 9.789062 " fill-opacity="1" fill-rule="nonzero"/><path fill="#ffffff" d="M 17.558594 9.347656 C 17.558594 9.351562 17.5625 9.363281 17.566406 9.386719 C 17.558594 9.367188 17.558594 9.351562 17.558594 9.347656 " fill-opacity="1" fill-rule="nonzero"/><path fill="#ffffff" d="M 16.964844 24.269531 C 16.988281 24.125 17.199219 24.265625 17.144531 24.382812 C 17.011719 24.414062 17.058594 24.273438 16.964844 24.269531 " fill-opacity="1" fill-rule="nonzero"/><path fill="#ffffff" d="M 16.003906 19.804688 C 15.902344 19.253906 15.53125 18.960938 15.285156 18.546875 C 15.273438 18.476562 15.21875 18.507812 15.164062 18.546875 C 14.949219 19.210938 15.167969 20.148438 16.003906 19.804688 Z M 16.066406 17.914062 C 16.402344 18.125 16.609375 18.644531 16.425781 19.175781 C 16.527344 18.546875 16.054688 17.777344 15.40625 18.203125 C 15.679688 18.628906 15.945312 19.058594 16.246094 19.460938 C 16.089844 19.640625 16.183594 19.703125 16.246094 19.917969 C 15.980469 19.960938 15.882812 19.996094 15.585938 20.089844 C 14.816406 19.945312 14.859375 18.621094 15.34375 18.203125 C 15.363281 17.957031 15.0625 18.011719 15.046875 17.800781 C 15.097656 17.777344 15.152344 17.75 15.164062 17.6875 C 15.386719 17.722656 15.464844 17.898438 15.585938 18.03125 C 15.71875 17.964844 15.832031 17.882812 16.066406 17.914062 " fill-opacity="1" fill-rule="nonzero"/><path fill="#ffffff" d="M 16.246094 0.574219 C 16.273438 0.488281 16.320312 0.597656 16.425781 0.574219 C 16.410156 0.636719 16.304688 0.613281 16.304688 0.6875 C 16.042969 0.617188 16.039062 0.671875 15.824219 0.746094 C 15.898438 0.429688 15.585938 0.757812 15.585938 0.460938 C 15.871094 0.484375 15.839844 0.484375 16.125 0.460938 C 16.003906 0.578125 16.148438 0.574219 16.246094 0.632812 C 16.3125 0.621094 16.277344 0.574219 16.246094 0.574219 " fill-opacity="1" fill-rule="nonzero"/><path fill="#ffffff" d="M 13.484375 27.015625 C 13.515625 26.71875 13.109375 26.601562 13.246094 26.386719 L 13.125 26.386719 C 13.089844 26.390625 13.054688 26.394531 13.066406 26.441406 C 13.15625 26.464844 13.074219 26.511719 13.007812 26.441406 L 13.007812 26.671875 C 13.269531 26.714844 12.957031 26.558594 13.125 26.558594 C 13.195312 26.566406 13.191406 26.648438 13.1875 26.730469 C 13.113281 26.738281 13.015625 26.71875 13.007812 26.785156 C 13.136719 26.871094 13.144531 27.074219 13.367188 27.074219 C 13.378906 27.027344 13.417969 27.007812 13.484375 27.015625 Z M 13.246094 27.128906 C 13.246094 27.285156 13.527344 27.464844 13.605469 27.359375 C 13.539062 27.347656 13.511719 27.296875 13.484375 27.242188 C 13.519531 27.242188 13.554688 27.199219 13.484375 27.1875 C 13.46875 27.320312 13.324219 27.121094 13.246094 27.128906 Z M 13.484375 26.386719 C 13.429688 26.484375 13.707031 26.367188 13.664062 26.328125 C 13.613281 26.28125 13.496094 26.371094 13.484375 26.386719 Z M 13.605469 26.15625 C 13.625 26.078125 13.691406 26.046875 13.664062 25.925781 C 13.472656 25.878906 13.4375 25.976562 13.367188 26.042969 C 13.367188 25.757812 13.324219 25.957031 13.246094 25.984375 C 13.257812 25.980469 13.246094 25.789062 13.1875 25.8125 C 13.144531 25.832031 13.222656 26.007812 13.125 25.984375 C 13.007812 25.960938 13.046875 25.878906 12.945312 25.8125 C 12.714844 26.085938 13.300781 25.984375 13.367188 26.15625 C 13.328125 26.160156 13.296875 26.164062 13.304688 26.214844 C 13.535156 26.261719 13.375 25.9375 13.605469 25.984375 C 13.597656 26.050781 13.5 26.113281 13.605469 26.15625 Z M 13.84375 27.074219 C 13.601562 26.871094 13.703125 27.257812 13.84375 27.074219 Z M 13.84375 26.097656 C 13.882812 26.117188 14.078125 26.242188 14.085938 26.097656 C 13.871094 26.1875 14.050781 25.90625 13.90625 25.925781 C 13.902344 26 13.828125 26.007812 13.84375 26.097656 C 13.84375 26.121094 13.734375 25.917969 13.726562 25.925781 C 13.632812 26.015625 13.816406 26.257812 13.84375 26.097656 Z M 13.964844 27.414062 C 14.050781 27.480469 14.113281 27.476562 14.144531 27.359375 C 14.070312 27.355469 14.0625 27.285156 13.964844 27.300781 Z M 14.144531 26.5 C 14.21875 26.308594 13.738281 26.359375 13.726562 26.441406 C 13.957031 26.519531 13.960938 26.417969 14.144531 26.5 Z M 13.964844 26.613281 C 14.042969 27 14.453125 26.484375 14.144531 26.730469 C 14.128906 26.648438 14.015625 26.664062 13.964844 26.613281 Z M 14.265625 27.1875 L 14.265625 27.074219 L 14.085938 27.074219 L 14.085938 27.1875 Z M 14.324219 26.84375 C 14.144531 27.035156 14.546875 27.015625 14.324219 26.84375 Z M 14.445312 27.300781 C 14.28125 27.296875 14.324219 27.398438 14.207031 27.300781 C 14.207031 27.378906 14.175781 27.425781 14.144531 27.472656 C 14.296875 27.464844 14.355469 27.367188 14.445312 27.300781 Z M 14.566406 26.785156 C 14.554688 26.71875 14.574219 26.625 14.503906 26.613281 C 14.324219 26.765625 14.40625 26.742188 14.566406 26.785156 Z M 14.746094 27.074219 C 14.621094 27.105469 14.351562 27 14.324219 27.128906 C 14.5 27.191406 14.613281 27.203125 14.746094 27.074219 Z M 14.746094 26.957031 L 14.746094 26.84375 L 14.625 26.84375 L 14.625 26.957031 Z M 14.683594 26.730469 C 14.792969 26.714844 14.984375 26.785156 14.925781 26.613281 C 14.8125 26.621094 14.726562 26.652344 14.683594 26.730469 Z M 14.984375 27.015625 C 14.675781 27.152344 15.191406 27.164062 14.984375 27.015625 Z M 15.164062 27.359375 C 15.078125 27.230469 15.019531 27.429688 14.984375 27.300781 C 15.097656 27.148438 14.804688 27.375 14.746094 27.414062 C 14.820312 27.171875 14.652344 27.503906 14.503906 27.300781 C 14.597656 27.503906 14.300781 27.335938 14.324219 27.472656 C 14.652344 27.480469 14.964844 27.472656 15.164062 27.359375 Z M 14.984375 26.671875 C 15.082031 26.703125 15.457031 26.660156 15.34375 26.5 C 15.296875 26.625 15.035156 26.546875 14.984375 26.671875 Z M 15.464844 27.074219 C 15.476562 26.820312 15.296875 27.097656 15.226562 26.957031 C 15.214844 27.210938 15.394531 26.929688 15.464844 27.074219 Z M 14.984375 26.902344 C 15.351562 26.847656 15.730469 26.808594 15.886719 26.558594 C 15.667969 26.695312 15.164062 26.738281 14.984375 26.902344 Z M 15.585938 27.300781 L 15.585938 27.1875 C 15.523438 27.1875 15.515625 27.140625 15.464844 27.128906 C 15.472656 27.21875 15.457031 27.328125 15.585938 27.300781 Z M 15.464844 26.558594 C 15.617188 26.550781 15.773438 26.546875 15.765625 26.386719 C 15.660156 26.4375 15.441406 26.382812 15.464844 26.558594 Z M 15.523438 26.957031 C 15.726562 26.996094 16.050781 26.855469 15.886719 26.730469 C 15.820312 26.855469 15.589844 26.828125 15.523438 26.957031 Z M 15.886719 26.15625 C 15.8125 26.363281 15.980469 26.628906 16.125 26.441406 C 15.722656 26.398438 16.195312 25.816406 15.945312 25.585938 C 15.816406 25.707031 15.648438 25.800781 15.523438 25.640625 C 15.539062 25.902344 15.195312 25.824219 15.046875 25.925781 C 15.039062 25.835938 15.054688 25.730469 14.925781 25.757812 C 15.109375 26.050781 14.613281 25.972656 14.324219 25.984375 L 14.324219 26.5 C 14.960938 26.492188 15.46875 26.371094 15.886719 26.15625 Z M 16.003906 25.527344 C 16.496094 25.980469 16.242188 26.671875 15.945312 27.128906 C 15.753906 27.164062 15.761719 27.023438 15.644531 27.128906 C 15.890625 27.363281 15.5 27.320312 15.285156 27.414062 C 15.300781 27.351562 15.40625 27.375 15.40625 27.300781 C 15.382812 27.210938 15.300781 27.351562 15.285156 27.242188 C 15.175781 27.253906 15.25 27.4375 15.164062 27.472656 C 14.789062 27.515625 14.40625 27.550781 13.964844 27.53125 C 13.976562 27.367188 13.738281 27.398438 13.90625 27.242188 C 13.71875 27.285156 13.828125 27.398438 13.84375 27.53125 C 13.484375 27.398438 12.996094 27.386719 12.886719 27.015625 C 12.964844 27.074219 13.003906 27.167969 13.125 27.1875 C 13.113281 26.914062 12.753906 26.96875 12.824219 26.613281 C 12.875 26.625 12.886719 26.671875 12.945312 26.671875 C 12.84375 26.441406 12.867188 26.445312 12.824219 26.15625 C 12.921875 26.140625 12.929688 26.210938 13.007812 26.214844 C 13.046875 25.984375 12.753906 26.074219 12.765625 25.871094 C 13.066406 25.847656 12.746094 25.691406 12.765625 25.585938 C 12.949219 25.582031 13 25.707031 13.125 25.757812 C 13.105469 25.605469 12.96875 25.5625 12.824219 25.527344 C 12.914062 25.363281 13.183594 25.636719 13.425781 25.699219 C 13.746094 25.78125 14.308594 25.746094 14.804688 25.757812 C 14.734375 25.832031 14.78125 25.847656 14.804688 25.925781 C 14.886719 25.910156 14.855469 25.785156 14.867188 25.699219 C 15.332031 25.722656 15.507812 25.472656 16.003906 25.527344 Z M 14.066406 26.894531 C 14.0625 26.894531 14.054688 26.894531 14.050781 26.894531 C 14.054688 26.894531 14.0625 26.894531 14.066406 26.894531 Z M 16.042969 25.53125 C 16.042969 25.53125 16.050781 25.53125 16.054688 25.53125 C 16.050781 25.53125 16.046875 25.53125 16.042969 25.53125 Z M 17.15625 24.378906 L 17.1875 24.382812 L 17.222656 24.386719 L 17.238281 24.390625 C 17.234375 24.390625 17.230469 24.386719 17.222656 24.386719 C 17.210938 24.386719 17.195312 24.382812 17.1875 24.382812 C 17.175781 24.378906 17.164062 24.378906 17.15625 24.378906 Z M 17.097656 24.371094 L 17.128906 24.375 C 17.117188 24.371094 17.105469 24.371094 17.097656 24.371094 " fill-opacity="1" fill-rule="nonzero"/><path fill="#ffffff" d="M 16.125 26.441406 C 15.980469 26.628906 15.8125 26.363281 15.886719 26.15625 C 15.46875 26.371094 14.957031 26.492188 14.324219 26.5 L 14.324219 25.984375 C 14.613281 25.976562 15.109375 26.050781 14.925781 25.757812 C 15.054688 25.730469 15.039062 25.839844 15.046875 25.929688 C 15.195312 25.824219 15.539062 25.902344 15.523438 25.640625 C 15.648438 25.800781 15.816406 25.707031 15.945312 25.585938 C 16.195312 25.816406 15.722656 26.398438 16.125 26.441406 " fill-opacity="1" fill-rule="nonzero"/><path fill="#ffffff" d="M 15.886719 26.730469 C 16.050781 26.855469 15.726562 26.996094 15.523438 26.957031 C 15.589844 26.832031 15.820312 26.859375 15.886719 26.730469 " fill-opacity="1" fill-rule="nonzero"/><path fill="#ffffff" d="M 15.765625 26.386719 C 15.773438 26.546875 15.617188 26.550781 15.464844 26.558594 C 15.445312 26.382812 15.660156 26.4375 15.765625 26.386719 " fill-opacity="1" fill-rule="nonzero"/><path fill="#ffffff" d="M 15.285156 18.542969 C 15.53125 18.960938 15.902344 19.253906 16.003906 19.804688 C 15.167969 20.148438 14.949219 19.210938 15.164062 18.542969 C 15.21875 18.507812 15.273438 18.476562 15.285156 18.542969 " fill-opacity="1" fill-rule="nonzero"/><path fill="#ffffff" d="M 15.644531 28.101562 C 15.953125 28.398438 15.363281 28.371094 15.34375 28.617188 C 15.070312 28.578125 15.125 28.582031 15.40625 28.445312 C 15.335938 28.382812 14.960938 28.515625 14.867188 28.617188 C 14.777344 28.59375 14.890625 28.542969 14.867188 28.445312 L 14.746094 28.445312 C 14.675781 28.457031 14.710938 28.503906 14.746094 28.503906 C 14.734375 28.570312 14.636719 28.550781 14.566406 28.558594 L 14.566406 28.902344 C 14.417969 28.910156 14.277344 28.914062 14.207031 28.847656 C 14.457031 28.726562 14.140625 28.691406 14.265625 28.558594 L 14.144531 28.558594 C 14.109375 28.851562 13.453125 28.632812 13.367188 28.332031 C 13.988281 28.316406 15.132812 28.507812 15.644531 28.101562 " fill-opacity="1" fill-rule="nonzero"/><path fill="#ffffff" d="M 15.285156 25.46875 C 15.160156 25.417969 15.5 25.335938 15.644531 25.355469 C 15.585938 25.449219 15.390625 25.417969 15.285156 25.46875 " fill-opacity="1" fill-rule="nonzero"/><path fill="#ffffff" d="M 15.585938 27.1875 L 15.585938 27.300781 C 15.457031 27.328125 15.472656 27.21875 15.464844 27.128906 C 15.515625 27.140625 15.527344 27.1875 15.585938 27.1875 " fill-opacity="1" fill-rule="nonzero"/><path fill="#ffffff" d="M 15.40625 22.152344 C 15.253906 22.125 15.503906 22.027344 15.585938 22.035156 C 15.542969 22.089844 15.476562 22.121094 15.40625 22.152344 " fill-opacity="1" fill-rule="nonzero"/><path fill="#ffffff" d="M 15.886719 26.558594 C 15.730469 26.808594 15.351562 26.847656 14.984375 26.902344 C 15.164062 26.738281 15.667969 26.695312 15.886719 26.558594 " fill-opacity="1" fill-rule="nonzero"/><path fill="#ffffff" d="M 15.226562 26.957031 C 15.296875 27.097656 15.476562 26.820312 15.464844 27.074219 C 15.394531 26.929688 15.214844 27.210938 15.226562 26.957031 " fill-opacity="1" fill-rule="nonzero"/><path fill="#ffffff" d="M 15.34375 26.5 C 15.457031 26.660156 15.082031 26.703125 14.984375 26.671875 C 15.035156 26.546875 15.296875 26.625 15.34375 26.5 " fill-opacity="1" fill-rule="nonzero"/><path fill="#ffffff" d="M 15.34375 28.617188 C 15.339844 28.636719 15.339844 28.652344 15.347656 28.675781 C 15.28125 28.664062 15.308594 28.621094 15.34375 28.617188 " fill-opacity="1" fill-rule="nonzero"/><path fill="#ffffff" d="M 15.285156 25.757812 L 15.25 25.75 C 15.261719 25.753906 15.273438 25.753906 15.285156 25.757812 " fill-opacity="1" fill-rule="nonzero"/><path fill="#ffffff" d="M 15.25 25.75 L 15.21875 25.746094 C 15.226562 25.746094 15.238281 25.75 15.25 25.75 " fill-opacity="1" fill-rule="nonzero"/><path fill="#ffffff" d="M 15.191406 25.742188 L 15.160156 25.738281 C 15.167969 25.738281 15.179688 25.742188 15.191406 25.742188 " fill-opacity="1" fill-rule="nonzero"/><path fill="#ffffff" d="M 15.164062 0.460938 L 15.164062 0.632812 C 15 0.589844 15.046875 0.746094 14.925781 0.746094 C 14.839844 0.898438 15.03125 0.464844 15.164062 0.460938 " fill-opacity="1" fill-rule="nonzero"/><path fill="#ffffff" d="M 14.984375 27.300781 C 15.019531 27.429688 15.078125 27.230469 15.164062 27.359375 C 14.964844 27.472656 14.652344 27.480469 14.324219 27.472656 C 14.300781 27.335938 14.597656 27.503906 14.507812 27.300781 C 14.652344 27.503906 14.820312 27.175781 14.746094 27.414062 C 14.804688 27.375 15.097656 27.148438 14.984375 27.300781 " fill-opacity="1" fill-rule="nonzero"/><path fill="#ffffff" d="M 14.984375 27.015625 C 15.191406 27.164062 14.675781 27.152344 14.984375 27.015625 " fill-opacity="1" fill-rule="nonzero"/><path fill="#ffffff" d="M 14.925781 26.613281 C 14.984375 26.789062 14.792969 26.714844 14.6875 26.730469 C 14.726562 26.652344 14.8125 26.621094 14.925781 26.613281 " fill-opacity="1" fill-rule="nonzero"/><path fill="#ffffff" d="M 14.746094 26.84375 L 14.746094 26.957031 L 14.625 26.957031 L 14.625 26.84375 L 14.746094 26.84375 " fill-opacity="1" fill-rule="nonzero"/><path fill="#ffffff" d="M 14.324219 27.128906 C 14.351562 27 14.621094 27.105469 14.746094 27.074219 C 14.613281 27.203125 14.5 27.191406 14.324219 27.128906 " fill-opacity="1" fill-rule="nonzero"/><path fill="#ffffff" d="M 14.625 15.683594 C 14.628906 15.675781 14.628906 15.664062 14.632812 15.65625 C 14.632812 15.664062 14.628906 15.675781 14.625 15.683594 " fill-opacity="1" fill-rule="nonzero"/><path fill="#ffffff" d="M 14.507812 26.613281 C 14.578125 26.625 14.554688 26.71875 14.566406 26.785156 C 14.40625 26.742188 14.328125 26.769531 14.507812 26.613281 " fill-opacity="1" fill-rule="nonzero"/><path fill="#ffffff" d="M 14.207031 27.300781 C 14.324219 27.398438 14.28125 27.296875 14.445312 27.300781 C 14.355469 27.367188 14.300781 27.46875 14.144531 27.472656 C 14.179688 27.425781 14.207031 27.378906 14.207031 27.300781 " fill-opacity="1" fill-rule="nonzero"/><path fill="#ffffff" d="M 14.324219 26.84375 C 14.546875 27.015625 14.144531 27.035156 14.324219 26.84375 " fill-opacity="1" fill-rule="nonzero"/><path fill="#ffffff" d="M 14.027344 25.585938 C 14.03125 25.457031 14.28125 25.558594 14.386719 25.527344 C 14.378906 25.652344 14.132812 25.550781 14.027344 25.585938 " fill-opacity="1" fill-rule="nonzero"/><path fill="#ffffff" d="M 14.265625 27.074219 L 14.265625 27.1875 L 14.085938 27.1875 L 14.085938 27.074219 L 14.265625 27.074219 " fill-opacity="1" fill-rule="nonzero"/><path fill="#ffffff" d="M 14.144531 26.730469 C 14.453125 26.488281 14.042969 27 13.964844 26.613281 C 14.015625 26.664062 14.128906 26.648438 14.144531 26.730469 " fill-opacity="1" fill-rule="nonzero"/><path fill="#ffffff" d="M 13.785156 15.796875 C 13.992188 15.75 14.015625 15.882812 14.207031 15.855469 C 14.191406 15.9375 13.710938 15.988281 13.785156 15.796875 " fill-opacity="1" fill-rule="nonzero"/><path fill="#ffffff" d="M 13.726562 26.441406 C 13.742188 26.359375 14.21875 26.308594 14.144531 26.5 C 13.960938 26.417969 13.957031 26.519531 13.726562 26.441406 " fill-opacity="1" fill-rule="nonzero"/><path fill="#ffffff" d="M 14.144531 27.359375 C 14.113281 27.476562 14.050781 27.480469 13.964844 27.414062 L 13.964844 27.300781 C 14.0625 27.285156 14.070312 27.355469 14.144531 27.359375 " fill-opacity="1" fill-rule="nonzero"/><path fill="#ffffff" d="M 13.425781 28.675781 C 13.570312 28.558594 13.824219 28.828125 14.085938 28.789062 C 13.859375 28.980469 13.644531 28.675781 13.425781 28.675781 " fill-opacity="1" fill-rule="nonzero"/><path fill="#ffffff" d="M 14.085938 26.097656 C 14.078125 26.242188 13.882812 26.117188 13.847656 26.097656 C 13.828125 26.007812 13.902344 26 13.90625 25.925781 C 14.050781 25.90625 13.871094 26.1875 14.085938 26.097656 " fill-opacity="1" fill-rule="nonzero"/><path fill="#ffffff" d="M 14.027344 19.917969 C 13.871094 19.921875 13.953125 19.875 13.964844 19.804688 C 13.617188 19.949219 13.621094 19.609375 13.546875 19.347656 C 13.917969 19.335938 13.882812 19.710938 14.027344 19.917969 " fill-opacity="1" fill-rule="nonzero"/><path fill="#ffffff" d="M 13.964844 2.292969 C 13.941406 2.433594 13.835938 2.195312 13.847656 2.121094 C 13.765625 2.136719 13.796875 2.261719 13.785156 2.347656 C 13.679688 2.355469 13.660156 2.277344 13.546875 2.292969 C 13.570312 2.203125 13.734375 2.242188 13.667969 2.0625 L 13.90625 2.0625 C 14.011719 2.179688 13.859375 2.175781 13.964844 2.292969 " fill-opacity="1" fill-rule="nonzero"/><path fill="#ffffff" d="M 13.90625 13.96875 C 13.878906 14.125 13.71875 13.96875 13.785156 13.851562 C 13.851562 13.867188 13.828125 13.964844 13.90625 13.96875 " fill-opacity="1" fill-rule="nonzero"/><path fill="#ffffff" d="M 13.726562 25.929688 C 13.734375 25.917969 13.84375 26.121094 13.847656 26.101562 C 13.820312 26.257812 13.636719 26.015625 13.726562 25.929688 " fill-opacity="1" fill-rule="nonzero"/><path fill="#ffffff" d="M 13.847656 27.074219 C 13.703125 27.257812 13.605469 26.871094 13.847656 27.074219 " fill-opacity="1" fill-rule="nonzero"/><path fill="#ffffff" d="M 13.667969 25.929688 C 13.691406 26.046875 13.625 26.078125 13.605469 26.15625 C 13.5 26.117188 13.597656 26.054688 13.605469 25.984375 C 13.378906 25.9375 13.535156 26.261719 13.304688 26.214844 C 13.296875 26.164062 13.328125 26.160156 13.367188 26.15625 C 13.300781 25.984375 12.71875 26.085938 12.945312 25.8125 C 13.046875 25.878906 13.011719 25.960938 13.125 25.984375 C 13.222656 26.007812 13.144531 25.832031 13.1875 25.8125 C 13.246094 25.789062 13.257812 25.980469 13.246094 25.984375 C 13.324219 25.957031 13.367188 25.757812 13.367188 26.042969 C 13.4375 25.976562 13.476562 25.878906 13.667969 25.929688 " fill-opacity="1" fill-rule="nonzero"/><path fill="#ffffff" d="M 13.667969 26.328125 C 13.707031 26.367188 13.429688 26.484375 13.484375 26.386719 C 13.496094 26.371094 13.613281 26.28125 13.667969 26.328125 " fill-opacity="1" fill-rule="nonzero"/><path fill="#ffffff" d="M 13.667969 3.265625 L 13.667969 3.492188 L 13.066406 3.492188 C 13.042969 3.375 13.109375 3.339844 13.125 3.265625 C 13.195312 3.273438 13.160156 3.320312 13.125 3.320312 C 13.296875 3.410156 13.472656 3.246094 13.667969 3.265625 " fill-opacity="1" fill-rule="nonzero"/><path fill="#ffffff" d="M 13.726562 15.855469 C 13.371094 15.941406 12.941406 15.613281 12.585938 15.511719 C 12.90625 15.457031 13.292969 15.828125 13.726562 15.855469 " fill-opacity="1" fill-rule="nonzero"/><path fill="#ffffff" d="M 13.605469 27.359375 C 13.527344 27.46875 13.246094 27.285156 13.246094 27.128906 C 13.324219 27.121094 13.46875 27.320312 13.484375 27.1875 C 13.554688 27.199219 13.519531 27.246094 13.484375 27.246094 C 13.511719 27.296875 13.539062 27.347656 13.605469 27.359375 " fill-opacity="1" fill-rule="nonzero"/><path fill="#ffffff" d="M 13.367188 23.46875 C 13.398438 23.277344 13.617188 23.773438 13.425781 23.46875 C 13.425781 23.464844 13.367188 23.46875 13.367188 23.46875 " fill-opacity="1" fill-rule="nonzero"/><path fill="#ffffff" d="M 13.367188 24.152344 C 13.222656 23.75 13.660156 24.46875 13.425781 24.152344 C 13.421875 24.148438 13.367188 24.160156 13.367188 24.152344 " fill-opacity="1" fill-rule="nonzero"/><path fill="#ffffff" d="M 13.484375 4.523438 C 13.628906 4.890625 12.898438 4.550781 12.644531 4.582031 C 12.59375 4.460938 13.054688 4.566406 12.824219 4.464844 C 12.851562 4.339844 13.121094 4.441406 13.246094 4.410156 C 13.238281 4.511719 13.453125 4.816406 13.484375 4.523438 " fill-opacity="1" fill-rule="nonzero"/><path fill="#ffffff" d="M 13.246094 27.015625 C 13.589844 27.074219 13.253906 26.636719 13.246094 26.730469 C 13.289062 26.90625 13.289062 26.839844 13.246094 27.015625 Z M 13.246094 26.386719 C 13.109375 26.601562 13.515625 26.71875 13.484375 27.015625 C 13.417969 27.007812 13.378906 27.027344 13.367188 27.074219 C 13.144531 27.074219 13.136719 26.871094 13.007812 26.785156 C 13.015625 26.71875 13.113281 26.738281 13.1875 26.730469 C 13.191406 26.648438 13.195312 26.566406 13.125 26.558594 C 12.957031 26.558594 13.269531 26.714844 13.007812 26.671875 L 13.007812 26.441406 C 13.074219 26.511719 13.15625 26.464844 13.066406 26.441406 C 13.054688 26.394531 13.089844 26.390625 13.125 26.386719 L 13.246094 26.386719 " fill-opacity="1" fill-rule="nonzero"/><path fill="#ffffff" d="M 13.484375 27.875 C 13.234375 27.886719 13.355469 27.542969 13.125 27.53125 C 13.304688 27.363281 13.484375 27.679688 13.484375 27.875 " fill-opacity="1" fill-rule="nonzero"/><path fill="#ffffff" d="M 13.367188 25.296875 C 13.484375 25.304688 13.238281 25.542969 13.546875 25.46875 C 13.417969 25.664062 12.695312 25.292969 12.707031 24.953125 C 12.84375 25.035156 12.847656 25.238281 13.007812 25.296875 C 13.230469 25.253906 13.011719 25.097656 13.125 25.011719 C 13.285156 24.996094 13.171875 25.234375 13.367188 25.183594 C 13.355469 25.289062 13.164062 25.21875 13.125 25.296875 C 13.082031 25.390625 13.410156 25.390625 13.367188 25.296875 " fill-opacity="1" fill-rule="nonzero"/><path fill="#ffffff" d="M 13.367188 25.011719 C 13.519531 24.816406 13.511719 25.304688 13.367188 25.011719 " fill-opacity="1" fill-rule="nonzero"/><path fill="#ffffff" d="M 13.367188 0.976562 C 13.667969 1.101562 13.292969 1.289062 13.304688 1.488281 C 13.15625 1.378906 13.375 1.140625 13.367188 0.976562 " fill-opacity="1" fill-rule="nonzero"/><path fill="#ffffff" d="M 13.246094 26.730469 C 13.253906 26.636719 13.589844 27.074219 13.246094 27.015625 C 13.289062 26.839844 13.289062 26.90625 13.246094 26.730469 " fill-opacity="1" fill-rule="nonzero"/><path fill="#ffffff" d="M 13.1875 22.609375 C 13.226562 22.449219 13.257812 22.742188 13.246094 22.78125 C 13.21875 22.894531 13.132812 22.828125 13.1875 22.609375 " fill-opacity="1" fill-rule="nonzero"/><path fill="#ffffff" d="M 13.246094 5.726562 C 13.210938 5.777344 13.078125 5.8125 13.1875 5.839844 C 12.933594 6.023438 12.636719 5.753906 12.40625 5.726562 C 12.441406 5.675781 12.480469 5.621094 12.40625 5.609375 C 12.832031 5.453125 12.757812 5.710938 13.066406 5.609375 C 13.039062 5.734375 13.152344 5.71875 13.246094 5.726562 " fill-opacity="1" fill-rule="nonzero"/><path fill="#ffffff" d="M 13.007812 24.097656 C 13.207031 24.039062 13.097656 24.273438 13.125 24.382812 C 12.996094 24.375 12.996094 24.238281 13.007812 24.097656 " fill-opacity="1" fill-rule="nonzero"/><path fill="#ffffff" d="M 13.066406 15.796875 L 13.066406 15.914062 L 12.945312 15.914062 L 12.945312 15.796875 L 13.066406 15.796875 " fill-opacity="1" fill-rule="nonzero"/><path fill="#ffffff" d="M 13.046875 18.199219 C 13.03125 18.214844 13.019531 18.234375 13.007812 18.257812 C 13.019531 18.222656 13.03125 18.203125 13.046875 18.199219 " fill-opacity="1" fill-rule="nonzero"/><path fill="#ffffff" d="M 13.246094 12.878906 C 12.976562 12.8125 12.957031 12.507812 12.707031 12.421875 C 13.054688 12.15625 13.238281 12.535156 13.246094 12.878906 " fill-opacity="1" fill-rule="nonzero"/><path fill="#ffffff" d="M 12.945312 6.871094 C 12.957031 6.9375 12.933594 6.972656 12.886719 6.984375 C 12.886719 7.039062 12.960938 7.027344 13.007812 7.042969 C 12.8125 7.144531 12.4375 6.953125 12.285156 6.984375 C 12.203125 6.964844 12.234375 6.839844 12.226562 6.753906 C 12.550781 6.796875 12.726562 6.808594 12.945312 6.871094 " fill-opacity="1" fill-rule="nonzero"/><path fill="#ffffff" d="M 13.066406 10.304688 C 12.757812 10.078125 12.433594 10.429688 12.347656 10.074219 C 12.613281 10.125 12.960938 10.097656 13.066406 10.304688 " fill-opacity="1" fill-rule="nonzero"/><path fill="#ffffff" d="M 12.765625 0.859375 C 12.84375 0.992188 12.574219 1.285156 12.527344 1.488281 C 12.351562 1.265625 12.746094 1.09375 12.765625 0.859375 " fill-opacity="1" fill-rule="nonzero"/><path fill="#ffffff" d="M 12.765625 8.1875 C 12.535156 8.300781 12.140625 8.152344 12.046875 7.957031 C 12.328125 7.996094 12.726562 7.917969 12.765625 8.1875 " fill-opacity="1" fill-rule="nonzero"/><path fill="#ffffff" d="M 12.40625 18.945312 C 12.429688 18.835938 12.480469 18.984375 12.464844 19.058594 C 12.441406 19.167969 12.390625 19.023438 12.40625 18.945312 " fill-opacity="1" fill-rule="nonzero"/><path fill="#ffffff" d="M 12.347656 1.316406 C 12.453125 1.359375 12.355469 1.421875 12.347656 1.488281 C 12.238281 1.449219 12.339844 1.386719 12.347656 1.316406 " fill-opacity="1" fill-rule="nonzero"/><path fill="#ffffff" d="M 12.40625 15.453125 C 12.15625 15.53125 11.90625 15.316406 11.6875 15.167969 C 11.261719 14.886719 10.859375 14.558594 10.605469 14.082031 C 10.816406 13.886719 10.648438 13.660156 10.667969 13.335938 C 10.757812 13.261719 10.730469 13.691406 10.785156 13.851562 C 10.964844 14.34375 11.472656 14.839844 11.867188 15.109375 C 12.058594 15.246094 12.328125 15.261719 12.40625 15.453125 Z M 10.839844 14.265625 L 10.847656 14.28125 C 10.847656 14.277344 10.84375 14.273438 10.839844 14.265625 " fill-opacity="1" fill-rule="nonzero"/><path fill="#ffffff" d="M 12.285156 0.917969 C 12.460938 0.949219 12.195312 1.007812 12.226562 1.089844 C 12.027344 1.035156 12.292969 0.976562 12.285156 0.917969 " fill-opacity="1" fill-rule="nonzero"/><path fill="#ffffff" d="M 12.226562 14.652344 C 12.246094 14.722656 12.21875 14.683594 12.167969 14.617188 C 12.183594 14.632812 12.203125 14.644531 12.226562 14.652344 " fill-opacity="1" fill-rule="nonzero"/><path fill="#ffffff" d="M 12.105469 2.921875 C 12.210938 2.902344 12.214844 3.242188 12.046875 3.148438 C 12.09375 3.097656 12.113281 3.019531 12.105469 2.921875 " fill-opacity="1" fill-rule="nonzero"/><path fill="#ffffff" d="M 12.097656 14.527344 C 12.125 14.558594 12.148438 14.589844 12.167969 14.617188 C 12.140625 14.59375 12.117188 14.5625 12.097656 14.527344 " fill-opacity="1" fill-rule="nonzero"/><path fill="#ffffff" d="M 11.925781 3.722656 C 12.167969 3.746094 11.84375 4.109375 11.925781 4.351562 C 11.679688 4.269531 12.007812 4 11.925781 3.722656 " fill-opacity="1" fill-rule="nonzero"/><path fill="#ffffff" d="M 11.746094 4.808594 C 11.792969 4.894531 11.785156 5.417969 11.566406 5.4375 C 11.644531 5.246094 11.558594 4.898438 11.746094 4.808594 " fill-opacity="1" fill-rule="nonzero"/><path fill="#ffffff" d="M 11.566406 1.777344 C 11.613281 1.808594 11.664062 1.835938 11.746094 1.832031 C 11.730469 2.03125 11.585938 1.828125 11.566406 1.949219 C 11.476562 1.921875 11.589844 1.875 11.566406 1.777344 " fill-opacity="1" fill-rule="nonzero"/><path fill="#ffffff" d="M 11.6875 13.910156 C 11.6875 13.945312 11.691406 13.980469 11.699219 14.015625 C 11.6875 13.984375 11.679688 13.949219 11.6875 13.910156 " fill-opacity="1" fill-rule="nonzero"/><path fill="#ffffff" d="M 11.566406 6.355469 C 11.597656 6.515625 11.382812 6.019531 11.386719 5.839844 C 11.589844 5.875 11.464844 6.222656 11.566406 6.355469 " fill-opacity="1" fill-rule="nonzero"/><path fill="#ffffff" d="M 11.386719 1.148438 C 11.035156 1.347656 11.222656 1.53125 11.386719 1.148438 Z M 11.6875 0.804688 C 11.460938 1.160156 11.332031 1.609375 11.085938 1.949219 C 10.863281 1.855469 11.367188 1.414062 10.964844 1.488281 C 11.1875 1.242188 11.28125 0.875 11.6875 0.804688 " fill-opacity="1" fill-rule="nonzero"/><path fill="#ffffff" d="M 11.386719 1.148438 C 11.222656 1.53125 11.035156 1.347656 11.386719 1.148438 " fill-opacity="1" fill-rule="nonzero"/><path fill="#ffffff" d="M 10.964844 8.359375 C 11.054688 8.464844 10.90625 8.832031 10.847656 8.988281 C 10.652344 8.976562 10.890625 8.480469 10.964844 8.359375 " fill-opacity="1" fill-rule="nonzero"/><path fill="#ffffff" d="M 10.847656 1.777344 C 10.945312 1.832031 10.984375 1.929688 10.90625 2.003906 C 10.824219 1.988281 10.855469 1.863281 10.847656 1.777344 " fill-opacity="1" fill-rule="nonzero"/><path fill="#ffffff" d="M 10.847656 14.28125 L 10.839844 14.265625 C 10.84375 14.273438 10.847656 14.277344 10.847656 14.28125 " fill-opacity="1" fill-rule="nonzero"/><path fill="#ffffff" d="M 10.726562 12.421875 C 10.75 12.3125 10.804688 12.457031 10.785156 12.535156 C 10.765625 12.644531 10.710938 12.5 10.726562 12.421875 " fill-opacity="1" fill-rule="nonzero"/><path fill="#ffffff" d="M 10.667969 9.558594 C 10.835938 9.636719 10.621094 9.8125 10.605469 9.902344 C 10.480469 9.871094 10.691406 9.6875 10.667969 9.558594 " fill-opacity="1" fill-rule="nonzero"/><path fill="#ffffff" d="M 9.886719 14.023438 C 9.890625 14.0625 9.894531 14.101562 9.90625 14.140625 C 9.878906 14.113281 9.859375 14.074219 9.886719 14.023438 " fill-opacity="1" fill-rule="nonzero"/><g clip-path="url(#527dad613b)"><path fill="#ffffff" d="M 8.867188 13.28125 C 8.890625 13.171875 8.941406 13.316406 8.925781 13.394531 C 8.90625 13.503906 8.851562 13.355469 8.867188 13.28125 " fill-opacity="1" fill-rule="nonzero"/></g><g clip-path="url(#b9b6a2310c)"><path fill="#ffffff" d="M 8.867188 10.53125 L 8.867188 10.648438 L 8.746094 10.648438 L 8.746094 10.53125 L 8.867188 10.53125 " fill-opacity="1" fill-rule="nonzero"/></g></svg>