<svg xmlns="http://www.w3.org/2000/svg" xmlns:xlink="http://www.w3.org/1999/xlink" width="40" zoomAndPan="magnify" viewBox="0 0 30 30.000001" height="40" preserveAspectRatio="xMidYMid meet" version="1.0"><defs><clipPath id="b600c27d4c"><path d="M 0.949219 0.46875 L 29.257812 0.46875 L 29.257812 28.773438 L 0.949219 28.773438 Z M 0.949219 0.46875 " clip-rule="nonzero"/></clipPath></defs><path fill="#ad2727" d="M 12.695312 11.390625 C 10.050781 12.917969 14.085938 20.484375 16.976562 18.8125 L 19.660156 23.460938 C 18.441406 24.164062 17.40625 24.609375 15.992188 23.800781 C 12.0625 21.550781 7.734375 14.0625 7.859375 9.59375 C 7.902344 8.042969 8.816406 7.433594 10.011719 6.746094 Z M 12.695312 11.390625 " fill-opacity="1" fill-rule="evenodd"/><path fill="#ad2727" d="M 13.804688 11.265625 C 13.515625 11.429688 13.148438 11.332031 12.984375 11.046875 L 10.457031 6.664062 C 10.289062 6.378906 10.390625 6.011719 10.675781 5.847656 L 12.003906 5.078125 C 12.289062 4.914062 12.65625 5.011719 12.824219 5.296875 L 15.351562 9.679688 C 15.515625 9.964844 15.417969 10.332031 15.132812 10.496094 Z M 13.804688 11.265625 " fill-opacity="1" fill-rule="evenodd"/><path fill="#ad2727" d="M 20.714844 23.234375 C 20.425781 23.398438 20.058594 23.300781 19.894531 23.015625 L 17.367188 18.632812 C 17.199219 18.347656 17.300781 17.980469 17.585938 17.816406 L 18.914062 17.046875 C 19.199219 16.882812 19.566406 16.980469 19.734375 17.265625 L 22.261719 21.648438 C 22.425781 21.933594 22.328125 22.300781 22.042969 22.464844 Z M 20.714844 23.234375 " fill-opacity="1" fill-rule="evenodd"/><g clip-path="url(#b600c27d4c)"><path fill="#ad2727" d="M 15.101562 0.46875 C 19.007812 0.46875 22.546875 2.054688 25.105469 4.613281 C 27.664062 7.171875 29.246094 10.707031 29.246094 14.617188 L 29.25 14.617188 L 29.246094 14.617188 C 29.246094 18.523438 27.664062 22.0625 25.105469 24.621094 C 22.546875 27.179688 19.007812 28.761719 15.101562 28.761719 L 15.101562 28.765625 L 15.097656 28.765625 L 15.097656 28.761719 C 11.191406 28.761719 7.652344 27.179688 5.09375 24.621094 C 2.535156 22.0625 0.953125 18.523438 0.953125 14.617188 L 0.949219 14.617188 L 0.953125 14.617188 C 0.953125 10.707031 2.535156 7.167969 5.09375 4.613281 C 7.652344 2.054688 11.191406 0.46875 15.097656 0.46875 Z M 15.101562 2.15625 L 15.097656 2.15625 C 11.664062 2.15625 8.546875 3.550781 6.292969 5.808594 C 4.035156 8.0625 2.640625 11.179688 2.640625 14.617188 C 2.640625 18.054688 4.035156 21.167969 6.292969 23.425781 C 8.546875 25.679688 11.664062 27.078125 15.101562 27.078125 L 15.101562 27.074219 L 15.101562 27.078125 C 18.539062 27.078125 21.652344 25.679688 23.910156 23.425781 C 26.164062 21.167969 27.5625 18.054688 27.5625 14.617188 L 27.558594 14.617188 L 27.5625 14.617188 C 27.5625 11.179688 26.164062 8.0625 23.910156 5.808594 C 21.652344 3.550781 18.535156 2.15625 15.101562 2.15625 Z M 15.101562 2.15625 " fill-opacity="1" fill-rule="nonzero"/></g></svg>