<svg xmlns="http://www.w3.org/2000/svg" xmlns:xlink="http://www.w3.org/1999/xlink" width="40" zoomAndPan="magnify" viewBox="0 0 30 30.000001" height="40" preserveAspectRatio="xMidYMid meet" version="1.0"><defs><clipPath id="e3eca5dd96"><path d="M 0.484375 0 L 29.515625 0 L 29.515625 23.953125 L 0.484375 23.953125 Z M 0.484375 0 " clip-rule="nonzero"/></clipPath></defs><g clip-path="url(#e3eca5dd96)"><path fill="#fcf5eb" d="M 2.828125 3.933594 L 3.390625 3.933594 L 3.390625 1.96875 C 3.390625 1.761719 3.558594 1.59375 3.765625 1.59375 L 7.882812 1.59375 C 8.089844 1.59375 8.257812 1.761719 8.257812 1.96875 L 8.257812 3.933594 L 9.683594 3.933594 C 10.167969 2.382812 10.722656 0.730469 12.394531 0.101562 C 13.996094 0.101562 15.601562 0.101562 17.203125 0.101562 C 19.054688 0 19.859375 2.515625 20.320312 3.933594 L 27.171875 3.933594 C 28.460938 3.933594 29.511719 4.984375 29.511719 6.269531 L 29.511719 21.613281 C 29.511719 22.898438 28.460938 23.953125 27.171875 23.953125 L 2.828125 23.953125 C 1.539062 23.953125 0.488281 22.898438 0.488281 21.613281 L 0.488281 6.269531 C 0.488281 4.984375 1.539062 3.933594 2.828125 3.933594 Z M 7.132812 2.25 L 7.132812 3.933594 L 7.507812 3.933594 L 7.507812 2.25 Z M 6.761719 3.933594 L 6.761719 2.25 L 6.386719 2.25 L 6.386719 3.933594 Z M 6.011719 3.933594 L 6.011719 2.25 L 5.636719 2.25 L 5.636719 3.933594 Z M 5.261719 3.933594 L 5.261719 2.25 L 4.886719 2.25 L 4.886719 3.933594 Z M 4.511719 3.933594 L 4.511719 2.25 L 4.136719 2.25 L 4.136719 3.933594 Z M 12.566406 1.035156 C 15.6875 1.035156 17.246094 1.035156 17.246094 1.035156 C 17.996094 1.035156 18.671875 1.886719 19.308594 3.84375 C 19.308594 3.84375 16.4375 3.84375 10.691406 3.84375 C 11.1875 2.253906 11.8125 1.320312 12.566406 1.035156 Z M 2.828125 4.867188 L 27.171875 4.867188 C 27.945312 4.867188 28.578125 5.5 28.578125 6.269531 L 28.578125 21.613281 C 28.578125 22.382812 27.945312 23.015625 27.171875 23.015625 L 2.828125 23.015625 C 2.054688 23.015625 1.421875 22.382812 1.421875 21.613281 L 1.421875 6.269531 C 1.421875 5.5 2.054688 4.867188 2.828125 4.867188 Z M 2.828125 4.867188 " fill-opacity="1" fill-rule="evenodd"/></g><path fill="#fcf5eb" d="M 21.742188 5.898438 L 25.488281 5.898438 L 25.488281 7.769531 L 21.742188 7.769531 Z M 22.117188 6.269531 L 25.113281 6.269531 L 25.113281 7.394531 L 22.117188 7.394531 Z M 22.117188 6.269531 " fill-opacity="1" fill-rule="evenodd"/><path fill="#fcf5eb" d="M 18.71875 8.890625 L 22.492188 8.890625 L 22.492188 9.265625 L 19.21875 9.265625 C 19.058594 9.132812 18.890625 9.007812 18.71875 8.890625 Z M 18.71875 8.890625 " fill-opacity="1" fill-rule="evenodd"/><path fill="#fcf5eb" d="M 1.328125 8.890625 L 11.375 8.890625 C 11.203125 9.007812 11.035156 9.132812 10.875 9.265625 L 1.328125 9.265625 Z M 1.328125 8.890625 " fill-opacity="1" fill-rule="evenodd"/><path fill="#fcf5eb" d="M 24.363281 8.890625 L 27.359375 8.890625 L 27.359375 9.265625 L 24.363281 9.265625 Z M 24.363281 8.890625 " fill-opacity="1" fill-rule="evenodd"/><path fill="#fcf5eb" d="M 18.828125 19.664062 L 27.265625 19.664062 L 27.265625 20.210938 L 17.90625 20.210938 C 18.230469 20.054688 18.539062 19.871094 18.828125 19.664062 Z M 18.828125 19.664062 " fill-opacity="1" fill-rule="evenodd"/><path fill="#fcf5eb" d="M 1.421875 19.664062 L 11.265625 19.664062 C 11.554688 19.871094 11.863281 20.054688 12.1875 20.210938 L 1.421875 20.210938 Z M 1.421875 19.664062 " fill-opacity="1" fill-rule="evenodd"/><path fill="#fcf5eb" d="M 15.046875 10.058594 C 17.398438 10.058594 19.308594 11.964844 19.308594 14.316406 C 19.308594 16.667969 17.398438 18.574219 15.046875 18.574219 C 12.695312 18.574219 10.785156 16.667969 10.785156 14.316406 C 10.785156 11.964844 12.695312 10.058594 15.046875 10.058594 Z M 15.046875 10.621094 C 17.089844 10.621094 18.746094 12.277344 18.746094 14.316406 C 18.746094 16.355469 17.089844 18.011719 15.046875 18.011719 C 13.003906 18.011719 11.347656 16.355469 11.347656 14.316406 C 11.347656 12.277344 13.003906 10.621094 15.046875 10.621094 Z M 15.046875 10.621094 " fill-opacity="1" fill-rule="evenodd"/><path fill="#fcf5eb" d="M 15.046875 7.769531 C 18.667969 7.769531 21.601562 10.699219 21.601562 14.316406 C 21.601562 17.933594 18.667969 20.863281 15.046875 20.863281 C 11.425781 20.863281 8.492188 17.933594 8.492188 14.316406 C 8.492188 10.699219 11.425781 7.769531 15.046875 7.769531 Z M 15.046875 8.632812 C 18.191406 8.632812 20.738281 11.175781 20.738281 14.316406 C 20.738281 17.457031 18.191406 20 15.046875 20 C 11.902344 20 9.355469 17.457031 9.355469 14.316406 C 9.355469 11.175781 11.902344 8.632812 15.046875 8.632812 Z M 15.046875 8.632812 " fill-opacity="1" fill-rule="evenodd"/><path fill="#fcf5eb" d="M 16.59375 12.175781 C 17.179688 12.175781 17.65625 12.652344 17.65625 13.242188 C 17.65625 13.828125 17.179688 14.304688 16.59375 14.304688 C 16.003906 14.304688 15.527344 13.828125 15.527344 13.242188 C 15.527344 12.652344 16.003906 12.175781 16.59375 12.175781 Z M 16.59375 12.316406 C 17.101562 12.316406 17.515625 12.730469 17.515625 13.242188 C 17.515625 13.75 17.101562 14.164062 16.59375 14.164062 C 16.082031 14.164062 15.667969 13.75 15.667969 13.242188 C 15.667969 12.730469 16.082031 12.316406 16.59375 12.316406 Z M 16.59375 12.316406 " fill-opacity="1" fill-rule="evenodd"/></svg>