<svg xmlns="http://www.w3.org/2000/svg" xmlns:xlink="http://www.w3.org/1999/xlink" width="40" zoomAndPan="magnify" viewBox="0 0 30 30.000001" height="40" preserveAspectRatio="xMidYMid meet" version="1.0"><defs><clipPath id="27c6c01754"><path d="M 0.484375 0 L 29.515625 0 L 29.515625 18.144531 L 0.484375 18.144531 Z M 0.484375 0 " clip-rule="nonzero"/></clipPath></defs><path fill="#fcf5eb" d="M 20.808594 11.554688 C 20.757812 11.554688 20.707031 11.558594 20.65625 11.566406 C 20.035156 11.648438 19.597656 12.234375 19.679688 12.867188 C 19.753906 13.441406 20.242188 13.875 20.808594 13.875 C 20.859375 13.875 20.910156 13.871094 20.957031 13.863281 C 21.582031 13.78125 22.019531 13.195312 21.9375 12.5625 C 21.863281 11.988281 21.375 11.554688 20.808594 11.554688 " fill-opacity="1" fill-rule="nonzero"/><path fill="#fcf5eb" d="M 22.367188 4.582031 C 21.863281 4.238281 21.191406 4.058594 20.429688 4.058594 C 20.207031 4.058594 19.972656 4.074219 19.746094 4.105469 C 18.984375 4.207031 18.246094 4.582031 17.71875 5.132812 C 17.1875 5.695312 16.925781 6.375 17.007812 7.003906 C 17.070312 7.46875 17.414062 7.769531 17.886719 7.769531 C 17.9375 7.769531 17.988281 7.765625 18.039062 7.757812 C 18.667969 7.671875 18.804688 7.230469 18.933594 6.804688 C 19.085938 6.320312 19.226562 5.859375 20.039062 5.75 C 20.121094 5.738281 20.203125 5.734375 20.28125 5.734375 C 20.867188 5.734375 21.230469 6.046875 21.300781 6.617188 C 21.375 7.175781 20.945312 7.625 20.484375 8.09375 C 19.964844 8.625 19.382812 9.222656 19.492188 10.074219 C 19.519531 10.296875 19.617188 10.5 19.761719 10.652344 C 19.925781 10.828125 20.140625 10.917969 20.382812 10.917969 C 20.425781 10.917969 20.472656 10.914062 20.519531 10.910156 C 21.175781 10.820312 21.265625 10.429688 21.355469 10.054688 C 21.386719 9.914062 21.421875 9.765625 21.488281 9.632812 C 21.578125 9.445312 21.808594 9.230469 22.074219 8.976562 C 22.703125 8.378906 23.570312 7.554688 23.410156 6.332031 C 23.308594 5.566406 22.960938 4.976562 22.367188 4.582031 " fill-opacity="1" fill-rule="nonzero"/><g clip-path="url(#27c6c01754)"><path fill="#fcf5eb" d="M 28.265625 15.046875 C 28.242188 15.078125 28.191406 15.128906 28.109375 15.140625 L 14.898438 16.9375 C 14.769531 16.953125 14.652344 16.859375 14.636719 16.734375 L 12.871094 3.277344 C 12.855469 3.144531 12.941406 3.027344 13.070312 3.007812 L 26.285156 1.210938 C 26.296875 1.210938 26.304688 1.210938 26.316406 1.210938 C 26.429688 1.210938 26.53125 1.296875 26.546875 1.417969 L 28.3125 14.875 C 28.320312 14.960938 28.285156 15.019531 28.265625 15.046875 Z M 11.960938 15.953125 C 11.949219 16.050781 11.855469 16.121094 11.757812 16.105469 L 1.523438 14.601562 C 1.457031 14.59375 1.421875 14.550781 1.402344 14.53125 C 1.386719 14.507812 1.359375 14.460938 1.367188 14.394531 L 2.847656 3.96875 C 2.859375 3.878906 2.9375 3.808594 3.023438 3.808594 C 3.035156 3.808594 3.042969 3.8125 3.054688 3.8125 L 11.964844 5.125 L 12.703125 10.734375 Z M 29.4375 14.722656 L 27.671875 1.261719 C 27.582031 0.574219 27.003906 0.0507812 26.316406 0.0507812 C 26.257812 0.0507812 26.195312 0.0585938 26.136719 0.0664062 L 12.921875 1.859375 C 12.171875 1.960938 11.644531 2.664062 11.746094 3.429688 L 11.84375 4.199219 L 3.179688 2.921875 C 3.128906 2.917969 3.074219 2.910156 3.023438 2.910156 C 2.5 2.910156 2.050781 3.3125 1.972656 3.839844 L 0.496094 14.265625 C 0.457031 14.550781 0.523438 14.835938 0.695312 15.066406 C 0.867188 15.300781 1.113281 15.449219 1.398438 15.492188 L 11.628906 16.996094 C 11.679688 17.003906 11.730469 17.007812 11.785156 17.007812 C 12.308594 17.007812 12.761719 16.609375 12.835938 16.082031 L 13.128906 14.003906 L 13.507812 16.882812 C 13.597656 17.574219 14.179688 18.097656 14.863281 18.097656 C 14.925781 18.097656 14.988281 18.09375 15.046875 18.085938 L 28.261719 16.289062 C 28.621094 16.242188 28.945312 16.050781 29.167969 15.753906 C 29.390625 15.457031 29.484375 15.089844 29.4375 14.722656 " fill-opacity="1" fill-rule="nonzero"/></g><path fill="#fcf5eb" d="M 9.605469 6.835938 C 9.199219 6.457031 8.597656 6.191406 7.914062 6.089844 C 7.789062 6.074219 7.660156 6.0625 7.53125 6.0625 C 6.996094 6.0625 6.464844 6.226562 6.042969 6.515625 C 5.605469 6.816406 5.332031 7.226562 5.269531 7.664062 C 5.242188 7.875 5.289062 8.0625 5.414062 8.207031 C 5.523438 8.332031 5.6875 8.421875 5.882812 8.453125 C 5.929688 8.457031 5.976562 8.460938 6.019531 8.460938 C 6.410156 8.460938 6.582031 8.191406 6.75 7.933594 C 6.9375 7.640625 7.113281 7.363281 7.582031 7.363281 C 7.648438 7.363281 7.71875 7.371094 7.789062 7.378906 C 8.347656 7.460938 8.625 7.800781 8.554688 8.300781 C 8.496094 8.734375 8.078125 8.976562 7.636719 9.226562 C 7.140625 9.511719 6.582031 9.835938 6.484375 10.496094 C 6.460938 10.675781 6.496094 10.867188 6.585938 11.019531 C 6.660156 11.140625 6.808594 11.296875 7.078125 11.335938 C 7.136719 11.34375 7.191406 11.347656 7.238281 11.347656 C 7.621094 11.347656 7.753906 11.109375 7.878906 10.875 C 7.933594 10.78125 7.988281 10.675781 8.066406 10.589844 C 8.171875 10.472656 8.390625 10.359375 8.636719 10.230469 C 9.234375 9.914062 10.054688 9.484375 10.1875 8.542969 C 10.28125 7.871094 10.082031 7.277344 9.605469 6.835938 " fill-opacity="1" fill-rule="nonzero"/><path fill="#fcf5eb" d="M 7.046875 11.851562 C 7.003906 11.847656 6.960938 11.84375 6.921875 11.84375 C 6.484375 11.84375 6.109375 12.179688 6.042969 12.617188 C 5.972656 13.109375 6.3125 13.566406 6.792969 13.636719 C 6.832031 13.640625 6.875 13.644531 6.917969 13.644531 C 7.355469 13.644531 7.734375 13.316406 7.792969 12.875 C 7.863281 12.382812 7.527344 11.925781 7.046875 11.851562 " fill-opacity="1" fill-rule="nonzero"/></svg>