<svg xmlns="http://www.w3.org/2000/svg" xmlns:xlink="http://www.w3.org/1999/xlink" width="40" zoomAndPan="magnify" viewBox="0 0 30 30.000001" height="40" preserveAspectRatio="xMidYMid meet" version="1.0"><defs><clipPath id="e5e5e2a30d"><path d="M 0.773438 0 L 29 0 L 29 29 L 0.773438 29 Z M 0.773438 0 " clip-rule="nonzero"/></clipPath></defs><g clip-path="url(#e5e5e2a30d)"><path fill="#ffffff" d="M 7.679688 28.574219 C 4.515625 27.4375 2.21875 24.609375 1.308594 20.730469 C 0.894531 18.972656 0.777344 16.0625 1.121094 16.0625 C 1.234375 16.0625 1.539062 16.863281 1.792969 17.835938 C 2.359375 19.972656 3.320312 21.976562 4.246094 22.957031 C 5.789062 24.589844 9.609375 25.226562 11.808594 24.222656 C 13.523438 23.441406 14.21875 21.582031 13.472656 19.773438 C 12.898438 18.375 11.589844 17.90625 9.15625 18.230469 C 9.15625 18.230469 7.664062 16.617188 7.191406 13.75 L 8.71875 13.890625 C 10.5625 14.058594 11.953125 13.648438 12.671875 12.726562 C 13.351562 11.859375 13.335938 11.523438 12.582031 10.644531 C 11.492188 9.371094 9.539062 9.691406 5.578125 11.796875 L 3.582031 8.433594 L 4.417969 7.789062 C 6.515625 6.183594 10.160156 5.378906 12.234375 6.066406 C 14.125 6.691406 15.511719 9.179688 15.140625 11.273438 C 14.890625 12.691406 13.757812 14.675781 12.886719 15.230469 L 12.132812 15.710938 L 13.171875 16.183594 C 14.941406 16.984375 16.019531 16.371094 17.3125 13.835938 C 19.097656 10.324219 20.253906 9.414062 22.945312 9.410156 C 24.199219 9.410156 24.648438 9.542969 25.5625 10.1875 C 27.84375 11.792969 29.085938 15.121094 28.8125 18.894531 C 28.46875 23.671875 26.214844 26.570312 22.847656 26.570312 C 20.996094 26.570312 19.804688 25.921875 18.855469 24.390625 C 18.023438 23.046875 17.648438 20.386719 18.128906 19.214844 C 18.355469 18.65625 18.398438 18.636719 18.414062 19.085938 C 18.441406 19.910156 19.375 21.253906 20.234375 21.699219 C 22.339844 22.792969 25.363281 21.417969 26.558594 18.824219 C 27.46875 16.851562 26.980469 13.050781 25.734375 12.378906 C 25.472656 12.238281 24.828125 12.125 24.300781 12.125 C 23.183594 12.125 22.300781 12.933594 21.070312 15.097656 C 20.644531 15.847656 19.925781 16.8125 19.476562 17.246094 C 18.742188 17.949219 18.480469 18.035156 17.015625 18.035156 L 15.378906 18.035156 L 15.910156 19.214844 C 16.667969 20.910156 16.628906 23.65625 15.828125 25.332031 C 15.121094 26.808594 13.480469 28.308594 12.171875 28.671875 C 10.894531 29.027344 8.820312 28.984375 7.679688 28.574219 Z M 13.851562 5.703125 C 13.125 4.460938 12.679688 2.140625 13.164062 2.140625 C 13.734375 3.386719 14.90625 4.496094 16.15625 5.269531 C 18.40625 6.363281 20.691406 5.921875 23.183594 3.910156 C 23.730469 3.46875 24.21875 3.152344 24.261719 3.214844 C 24.871094 4.164062 25.921875 4.9375 26.273438 6.042969 C 26.273438 6.507812 24.277344 7.847656 22.703125 8.4375 C 18.804688 9.566406 16.152344 9.121094 13.847656 5.703125 Z M 15.8125 2.832031 L 18.351562 0.00390625 L 21.171875 2.628906 C 20.207031 3.425781 19.511719 4.664062 18.410156 5.292969 C 17.539062 4.648438 16.238281 3.886719 15.8125 2.832031 Z M 15.8125 2.832031 " fill-opacity="1" fill-rule="nonzero"/></g></svg>