<svg xmlns="http://www.w3.org/2000/svg" xmlns:xlink="http://www.w3.org/1999/xlink" width="40" zoomAndPan="magnify" viewBox="0 0 30 30.000001" height="40" preserveAspectRatio="xMidYMid meet" version="1.0"><defs><clipPath id="d7f5f301d7"><path d="M 0.484375 1.453125 L 29.515625 1.453125 L 29.515625 27.582031 L 0.484375 27.582031 Z M 0.484375 1.453125 " clip-rule="nonzero"/></clipPath></defs><g clip-path="url(#d7f5f301d7)"><path fill="#ffffff" d="M 22.148438 27.550781 C 21.75 27.550781 21.410156 27.410156 21.128906 27.128906 L 15.082031 21.085938 L 11.75 25.53125 C 11.589844 25.746094 11.382812 25.902344 11.132812 26.003906 C 10.886719 26.105469 10.628906 26.132812 10.363281 26.089844 C 10.097656 26.046875 9.863281 25.9375 9.65625 25.765625 C 9.453125 25.589844 9.308594 25.375 9.222656 25.121094 L 6.523438 17.019531 L 1.28125 14.398438 C 1.027344 14.273438 0.828125 14.085938 0.683594 13.839844 C 0.539062 13.59375 0.472656 13.328125 0.484375 13.039062 C 0.5 12.753906 0.589844 12.496094 0.753906 12.265625 C 0.921875 12.03125 1.136719 11.863281 1.40625 11.761719 L 27.402344 1.652344 C 27.65625 1.554688 27.914062 1.527344 28.179688 1.574219 C 28.445312 1.621094 28.679688 1.734375 28.882812 1.914062 C 29.085938 2.09375 29.226562 2.308594 29.304688 2.566406 C 29.386719 2.824219 29.394531 3.085938 29.328125 3.347656 L 23.550781 26.457031 C 23.46875 26.777344 23.300781 27.042969 23.039062 27.246094 C 22.777344 27.449219 22.480469 27.550781 22.148438 27.550781 Z M 15.96875 17.882812 L 21.367188 23.28125 L 25.84375 5.355469 L 5.488281 13.273438 L 8.355469 14.703125 C 8.710938 14.882812 8.953125 15.160156 9.078125 15.539062 L 11.09375 21.589844 L 13.023438 19.019531 L 12.464844 18.460938 C 12.328125 18.328125 12.226562 18.171875 12.152344 17.992188 C 12.078125 17.816406 12.042969 17.632812 12.042969 17.441406 C 12.042969 17.25 12.078125 17.066406 12.152344 16.886719 C 12.226562 16.710938 12.328125 16.554688 12.464844 16.417969 L 18.242188 10.640625 C 18.378906 10.511719 18.535156 10.410156 18.710938 10.339844 C 18.886719 10.269531 19.070312 10.234375 19.257812 10.238281 C 19.449219 10.238281 19.628906 10.277344 19.804688 10.347656 C 19.980469 10.421875 20.132812 10.527344 20.265625 10.660156 C 20.402344 10.792969 20.503906 10.949219 20.578125 11.121094 C 20.652344 11.296875 20.6875 11.480469 20.691406 11.667969 C 20.691406 11.859375 20.65625 12.039062 20.585938 12.214844 C 20.515625 12.390625 20.414062 12.546875 20.285156 12.683594 L 15.527344 17.441406 Z M 15.96875 17.882812 " fill-opacity="1" fill-rule="nonzero"/></g></svg>